%TF.GenerationSoftware,KiCad,Pcbnew,9.0.8*%
%TF.CreationDate,2026-07-17T22:01:45-04:00*%
%TF.ProjectId,PortableRAM-8MB,506f7274-6162-46c6-9552-414d2d384d42,3.0*%
%TF.SameCoordinates,Original*%
%TF.FileFunction,Paste,Top*%
%TF.FilePolarity,Positive*%
%FSLAX46Y46*%
G04 Gerber Fmt 4.6, Leading zero omitted, Abs format (unit mm)*
G04 Created by KiCad (PCBNEW 9.0.8) date 2026-07-17 22:01:45*
%MOMM*%
%LPD*%
G01*
G04 APERTURE LIST*
G04 Aperture macros list*
%AMRoundRect*
0 Rectangle with rounded corners*
0 $1 Rounding radius*
0 $2 $3 $4 $5 $6 $7 $8 $9 X,Y pos of 4 corners*
0 Add a 4 corners polygon primitive as box body*
4,1,4,$2,$3,$4,$5,$6,$7,$8,$9,$2,$3,0*
0 Add four circle primitives for the rounded corners*
1,1,$1+$1,$2,$3*
1,1,$1+$1,$4,$5*
1,1,$1+$1,$6,$7*
1,1,$1+$1,$8,$9*
0 Add four rect primitives between the rounded corners*
20,1,$1+$1,$2,$3,$4,$5,0*
20,1,$1+$1,$4,$5,$6,$7,0*
20,1,$1+$1,$6,$7,$8,$9,0*
20,1,$1+$1,$8,$9,$2,$3,0*%
G04 Aperture macros list end*
%ADD10RoundRect,0.135000X0.185000X-0.135000X0.185000X0.135000X-0.185000X0.135000X-0.185000X-0.135000X0*%
%ADD11RoundRect,0.135000X-0.135000X-0.185000X0.135000X-0.185000X0.135000X0.185000X-0.135000X0.185000X0*%
%ADD12RoundRect,0.137500X-0.625000X-0.137500X0.625000X-0.137500X0.625000X0.137500X-0.625000X0.137500X0*%
%ADD13RoundRect,0.218750X-0.218750X-0.256250X0.218750X-0.256250X0.218750X0.256250X-0.218750X0.256250X0*%
%ADD14RoundRect,0.150000X0.150000X-0.875000X0.150000X0.875000X-0.150000X0.875000X-0.150000X-0.875000X0*%
%ADD15RoundRect,0.137500X0.137500X-0.600000X0.137500X0.600000X-0.137500X0.600000X-0.137500X-0.600000X0*%
%ADD16RoundRect,0.137500X0.600000X-0.137500X0.600000X0.137500X-0.600000X0.137500X-0.600000X-0.137500X0*%
%ADD17RoundRect,0.250000X-0.262500X-0.450000X0.262500X-0.450000X0.262500X0.450000X-0.262500X0.450000X0*%
G04 APERTURE END LIST*
D10*
%TO.C,R10*%
X85500000Y-86510000D03*
X85500000Y-85490000D03*
%TD*%
%TO.C,R14*%
X79500000Y-110510000D03*
X79500000Y-109490000D03*
%TD*%
D11*
%TO.C,R3*%
X165490000Y-78500000D03*
X166510000Y-78500000D03*
%TD*%
D12*
%TO.C,U5*%
X107825000Y-102600000D03*
X107825000Y-103400000D03*
X107825000Y-104200000D03*
X107825000Y-105000000D03*
X107825000Y-105800000D03*
X107825000Y-106600000D03*
X107825000Y-107400000D03*
X107825000Y-108200000D03*
X107825000Y-109000000D03*
X107825000Y-109800000D03*
X107825000Y-110600000D03*
X107825000Y-111400000D03*
X107825000Y-112200000D03*
X107825000Y-113000000D03*
X107825000Y-113800000D03*
X107825000Y-114600000D03*
X107825000Y-115400000D03*
X107825000Y-116200000D03*
X107825000Y-117000000D03*
X107825000Y-117800000D03*
X107825000Y-118600000D03*
X107825000Y-119400000D03*
X119000000Y-119400000D03*
X119000000Y-118600000D03*
X119000000Y-117800000D03*
X119000000Y-117000000D03*
X119000000Y-116200000D03*
X119000000Y-115400000D03*
X119000000Y-114600000D03*
X119000000Y-113800000D03*
X119000000Y-113000000D03*
X119000000Y-112200000D03*
X119000000Y-111400000D03*
X119000000Y-110600000D03*
X119000000Y-109800000D03*
X119000000Y-109000000D03*
X119000000Y-108200000D03*
X119000000Y-107400000D03*
X119000000Y-106600000D03*
X119000000Y-105800000D03*
X119000000Y-105000000D03*
X119000000Y-104200000D03*
X119000000Y-103400000D03*
X119000000Y-102600000D03*
%TD*%
D11*
%TO.C,R1*%
X122490000Y-78500000D03*
X123510000Y-78500000D03*
%TD*%
D10*
%TO.C,R16*%
X82500000Y-110510000D03*
X82500000Y-109490000D03*
%TD*%
%TO.C,R19*%
X87000000Y-110510000D03*
X87000000Y-109490000D03*
%TD*%
D13*
%TO.C,D2*%
X138712500Y-78500000D03*
X140287500Y-78500000D03*
%TD*%
D14*
%TO.C,U11*%
X76960000Y-123800000D03*
X78230000Y-123800000D03*
X79500000Y-123800000D03*
X80770000Y-123800000D03*
X82040000Y-123800000D03*
X83310000Y-123800000D03*
X84580000Y-123800000D03*
X85850000Y-123800000D03*
X87120000Y-123800000D03*
X88390000Y-123800000D03*
X88390000Y-114500000D03*
X87120000Y-114500000D03*
X85850000Y-114500000D03*
X84580000Y-114500000D03*
X83310000Y-114500000D03*
X82040000Y-114500000D03*
X80770000Y-114500000D03*
X79500000Y-114500000D03*
X78230000Y-114500000D03*
X76960000Y-114500000D03*
%TD*%
D10*
%TO.C,R18*%
X85500000Y-110510000D03*
X85500000Y-109490000D03*
%TD*%
%TO.C,R17*%
X84000000Y-110510000D03*
X84000000Y-109490000D03*
%TD*%
D15*
%TO.C,U9*%
X176162500Y-139162500D03*
X176962500Y-139162500D03*
X177762500Y-139162500D03*
X178562500Y-139162500D03*
X179362500Y-139162500D03*
X180162500Y-139162500D03*
X180962500Y-139162500D03*
X181762500Y-139162500D03*
X182562500Y-139162500D03*
X183362500Y-139162500D03*
X184162500Y-139162500D03*
D16*
X185825000Y-137500000D03*
X185825000Y-136700000D03*
X185825000Y-135900000D03*
X185825000Y-135100000D03*
X185825000Y-134300000D03*
X185825000Y-133500000D03*
X185825000Y-132700000D03*
X185825000Y-131900000D03*
X185825000Y-131100000D03*
X185825000Y-130300000D03*
X185825000Y-129500000D03*
D15*
X184162500Y-127837500D03*
X183362500Y-127837500D03*
X182562500Y-127837500D03*
X181762500Y-127837500D03*
X180962500Y-127837500D03*
X180162500Y-127837500D03*
X179362500Y-127837500D03*
X178562500Y-127837500D03*
X177762500Y-127837500D03*
X176962500Y-127837500D03*
X176162500Y-127837500D03*
D16*
X174500000Y-129500000D03*
X174500000Y-130300000D03*
X174500000Y-131100000D03*
X174500000Y-131900000D03*
X174500000Y-132700000D03*
X174500000Y-133500000D03*
X174500000Y-134300000D03*
X174500000Y-135100000D03*
X174500000Y-135900000D03*
X174500000Y-136700000D03*
X174500000Y-137500000D03*
%TD*%
D10*
%TO.C,R12*%
X88500000Y-86510000D03*
X88500000Y-85490000D03*
%TD*%
%TO.C,R5*%
X78000000Y-86510000D03*
X78000000Y-85490000D03*
%TD*%
D12*
%TO.C,U1*%
X107825000Y-81600000D03*
X107825000Y-82400000D03*
X107825000Y-83200000D03*
X107825000Y-84000000D03*
X107825000Y-84800000D03*
X107825000Y-85600000D03*
X107825000Y-86400000D03*
X107825000Y-87200000D03*
X107825000Y-88000000D03*
X107825000Y-88800000D03*
X107825000Y-89600000D03*
X107825000Y-90400000D03*
X107825000Y-91200000D03*
X107825000Y-92000000D03*
X107825000Y-92800000D03*
X107825000Y-93600000D03*
X107825000Y-94400000D03*
X107825000Y-95200000D03*
X107825000Y-96000000D03*
X107825000Y-96800000D03*
X107825000Y-97600000D03*
X107825000Y-98400000D03*
X119000000Y-98400000D03*
X119000000Y-97600000D03*
X119000000Y-96800000D03*
X119000000Y-96000000D03*
X119000000Y-95200000D03*
X119000000Y-94400000D03*
X119000000Y-93600000D03*
X119000000Y-92800000D03*
X119000000Y-92000000D03*
X119000000Y-91200000D03*
X119000000Y-90400000D03*
X119000000Y-89600000D03*
X119000000Y-88800000D03*
X119000000Y-88000000D03*
X119000000Y-87200000D03*
X119000000Y-86400000D03*
X119000000Y-85600000D03*
X119000000Y-84800000D03*
X119000000Y-84000000D03*
X119000000Y-83200000D03*
X119000000Y-82400000D03*
X119000000Y-81600000D03*
%TD*%
%TO.C,U2*%
X129325000Y-81600000D03*
X129325000Y-82400000D03*
X129325000Y-83200000D03*
X129325000Y-84000000D03*
X129325000Y-84800000D03*
X129325000Y-85600000D03*
X129325000Y-86400000D03*
X129325000Y-87200000D03*
X129325000Y-88000000D03*
X129325000Y-88800000D03*
X129325000Y-89600000D03*
X129325000Y-90400000D03*
X129325000Y-91200000D03*
X129325000Y-92000000D03*
X129325000Y-92800000D03*
X129325000Y-93600000D03*
X129325000Y-94400000D03*
X129325000Y-95200000D03*
X129325000Y-96000000D03*
X129325000Y-96800000D03*
X129325000Y-97600000D03*
X129325000Y-98400000D03*
X140500000Y-98400000D03*
X140500000Y-97600000D03*
X140500000Y-96800000D03*
X140500000Y-96000000D03*
X140500000Y-95200000D03*
X140500000Y-94400000D03*
X140500000Y-93600000D03*
X140500000Y-92800000D03*
X140500000Y-92000000D03*
X140500000Y-91200000D03*
X140500000Y-90400000D03*
X140500000Y-89600000D03*
X140500000Y-88800000D03*
X140500000Y-88000000D03*
X140500000Y-87200000D03*
X140500000Y-86400000D03*
X140500000Y-85600000D03*
X140500000Y-84800000D03*
X140500000Y-84000000D03*
X140500000Y-83200000D03*
X140500000Y-82400000D03*
X140500000Y-81600000D03*
%TD*%
%TO.C,U3*%
X150825000Y-81600000D03*
X150825000Y-82400000D03*
X150825000Y-83200000D03*
X150825000Y-84000000D03*
X150825000Y-84800000D03*
X150825000Y-85600000D03*
X150825000Y-86400000D03*
X150825000Y-87200000D03*
X150825000Y-88000000D03*
X150825000Y-88800000D03*
X150825000Y-89600000D03*
X150825000Y-90400000D03*
X150825000Y-91200000D03*
X150825000Y-92000000D03*
X150825000Y-92800000D03*
X150825000Y-93600000D03*
X150825000Y-94400000D03*
X150825000Y-95200000D03*
X150825000Y-96000000D03*
X150825000Y-96800000D03*
X150825000Y-97600000D03*
X150825000Y-98400000D03*
X162000000Y-98400000D03*
X162000000Y-97600000D03*
X162000000Y-96800000D03*
X162000000Y-96000000D03*
X162000000Y-95200000D03*
X162000000Y-94400000D03*
X162000000Y-93600000D03*
X162000000Y-92800000D03*
X162000000Y-92000000D03*
X162000000Y-91200000D03*
X162000000Y-90400000D03*
X162000000Y-89600000D03*
X162000000Y-88800000D03*
X162000000Y-88000000D03*
X162000000Y-87200000D03*
X162000000Y-86400000D03*
X162000000Y-85600000D03*
X162000000Y-84800000D03*
X162000000Y-84000000D03*
X162000000Y-83200000D03*
X162000000Y-82400000D03*
X162000000Y-81600000D03*
%TD*%
%TO.C,U7*%
X150825000Y-102600000D03*
X150825000Y-103400000D03*
X150825000Y-104200000D03*
X150825000Y-105000000D03*
X150825000Y-105800000D03*
X150825000Y-106600000D03*
X150825000Y-107400000D03*
X150825000Y-108200000D03*
X150825000Y-109000000D03*
X150825000Y-109800000D03*
X150825000Y-110600000D03*
X150825000Y-111400000D03*
X150825000Y-112200000D03*
X150825000Y-113000000D03*
X150825000Y-113800000D03*
X150825000Y-114600000D03*
X150825000Y-115400000D03*
X150825000Y-116200000D03*
X150825000Y-117000000D03*
X150825000Y-117800000D03*
X150825000Y-118600000D03*
X150825000Y-119400000D03*
X162000000Y-119400000D03*
X162000000Y-118600000D03*
X162000000Y-117800000D03*
X162000000Y-117000000D03*
X162000000Y-116200000D03*
X162000000Y-115400000D03*
X162000000Y-114600000D03*
X162000000Y-113800000D03*
X162000000Y-113000000D03*
X162000000Y-112200000D03*
X162000000Y-111400000D03*
X162000000Y-110600000D03*
X162000000Y-109800000D03*
X162000000Y-109000000D03*
X162000000Y-108200000D03*
X162000000Y-107400000D03*
X162000000Y-106600000D03*
X162000000Y-105800000D03*
X162000000Y-105000000D03*
X162000000Y-104200000D03*
X162000000Y-103400000D03*
X162000000Y-102600000D03*
%TD*%
D10*
%TO.C,R8*%
X82500000Y-86510000D03*
X82500000Y-85490000D03*
%TD*%
D13*
%TO.C,D1*%
X117212500Y-78500000D03*
X118787500Y-78500000D03*
%TD*%
D11*
%TO.C,R4*%
X187490000Y-78500000D03*
X188510000Y-78500000D03*
%TD*%
D17*
%TO.C,R24*%
X176747500Y-73500000D03*
X178572500Y-73500000D03*
%TD*%
D10*
%TO.C,R15*%
X81000000Y-110510000D03*
X81000000Y-109490000D03*
%TD*%
%TO.C,R13*%
X78000000Y-110510000D03*
X78000000Y-109490000D03*
%TD*%
%TO.C,R7*%
X81000000Y-86510000D03*
X81000000Y-85490000D03*
%TD*%
%TO.C,R20*%
X88500000Y-110510000D03*
X88500000Y-109490000D03*
%TD*%
D13*
%TO.C,D3*%
X160212500Y-78500000D03*
X161787500Y-78500000D03*
%TD*%
D10*
%TO.C,R6*%
X79500000Y-86510000D03*
X79500000Y-85490000D03*
%TD*%
D11*
%TO.C,R2*%
X143990000Y-78500000D03*
X145010000Y-78500000D03*
%TD*%
D10*
%TO.C,R11*%
X87000000Y-86510000D03*
X87000000Y-85490000D03*
%TD*%
D12*
%TO.C,U8*%
X172825000Y-102600000D03*
X172825000Y-103400000D03*
X172825000Y-104200000D03*
X172825000Y-105000000D03*
X172825000Y-105800000D03*
X172825000Y-106600000D03*
X172825000Y-107400000D03*
X172825000Y-108200000D03*
X172825000Y-109000000D03*
X172825000Y-109800000D03*
X172825000Y-110600000D03*
X172825000Y-111400000D03*
X172825000Y-112200000D03*
X172825000Y-113000000D03*
X172825000Y-113800000D03*
X172825000Y-114600000D03*
X172825000Y-115400000D03*
X172825000Y-116200000D03*
X172825000Y-117000000D03*
X172825000Y-117800000D03*
X172825000Y-118600000D03*
X172825000Y-119400000D03*
X184000000Y-119400000D03*
X184000000Y-118600000D03*
X184000000Y-117800000D03*
X184000000Y-117000000D03*
X184000000Y-116200000D03*
X184000000Y-115400000D03*
X184000000Y-114600000D03*
X184000000Y-113800000D03*
X184000000Y-113000000D03*
X184000000Y-112200000D03*
X184000000Y-111400000D03*
X184000000Y-110600000D03*
X184000000Y-109800000D03*
X184000000Y-109000000D03*
X184000000Y-108200000D03*
X184000000Y-107400000D03*
X184000000Y-106600000D03*
X184000000Y-105800000D03*
X184000000Y-105000000D03*
X184000000Y-104200000D03*
X184000000Y-103400000D03*
X184000000Y-102600000D03*
%TD*%
D14*
%TO.C,U10*%
X76920000Y-100800000D03*
X78190000Y-100800000D03*
X79460000Y-100800000D03*
X80730000Y-100800000D03*
X82000000Y-100800000D03*
X83270000Y-100800000D03*
X84540000Y-100800000D03*
X85810000Y-100800000D03*
X87080000Y-100800000D03*
X88350000Y-100800000D03*
X88350000Y-91500000D03*
X87080000Y-91500000D03*
X85810000Y-91500000D03*
X84540000Y-91500000D03*
X83270000Y-91500000D03*
X82000000Y-91500000D03*
X80730000Y-91500000D03*
X79460000Y-91500000D03*
X78190000Y-91500000D03*
X76920000Y-91500000D03*
%TD*%
D10*
%TO.C,R9*%
X84000000Y-86510000D03*
X84000000Y-85490000D03*
%TD*%
D13*
%TO.C,D4*%
X182212500Y-78500000D03*
X183787500Y-78500000D03*
%TD*%
D12*
%TO.C,U6*%
X129325000Y-102600000D03*
X129325000Y-103400000D03*
X129325000Y-104200000D03*
X129325000Y-105000000D03*
X129325000Y-105800000D03*
X129325000Y-106600000D03*
X129325000Y-107400000D03*
X129325000Y-108200000D03*
X129325000Y-109000000D03*
X129325000Y-109800000D03*
X129325000Y-110600000D03*
X129325000Y-111400000D03*
X129325000Y-112200000D03*
X129325000Y-113000000D03*
X129325000Y-113800000D03*
X129325000Y-114600000D03*
X129325000Y-115400000D03*
X129325000Y-116200000D03*
X129325000Y-117000000D03*
X129325000Y-117800000D03*
X129325000Y-118600000D03*
X129325000Y-119400000D03*
X140500000Y-119400000D03*
X140500000Y-118600000D03*
X140500000Y-117800000D03*
X140500000Y-117000000D03*
X140500000Y-116200000D03*
X140500000Y-115400000D03*
X140500000Y-114600000D03*
X140500000Y-113800000D03*
X140500000Y-113000000D03*
X140500000Y-112200000D03*
X140500000Y-111400000D03*
X140500000Y-110600000D03*
X140500000Y-109800000D03*
X140500000Y-109000000D03*
X140500000Y-108200000D03*
X140500000Y-107400000D03*
X140500000Y-106600000D03*
X140500000Y-105800000D03*
X140500000Y-105000000D03*
X140500000Y-104200000D03*
X140500000Y-103400000D03*
X140500000Y-102600000D03*
%TD*%
%TO.C,U4*%
X172825000Y-81600000D03*
X172825000Y-82400000D03*
X172825000Y-83200000D03*
X172825000Y-84000000D03*
X172825000Y-84800000D03*
X172825000Y-85600000D03*
X172825000Y-86400000D03*
X172825000Y-87200000D03*
X172825000Y-88000000D03*
X172825000Y-88800000D03*
X172825000Y-89600000D03*
X172825000Y-90400000D03*
X172825000Y-91200000D03*
X172825000Y-92000000D03*
X172825000Y-92800000D03*
X172825000Y-93600000D03*
X172825000Y-94400000D03*
X172825000Y-95200000D03*
X172825000Y-96000000D03*
X172825000Y-96800000D03*
X172825000Y-97600000D03*
X172825000Y-98400000D03*
X184000000Y-98400000D03*
X184000000Y-97600000D03*
X184000000Y-96800000D03*
X184000000Y-96000000D03*
X184000000Y-95200000D03*
X184000000Y-94400000D03*
X184000000Y-93600000D03*
X184000000Y-92800000D03*
X184000000Y-92000000D03*
X184000000Y-91200000D03*
X184000000Y-90400000D03*
X184000000Y-89600000D03*
X184000000Y-88800000D03*
X184000000Y-88000000D03*
X184000000Y-87200000D03*
X184000000Y-86400000D03*
X184000000Y-85600000D03*
X184000000Y-84800000D03*
X184000000Y-84000000D03*
X184000000Y-83200000D03*
X184000000Y-82400000D03*
X184000000Y-81600000D03*
%TD*%
M02*
