%TF.GenerationSoftware,KiCad,Pcbnew,9.0.8*%
%TF.CreationDate,2026-07-27T12:14:58-04:00*%
%TF.ProjectId,PortableRAM-8MB,506f7274-6162-46c6-9552-414d2d384d42,3.0*%
%TF.SameCoordinates,Original*%
%TF.FileFunction,Copper,L4,Bot*%
%TF.FilePolarity,Positive*%
%FSLAX46Y46*%
G04 Gerber Fmt 4.6, Leading zero omitted, Abs format (unit mm)*
G04 Created by KiCad (PCBNEW 9.0.8) date 2026-07-27 12:14:58*
%MOMM*%
%LPD*%
G01*
G04 APERTURE LIST*
G04 Aperture macros list*
%AMRoundRect*
0 Rectangle with rounded corners*
0 $1 Rounding radius*
0 $2 $3 $4 $5 $6 $7 $8 $9 X,Y pos of 4 corners*
0 Add a 4 corners polygon primitive as box body*
4,1,4,$2,$3,$4,$5,$6,$7,$8,$9,$2,$3,0*
0 Add four circle primitives for the rounded corners*
1,1,$1+$1,$2,$3*
1,1,$1+$1,$4,$5*
1,1,$1+$1,$6,$7*
1,1,$1+$1,$8,$9*
0 Add four rect primitives between the rounded corners*
20,1,$1+$1,$2,$3,$4,$5,0*
20,1,$1+$1,$4,$5,$6,$7,0*
20,1,$1+$1,$6,$7,$8,$9,0*
20,1,$1+$1,$8,$9,$2,$3,0*%
G04 Aperture macros list end*
%TA.AperFunction,ComponentPad*%
%ADD10C,2.800000*%
%TD*%
%TA.AperFunction,ComponentPad*%
%ADD11R,1.700000X1.700000*%
%TD*%
%TA.AperFunction,ComponentPad*%
%ADD12C,1.700000*%
%TD*%
%TA.AperFunction,ComponentPad*%
%ADD13R,1.060000X1.060000*%
%TD*%
%TA.AperFunction,ComponentPad*%
%ADD14C,1.060000*%
%TD*%
%TA.AperFunction,SMDPad,CuDef*%
%ADD15RoundRect,0.250000X0.250000X0.475000X-0.250000X0.475000X-0.250000X-0.475000X0.250000X-0.475000X0*%
%TD*%
%TA.AperFunction,SMDPad,CuDef*%
%ADD16RoundRect,0.250000X-0.475000X0.250000X-0.475000X-0.250000X0.475000X-0.250000X0.475000X0.250000X0*%
%TD*%
%TA.AperFunction,SMDPad,CuDef*%
%ADD17RoundRect,0.250000X0.475000X-0.250000X0.475000X0.250000X-0.475000X0.250000X-0.475000X-0.250000X0*%
%TD*%
%TA.AperFunction,SMDPad,CuDef*%
%ADD18RoundRect,0.250000X0.450000X-0.262500X0.450000X0.262500X-0.450000X0.262500X-0.450000X-0.262500X0*%
%TD*%
%TA.AperFunction,SMDPad,CuDef*%
%ADD19RoundRect,0.250000X-0.250000X-0.475000X0.250000X-0.475000X0.250000X0.475000X-0.250000X0.475000X0*%
%TD*%
%TA.AperFunction,SMDPad,CuDef*%
%ADD20RoundRect,0.250000X-0.450000X0.262500X-0.450000X-0.262500X0.450000X-0.262500X0.450000X0.262500X0*%
%TD*%
%TA.AperFunction,ViaPad*%
%ADD21C,0.600000*%
%TD*%
%TA.AperFunction,Conductor*%
%ADD22C,0.200000*%
%TD*%
G04 APERTURE END LIST*
D10*
%TO.P,TP1,1*%
%TO.N,GND*%
X71000000Y-125000000D03*
%TD*%
D11*
%TO.P,J2,1,TCK*%
%TO.N,/TCK*%
X156500000Y-130000000D03*
D12*
%TO.P,J2,2,TMS*%
%TO.N,/TMS*%
X153960000Y-130000000D03*
%TO.P,J2,3,TDI*%
%TO.N,/TDI*%
X151420000Y-130000000D03*
%TO.P,J2,4,TDO*%
%TO.N,/TDO*%
X148880000Y-130000000D03*
%TO.P,J2,5,VCC*%
%TO.N,+5V*%
X146340000Y-130000000D03*
%TO.P,J2,6,GND*%
%TO.N,GND*%
X143800000Y-130000000D03*
%TD*%
D13*
%TO.P,J1,1,Pin_1*%
%TO.N,+5V*%
X95520000Y-139565000D03*
D14*
%TO.P,J1,2,Pin_2*%
%TO.N,/A1*%
X95520000Y-147435000D03*
%TO.P,J1,3,Pin_3*%
%TO.N,/A2*%
X98060000Y-139565000D03*
%TO.P,J1,4,Pin_4*%
%TO.N,/A3*%
X98060000Y-147435000D03*
%TO.P,J1,5,Pin_5*%
%TO.N,/A4*%
X100600000Y-139565000D03*
%TO.P,J1,6,Pin_6*%
%TO.N,/A5*%
X100600000Y-147435000D03*
%TO.P,J1,7,Pin_7*%
%TO.N,/A6*%
X103140000Y-139565000D03*
%TO.P,J1,8,Pin_8*%
%TO.N,/A7*%
X103140000Y-147435000D03*
%TO.P,J1,9,Pin_9*%
%TO.N,/A8*%
X105680000Y-139565000D03*
%TO.P,J1,10,Pin_10*%
%TO.N,/A9*%
X105680000Y-147435000D03*
%TO.P,J1,11,Pin_11*%
%TO.N,/A10*%
X108220000Y-139565000D03*
%TO.P,J1,12,Pin_12*%
%TO.N,/A11*%
X108220000Y-147435000D03*
%TO.P,J1,13,Pin_13*%
%TO.N,/A12*%
X110760000Y-139565000D03*
%TO.P,J1,14,Pin_14*%
%TO.N,/A13*%
X110760000Y-147435000D03*
%TO.P,J1,15,Pin_15*%
%TO.N,/A14*%
X113300000Y-139565000D03*
%TO.P,J1,16,Pin_16*%
%TO.N,/A15*%
X113300000Y-147435000D03*
%TO.P,J1,17,Pin_17*%
%TO.N,/A16*%
X115840000Y-139565000D03*
%TO.P,J1,18,Pin_18*%
%TO.N,/A17*%
X115840000Y-147435000D03*
%TO.P,J1,19,Pin_19*%
%TO.N,/A18*%
X118380000Y-139565000D03*
%TO.P,J1,20,Pin_20*%
%TO.N,/A19*%
X118380000Y-147435000D03*
%TO.P,J1,21,Pin_21*%
%TO.N,/A20*%
X120920000Y-139565000D03*
%TO.P,J1,22,Pin_22*%
%TO.N,/A21*%
X120920000Y-147435000D03*
%TO.P,J1,23,Pin_23*%
%TO.N,/A22*%
X123460000Y-139565000D03*
%TO.P,J1,24,Pin_24*%
%TO.N,/A23*%
X123460000Y-147435000D03*
%TO.P,J1,25,Pin_25*%
%TO.N,GND*%
X126000000Y-139565000D03*
%TO.P,J1,26,Pin_26*%
X126000000Y-147435000D03*
%TO.P,J1,27,Pin_27*%
%TO.N,unconnected-(J2-Pin_27-Pad27)*%
X128540000Y-139565000D03*
%TO.P,J1,28,Pin_28*%
%TO.N,unconnected-(J2-Pin_28-Pad28)*%
X128540000Y-147435000D03*
%TO.P,J1,29,Pin_29*%
%TO.N,/RW*%
X131080000Y-139565000D03*
%TO.P,J1,30,Pin_30*%
%TO.N,/UDS*%
X131080000Y-147435000D03*
%TO.P,J1,31,Pin_31*%
%TO.N,/LDS*%
X133620000Y-139565000D03*
%TO.P,J1,32,Pin_32*%
%TO.N,unconnected-(J2-Pin_32-Pad32)*%
X133620000Y-147435000D03*
%TO.P,J1,33,Pin_33*%
%TO.N,/D0*%
X136160000Y-139565000D03*
%TO.P,J1,34,Pin_34*%
%TO.N,/D1*%
X136160000Y-147435000D03*
%TO.P,J1,35,Pin_35*%
%TO.N,/D2*%
X138700000Y-139565000D03*
%TO.P,J1,36,Pin_36*%
%TO.N,/D3*%
X138700000Y-147435000D03*
%TO.P,J1,37,Pin_37*%
%TO.N,/D4*%
X141240000Y-139565000D03*
%TO.P,J1,38,Pin_38*%
%TO.N,/D5*%
X141240000Y-147435000D03*
%TO.P,J1,39,Pin_39*%
%TO.N,/D6*%
X143780000Y-139565000D03*
%TO.P,J1,40,Pin_40*%
%TO.N,/D7*%
X143780000Y-147435000D03*
%TO.P,J1,41,Pin_41*%
%TO.N,/D8*%
X146320000Y-139565000D03*
%TO.P,J1,42,Pin_42*%
%TO.N,/D9*%
X146320000Y-147435000D03*
%TO.P,J1,43,Pin_43*%
%TO.N,/D10*%
X148860000Y-139565000D03*
%TO.P,J1,44,Pin_44*%
%TO.N,/D11*%
X148860000Y-147435000D03*
%TO.P,J1,45,Pin_45*%
%TO.N,/D12*%
X151400000Y-139565000D03*
%TO.P,J1,46,Pin_46*%
%TO.N,/D13*%
X151400000Y-147435000D03*
%TO.P,J1,47,Pin_47*%
%TO.N,/D14*%
X153940000Y-139565000D03*
%TO.P,J1,48,Pin_48*%
%TO.N,/D15*%
X153940000Y-147435000D03*
%TO.P,J1,49,Pin_49*%
%TO.N,+5V*%
X156480000Y-139565000D03*
%TO.P,J1,50,Pin_50*%
X156480000Y-147435000D03*
%TD*%
D11*
%TO.P,J3,1,Pin_1*%
%TO.N,/DTACK_OUT*%
X167000000Y-130000000D03*
D12*
%TO.P,J3,2,Pin_2*%
%TO.N,/EXT_DTACK_OUT*%
X164460000Y-130000000D03*
%TD*%
D11*
%TO.P,JP1,1,Pin_1*%
%TO.N,/MODEL*%
X186040000Y-73500000D03*
D12*
%TO.P,JP1,2,Pin_2*%
%TO.N,GND*%
X183500000Y-73500000D03*
%TD*%
D15*
%TO.P,C16,1*%
%TO.N,+5V*%
X97450000Y-135500000D03*
%TO.P,C16,2*%
%TO.N,GND*%
X95550000Y-135500000D03*
%TD*%
D16*
%TO.P,C12,1*%
%TO.N,+5V*%
X183500000Y-132550000D03*
%TO.P,C12,2*%
%TO.N,GND*%
X183500000Y-134450000D03*
%TD*%
D15*
%TO.P,C14,1*%
%TO.N,+5V*%
X179950000Y-136500000D03*
%TO.P,C14,2*%
%TO.N,GND*%
X178050000Y-136500000D03*
%TD*%
%TO.P,C10,1*%
%TO.N,+5V*%
X75220000Y-114000000D03*
%TO.P,C10,2*%
%TO.N,GND*%
X73320000Y-114000000D03*
%TD*%
D16*
%TO.P,C4,1*%
%TO.N,+5V*%
X170412500Y-89050000D03*
%TO.P,C4,2*%
%TO.N,GND*%
X170412500Y-90950000D03*
%TD*%
D17*
%TO.P,C13,1*%
%TO.N,+5V*%
X177000000Y-133450000D03*
%TO.P,C13,2*%
%TO.N,GND*%
X177000000Y-131550000D03*
%TD*%
D16*
%TO.P,C8,1*%
%TO.N,+5V*%
X170412500Y-110050000D03*
%TO.P,C8,2*%
%TO.N,GND*%
X170412500Y-111950000D03*
%TD*%
%TO.P,C3,1*%
%TO.N,+5V*%
X148412500Y-89050000D03*
%TO.P,C3,2*%
%TO.N,GND*%
X148412500Y-90950000D03*
%TD*%
D15*
%TO.P,C17,1*%
%TO.N,+5V*%
X90450000Y-141500000D03*
%TO.P,C17,2*%
%TO.N,GND*%
X88550000Y-141500000D03*
%TD*%
%TO.P,C9,1*%
%TO.N,+5V*%
X75220000Y-91000000D03*
%TO.P,C9,2*%
%TO.N,GND*%
X73320000Y-91000000D03*
%TD*%
D16*
%TO.P,C7,1*%
%TO.N,+5V*%
X148412500Y-110050000D03*
%TO.P,C7,2*%
%TO.N,GND*%
X148412500Y-111950000D03*
%TD*%
D18*
%TO.P,R22,1*%
%TO.N,+5V*%
X181000000Y-145075000D03*
%TO.P,R22,2*%
%TO.N,/DELAY_CS*%
X181000000Y-143250000D03*
%TD*%
D16*
%TO.P,C6,1*%
%TO.N,+5V*%
X126912500Y-110050000D03*
%TO.P,C6,2*%
%TO.N,GND*%
X126912500Y-111950000D03*
%TD*%
%TO.P,C5,1*%
%TO.N,+5V*%
X105412500Y-110050000D03*
%TO.P,C5,2*%
%TO.N,GND*%
X105412500Y-111950000D03*
%TD*%
D18*
%TO.P,R23,1*%
%TO.N,+5V*%
X184000000Y-145075000D03*
%TO.P,R23,2*%
%TO.N,/SLEEP*%
X184000000Y-143250000D03*
%TD*%
D15*
%TO.P,C18,1*%
%TO.N,+5V*%
X145862500Y-100500000D03*
%TO.P,C18,2*%
%TO.N,GND*%
X143962500Y-100500000D03*
%TD*%
D19*
%TO.P,C11,1*%
%TO.N,+5V*%
X180050000Y-130000000D03*
%TO.P,C11,2*%
%TO.N,GND*%
X181950000Y-130000000D03*
%TD*%
D15*
%TO.P,C19,1*%
%TO.N,+5V*%
X101362500Y-100500000D03*
%TO.P,C19,2*%
%TO.N,GND*%
X99462500Y-100500000D03*
%TD*%
D16*
%TO.P,C1,1*%
%TO.N,+5V*%
X105412500Y-89000000D03*
%TO.P,C1,2*%
%TO.N,GND*%
X105412500Y-90900000D03*
%TD*%
D20*
%TO.P,R21,1*%
%TO.N,/AS*%
X178000000Y-143250000D03*
%TO.P,R21,2*%
%TO.N,+5V*%
X178000000Y-145075000D03*
%TD*%
D19*
%TO.P,C15,1*%
%TO.N,+5V*%
X160050000Y-147500000D03*
%TO.P,C15,2*%
%TO.N,GND*%
X161950000Y-147500000D03*
%TD*%
D16*
%TO.P,C2,1*%
%TO.N,+5V*%
X126912500Y-89050000D03*
%TO.P,C2,2*%
%TO.N,GND*%
X126912500Y-90950000D03*
%TD*%
D21*
%TO.N,GND*%
X73000000Y-92500000D03*
X163500000Y-147500000D03*
X88500000Y-125500000D03*
X182500000Y-110500000D03*
X84000000Y-108500000D03*
X82500000Y-108500000D03*
X149500000Y-111500000D03*
X73000000Y-115500000D03*
X160500000Y-110500000D03*
X88500000Y-108500000D03*
X183500000Y-136000000D03*
X176500000Y-130500000D03*
X106500000Y-90500000D03*
X182500000Y-89500000D03*
X117500000Y-89500000D03*
X159000000Y-78500000D03*
X94500000Y-135500000D03*
X117500000Y-110500000D03*
X181284620Y-77850000D03*
X139000000Y-89500000D03*
X87000000Y-108500000D03*
X178500000Y-138000000D03*
X82500000Y-84500000D03*
X171500000Y-90500000D03*
X88500000Y-84500000D03*
X106500000Y-111500000D03*
X79500000Y-84500000D03*
X88500000Y-143000000D03*
X98000000Y-100500000D03*
X139000000Y-110500000D03*
X137000000Y-78500000D03*
X85500000Y-84500000D03*
X81000000Y-108500000D03*
X160500000Y-89500000D03*
X85500000Y-108500000D03*
X183500000Y-130000000D03*
X171500000Y-112000000D03*
X142500000Y-100500000D03*
X149500000Y-90500000D03*
X128000000Y-90500000D03*
X79500000Y-108500000D03*
X81000000Y-84500000D03*
X116000000Y-78500000D03*
X128000000Y-111500000D03*
X88500000Y-102500000D03*
X78000000Y-108500000D03*
X87000000Y-84500000D03*
X84000000Y-84500000D03*
X78000000Y-84500000D03*
%TO.N,+5V*%
X149500000Y-89500000D03*
X182500000Y-111500000D03*
X178279233Y-146220767D03*
X181000000Y-146500000D03*
X171500000Y-89500000D03*
X182500000Y-85000000D03*
X183500000Y-131500000D03*
X106500000Y-89500000D03*
X75700000Y-115500000D03*
X176500000Y-135000000D03*
X98500000Y-135500000D03*
X147500000Y-100500000D03*
X117500000Y-90500000D03*
X160500000Y-90500000D03*
X117500000Y-106000000D03*
X139000000Y-90500000D03*
X117500000Y-111500000D03*
X128000000Y-110500000D03*
X182500000Y-106000000D03*
X149500000Y-110500000D03*
X139000000Y-111500000D03*
X182500000Y-138000000D03*
X103000000Y-100500000D03*
X160500000Y-111500000D03*
X139000000Y-106000000D03*
X75500000Y-92500000D03*
X182500000Y-90500000D03*
X179000000Y-130000000D03*
X106500000Y-110500000D03*
X159000000Y-147500000D03*
X117500000Y-85000000D03*
X160500000Y-106000000D03*
X160500000Y-85000000D03*
X175000000Y-73500000D03*
X90500000Y-143000000D03*
X184000000Y-146500000D03*
X179500000Y-138000000D03*
X139000000Y-85000000D03*
X171500000Y-110500000D03*
X128000000Y-89500000D03*
%TO.N,/A9*%
X154760000Y-86669200D03*
X182263000Y-106823000D03*
X180727000Y-87548300D03*
X156757000Y-108229000D03*
X145390000Y-87183600D03*
X169030000Y-80920600D03*
X144985000Y-106600000D03*
X120284000Y-106600000D03*
X117719000Y-86246200D03*
%TO.N,/D9*%
X129270000Y-136577000D03*
%TO.N,/A14*%
X181718000Y-118600000D03*
X117978000Y-137975000D03*
X178794000Y-99826900D03*
X153497000Y-100206000D03*
X120470000Y-121068000D03*
X146466000Y-98344100D03*
%TO.N,/UDS*%
X132081000Y-140240000D03*
%TO.N,/A4*%
X147027000Y-82903300D03*
X120715000Y-105800000D03*
X159991000Y-82400000D03*
X136134000Y-99892300D03*
X130937000Y-82400000D03*
X134838000Y-104082000D03*
X174623000Y-83567000D03*
X106200000Y-82400000D03*
X102373000Y-103400000D03*
X117570000Y-102637000D03*
X175136000Y-103150000D03*
%TO.N,/A18*%
X160524000Y-97227600D03*
X152937000Y-116865000D03*
X112717000Y-89849900D03*
X142742000Y-111534000D03*
X132239000Y-117800000D03*
X136688000Y-112047000D03*
X126122000Y-117800000D03*
X174118000Y-117716000D03*
X127235000Y-95477100D03*
X169894000Y-97886300D03*
X156136000Y-99802200D03*
X112823000Y-117846000D03*
%TO.N,/D3*%
X84346000Y-102987000D03*
X95027700Y-125250000D03*
X122642000Y-125049000D03*
%TO.N,/D11*%
X123246000Y-131118000D03*
%TO.N,/A8*%
X111528000Y-104200000D03*
X125136000Y-81540000D03*
X144891000Y-105729000D03*
X111526000Y-95726700D03*
X145437000Y-83200000D03*
X168179000Y-82271200D03*
X177897000Y-83031700D03*
X133100000Y-102261000D03*
X157726000Y-104200000D03*
%TO.N,/A10*%
X152528000Y-93396500D03*
X182718000Y-115400000D03*
X176822000Y-98408800D03*
X147602000Y-93493000D03*
X116235000Y-96251800D03*
X116778000Y-115150000D03*
%TO.N,/A11*%
X120426000Y-116613000D03*
X152119000Y-95521200D03*
X147353000Y-95521200D03*
X181942000Y-116200000D03*
X175865000Y-99050100D03*
%TO.N,/D2*%
X92427100Y-133858000D03*
X132993000Y-133858000D03*
X81302200Y-102200000D03*
%TO.N,/D4*%
X92507200Y-132260000D03*
X134014000Y-132339000D03*
X85157200Y-102718000D03*
%TO.N,/D6*%
X120318000Y-100803000D03*
%TO.N,/A13*%
X182531000Y-117888000D03*
X182518000Y-96798800D03*
X117554000Y-145602000D03*
X121655000Y-120646000D03*
X126239000Y-100187000D03*
%TO.N,/D13*%
X137798000Y-127658000D03*
%TO.N,/A12*%
X149348000Y-102695000D03*
X147852000Y-96156100D03*
X184772000Y-120186000D03*
X110782000Y-122699000D03*
X155076000Y-119594000D03*
X184875000Y-99306600D03*
X152718000Y-96056500D03*
%TO.N,/D0*%
X125782000Y-101793000D03*
%TO.N,/A1*%
X158177000Y-84800000D03*
X134757000Y-101579000D03*
X120851000Y-108416000D03*
X131420000Y-84805200D03*
X102396000Y-87231300D03*
X163285000Y-86770300D03*
X131230000Y-105718000D03*
X174101000Y-105958000D03*
X99062800Y-105800000D03*
X114266000Y-105800000D03*
%TO.N,/A16*%
X158407000Y-101044000D03*
X149543000Y-97729500D03*
X112234000Y-114381000D03*
X162945000Y-99937900D03*
X109092000Y-98400000D03*
X171552000Y-118419000D03*
X127288000Y-98344500D03*
X169419000Y-98547500D03*
X108977000Y-120014000D03*
X134303000Y-96177200D03*
X126997000Y-119038000D03*
X157376000Y-115475000D03*
%TO.N,/A19*%
X134746000Y-110118000D03*
X133246000Y-96000000D03*
X111621000Y-117245000D03*
X169141000Y-117000000D03*
X116128000Y-146386000D03*
X95771900Y-116690000D03*
X100100000Y-92312500D03*
X163277000Y-93841200D03*
X152115000Y-116593000D03*
X127797000Y-117000000D03*
X154935000Y-96512000D03*
%TO.N,/A3*%
X174107000Y-85814000D03*
X132693000Y-83656900D03*
X103148000Y-86714800D03*
X174917000Y-104945000D03*
X160359000Y-83200000D03*
X99711200Y-103973000D03*
X127433000Y-86322600D03*
X99996700Y-105445000D03*
X131331000Y-107396000D03*
X135053000Y-105286000D03*
X117600000Y-80542300D03*
X145461000Y-104119000D03*
%TO.N,/A15*%
X183370000Y-100240000D03*
X127599000Y-101232000D03*
X116764000Y-121549000D03*
X129383000Y-123844000D03*
X181628000Y-120193000D03*
%TO.N,/A5*%
X130880000Y-93200000D03*
X104649000Y-84805700D03*
X130942000Y-102627000D03*
X151268000Y-101815000D03*
X165288000Y-80315500D03*
X137206000Y-93200000D03*
X148090000Y-83676100D03*
X128055000Y-82156000D03*
X177579000Y-102631000D03*
X175876000Y-83567000D03*
X104932000Y-102605000D03*
%TO.N,/A7*%
X107507000Y-126253000D03*
X157646000Y-125864000D03*
X179775000Y-82400000D03*
X156817000Y-103402000D03*
X179610000Y-103400000D03*
X111836000Y-103239000D03*
X146200000Y-82400000D03*
X163895000Y-81572500D03*
X109900000Y-103400000D03*
X142461000Y-104731000D03*
X111199000Y-96734300D03*
%TO.N,/D5*%
X89714200Y-140403000D03*
X80095000Y-102118000D03*
X132057000Y-141821000D03*
%TO.N,/A17*%
X147390000Y-116151000D03*
X137532000Y-112423000D03*
X106556000Y-118673000D03*
X156714000Y-99203300D03*
X124323000Y-115484000D03*
X174420000Y-118600000D03*
X113205000Y-95728700D03*
X126876000Y-97600000D03*
X169949000Y-97084500D03*
X152330000Y-117797000D03*
%TO.N,/A6*%
X111923000Y-81359800D03*
X149301000Y-81600000D03*
X152099000Y-81600000D03*
X105734000Y-102004000D03*
X185312402Y-82238608D03*
X170254000Y-81720600D03*
X183543000Y-101809000D03*
%TO.N,/D1*%
X90011200Y-148294000D03*
X79271900Y-102331000D03*
%TO.N,/A22*%
X128454000Y-144559000D03*
%TO.N,/D7*%
X125500000Y-145500000D03*
X79501345Y-98463500D03*
X87000000Y-98500000D03*
X122500000Y-145000000D03*
%TO.N,/A2*%
X141798000Y-84800000D03*
X101482000Y-105000000D03*
X120284000Y-107814000D03*
X135732000Y-101277000D03*
X106123000Y-105000000D03*
X114986000Y-105000000D03*
X101033000Y-137975000D03*
X131466000Y-84000000D03*
X168233000Y-85730100D03*
X106362000Y-84000000D03*
X171223000Y-84242900D03*
X132981000Y-105000000D03*
X174108000Y-105000000D03*
X159563000Y-83805500D03*
%TO.N,/D15*%
X138270000Y-126380000D03*
%TO.N,/DELAY_CS*%
X180500000Y-138000000D03*
%TO.N,/AS*%
X177000000Y-138000000D03*
%TO.N,/SLEEP*%
X184500000Y-138000000D03*
%TO.N,/CE2*%
X156402000Y-105917000D03*
X187406000Y-131062000D03*
%TO.N,/CE1*%
X187081000Y-131900000D03*
X128060000Y-85799200D03*
X130738000Y-106421000D03*
%TO.N,/CE0*%
X181950000Y-125061000D03*
X106541000Y-106600000D03*
X187900000Y-132700000D03*
X102529000Y-124447000D03*
X106540000Y-85794400D03*
X104536000Y-106600000D03*
%TO.N,/WEL*%
X177177000Y-129161000D03*
X109809000Y-91723600D03*
X158711000Y-94400000D03*
X139222000Y-94400000D03*
X126923000Y-94400000D03*
X163269000Y-93019400D03*
%TO.N,/WEH*%
X112856000Y-115638000D03*
X178560000Y-126399922D03*
X177624000Y-115400000D03*
X137522000Y-113228000D03*
X148685000Y-115400000D03*
X162040000Y-126466000D03*
X123895000Y-114777000D03*
%TO.N,/BANKSEL*%
X174984000Y-128586000D03*
X149457000Y-96621000D03*
X128054000Y-95445600D03*
X130592000Y-115523000D03*
X168739000Y-95562500D03*
X135885000Y-95066600D03*
X151367000Y-99559700D03*
X110380000Y-92799800D03*
X175554000Y-116199000D03*
X104682000Y-116004000D03*
X158160000Y-114999000D03*
X158464000Y-106656000D03*
%TO.N,/CE3*%
X169760000Y-86250700D03*
X178346000Y-113488000D03*
X186890000Y-128741000D03*
%TO.N,/MODEL*%
X190000000Y-148500000D03*
X168898957Y-133898957D03*
%TO.N,/DOE*%
X78547500Y-112937000D03*
X78223900Y-93074400D03*
%TO.N,/OE*%
X182565000Y-84000000D03*
X152372000Y-84882800D03*
X120268000Y-105000000D03*
X120453000Y-84185500D03*
X182714000Y-105000000D03*
X177744000Y-84000000D03*
X145062000Y-84000000D03*
%TO.N,/SD3*%
X114967000Y-85146400D03*
X149336000Y-92914200D03*
X163278000Y-91698800D03*
X138401000Y-92001600D03*
X125662000Y-92000000D03*
%TO.N,/SD0*%
X136498000Y-88000000D03*
X110854000Y-88000000D03*
X158180000Y-87539600D03*
X125909000Y-88000000D03*
X163283000Y-87820200D03*
%TO.N,/SD2*%
X125839000Y-90189500D03*
X135855000Y-91200000D03*
X113334000Y-87232800D03*
X165366000Y-91200000D03*
X152095000Y-90077400D03*
X157869000Y-91692800D03*
%TO.N,/SD4*%
X146569000Y-92031900D03*
X154146000Y-92698200D03*
X174781000Y-98050100D03*
X170484000Y-92705900D03*
X134928000Y-95668400D03*
%TO.N,/SD5*%
X163305000Y-90403800D03*
X168303000Y-90240400D03*
X174350000Y-91200000D03*
X146660000Y-91200000D03*
%TO.N,/SD1*%
X137053000Y-88800000D03*
X157648000Y-88180900D03*
X125341000Y-88800000D03*
X163637000Y-88800000D03*
X111212000Y-88800000D03*
%TO.N,/SD7*%
X152121000Y-87297300D03*
X174519000Y-87383400D03*
X157856000Y-86729100D03*
X145840000Y-88000000D03*
%TO.N,/SD6*%
X174194000Y-88800000D03*
X168617000Y-89420200D03*
X152808000Y-89265500D03*
X146578000Y-88830400D03*
%TO.N,/SD11*%
X143562000Y-111815000D03*
X158893000Y-113000000D03*
X174092000Y-113000000D03*
X83310000Y-112347000D03*
X113465000Y-112897000D03*
X84855100Y-111118000D03*
X123651000Y-113000000D03*
X137085000Y-108977000D03*
%TO.N,/SD15*%
X106187000Y-117355000D03*
X130977000Y-124245000D03*
X107979000Y-121908000D03*
X111535000Y-109000000D03*
X135403000Y-112500000D03*
%TO.N,/SD8*%
X164624000Y-109000000D03*
X144152000Y-109000000D03*
X139202000Y-107126000D03*
X160732000Y-109000000D03*
X122705000Y-109562000D03*
X115211000Y-108375000D03*
%TO.N,/SD10*%
X158899000Y-111594000D03*
X139220000Y-108421000D03*
X164901000Y-113269000D03*
X114178000Y-112200000D03*
X142632000Y-109984000D03*
X122355000Y-112200000D03*
%TO.N,/SD9*%
X159466000Y-109800000D03*
X143971000Y-109837000D03*
X135358000Y-107865000D03*
X164290000Y-109800000D03*
X120910000Y-110202000D03*
X116444000Y-109800000D03*
%TO.N,/EXT_DTACK_OUT*%
X159000000Y-130500000D03*
X178800000Y-131800000D03*
X180500000Y-132500000D03*
X175833424Y-132897540D03*
%TO.N,/DTACK_OUT*%
X173500000Y-127000000D03*
X183000000Y-126500000D03*
%TO.N,/LED0*%
X169850003Y-134500000D03*
X189350000Y-147500000D03*
%TO.N,/LED1*%
X188500000Y-147000000D03*
X170150000Y-135500000D03*
%TO.N,/LED2*%
X189000000Y-145000000D03*
X170702328Y-136550000D03*
%TO.N,/LED3*%
X188850000Y-79050000D03*
X184558000Y-136608000D03*
%TD*%
D22*
%TO.N,GND*%
X149050000Y-111950000D02*
X149500000Y-111500000D01*
X105412000Y-111950000D02*
X106050000Y-111950000D01*
X94500000Y-135500000D02*
X95550000Y-135500000D01*
X181950000Y-130000000D02*
X183500000Y-130000000D01*
X106050000Y-111950000D02*
X106500000Y-111500000D01*
X127550000Y-90950000D02*
X128000000Y-90500000D01*
X178050000Y-136500000D02*
X178050000Y-137550000D01*
X142500000Y-100500000D02*
X143962000Y-100500000D01*
X161950000Y-147500000D02*
X163500000Y-147500000D01*
X178050000Y-137550000D02*
X178500000Y-138000000D01*
X126912000Y-111950000D02*
X127550000Y-111950000D01*
X99462500Y-100500000D02*
X98000000Y-100500000D01*
X149050000Y-90950000D02*
X149500000Y-90500000D01*
X149050000Y-111950000D02*
X149500000Y-111500000D01*
X170412000Y-90950000D02*
X171050000Y-90950000D01*
X73000000Y-91320000D02*
X73320000Y-91000000D01*
X127550000Y-90950000D02*
X128000000Y-90500000D01*
X73320000Y-115180000D02*
X73000000Y-115500000D01*
X143962000Y-100500000D02*
X143962500Y-100500000D01*
X88550000Y-142950000D02*
X88500000Y-143000000D01*
X148412000Y-111950000D02*
X149050000Y-111950000D01*
X126912000Y-90950000D02*
X127550000Y-90950000D01*
X176500000Y-131050000D02*
X177000000Y-131550000D01*
X106100000Y-90900000D02*
X106500000Y-90500000D01*
X171450000Y-111950000D02*
X171500000Y-112000000D01*
X106050000Y-111950000D02*
X106500000Y-111500000D01*
X73320000Y-114000000D02*
X73320000Y-115180000D01*
X176500000Y-130500000D02*
X176500000Y-131050000D01*
X183500000Y-134450000D02*
X183500000Y-136000000D01*
X73000000Y-92500000D02*
X73000000Y-91320000D01*
X171450000Y-111950000D02*
X171500000Y-112000000D01*
X171050000Y-90950000D02*
X171500000Y-90500000D01*
X105412000Y-90900000D02*
X106100000Y-90900000D01*
X149050000Y-90950000D02*
X149500000Y-90500000D01*
X106100000Y-90900000D02*
X106500000Y-90500000D01*
X127550000Y-111950000D02*
X128000000Y-111500000D01*
X178050000Y-137550000D02*
X178500000Y-138000000D01*
X73320000Y-115180000D02*
X73000000Y-115500000D01*
X148412000Y-90950000D02*
X149050000Y-90950000D01*
X170412000Y-111950000D02*
X171450000Y-111950000D01*
X88550000Y-141500000D02*
X88550000Y-142950000D01*
X127550000Y-111950000D02*
X128000000Y-111500000D01*
X88550000Y-142950000D02*
X88500000Y-143000000D01*
X171050000Y-90950000D02*
X171500000Y-90500000D01*
X176500000Y-131050000D02*
X177000000Y-131550000D01*
X73000000Y-91320000D02*
X73320000Y-91000000D01*
%TO.N,+5V*%
X127550000Y-89050000D02*
X128000000Y-89500000D01*
X127550000Y-110050000D02*
X128000000Y-110500000D01*
X184000000Y-145075000D02*
X184000000Y-146500000D01*
X105412000Y-110050000D02*
X106050000Y-110050000D01*
X106050000Y-110050000D02*
X106500000Y-110500000D01*
X149050000Y-110050000D02*
X149500000Y-110500000D01*
X75500000Y-92500000D02*
X75500000Y-91280000D01*
X149050000Y-89050000D02*
X149500000Y-89500000D01*
X105412000Y-89000000D02*
X106000000Y-89000000D01*
X106000000Y-89000000D02*
X106500000Y-89500000D01*
X160050000Y-147500000D02*
X159000000Y-147500000D01*
X106000000Y-89000000D02*
X106500000Y-89500000D01*
X171050000Y-89050000D02*
X171500000Y-89500000D01*
X75500000Y-91280000D02*
X75220000Y-91000000D01*
X147500000Y-100500000D02*
X145862000Y-100500000D01*
X75220000Y-115220000D02*
X75500000Y-115500000D01*
X179000000Y-130000000D02*
X180050000Y-130000000D01*
X178000000Y-145075000D02*
X178000000Y-145941534D01*
X126912000Y-89050000D02*
X127550000Y-89050000D01*
X75500000Y-115500000D02*
X75700000Y-115500000D01*
X149050000Y-89050000D02*
X149500000Y-89500000D01*
X179950000Y-136500000D02*
X179950000Y-137550000D01*
X127550000Y-89050000D02*
X128000000Y-89500000D01*
X179950000Y-137550000D02*
X179500000Y-138000000D01*
X75500000Y-91280000D02*
X75220000Y-91000000D01*
X176500000Y-133950000D02*
X177000000Y-133450000D01*
X90450000Y-142950000D02*
X90500000Y-143000000D01*
X148412000Y-89050000D02*
X149050000Y-89050000D01*
X149050000Y-110050000D02*
X149500000Y-110500000D01*
X106050000Y-110050000D02*
X106500000Y-110500000D01*
X127550000Y-110050000D02*
X128000000Y-110500000D01*
X176500000Y-133950000D02*
X177000000Y-133450000D01*
X171050000Y-89050000D02*
X171500000Y-89500000D01*
X179950000Y-137550000D02*
X179500000Y-138000000D01*
X97450000Y-135500000D02*
X98500000Y-135500000D01*
X171050000Y-110050000D02*
X171500000Y-110500000D01*
X170412000Y-110050000D02*
X171050000Y-110050000D01*
X75500000Y-115500000D02*
X75700000Y-115500000D01*
X126912000Y-110050000D02*
X127550000Y-110050000D01*
X178000000Y-145941534D02*
X178279233Y-146220767D01*
X170412000Y-89050000D02*
X171050000Y-89050000D01*
X90450000Y-142950000D02*
X90500000Y-143000000D01*
X101362000Y-100500000D02*
X103000000Y-100500000D01*
X148412000Y-110050000D02*
X149050000Y-110050000D01*
X171050000Y-110050000D02*
X171500000Y-110500000D01*
X90450000Y-141500000D02*
X90450000Y-142950000D01*
X183500000Y-132550000D02*
X183500000Y-131500000D01*
X75220000Y-115220000D02*
X75500000Y-115500000D01*
X181000000Y-145075000D02*
X181000000Y-146500000D01*
X176500000Y-135000000D02*
X176500000Y-133950000D01*
X75220000Y-114000000D02*
X75220000Y-115220000D01*
%TO.N,/A9*%
X108319000Y-113215000D02*
X108319000Y-97515200D01*
X105680000Y-147435000D02*
X104226000Y-145981000D01*
X104928000Y-116606000D02*
X104931000Y-116606000D01*
X155305000Y-120215000D02*
X155917000Y-119603000D01*
X104931000Y-116606000D02*
X105284000Y-116253000D01*
X171823000Y-82322400D02*
X169945000Y-82322400D01*
X169945000Y-82322400D02*
X169030000Y-81408200D01*
X155305000Y-120215000D02*
X155917000Y-119603000D01*
X116839000Y-103155000D02*
X116839000Y-94460900D01*
X150276000Y-115320000D02*
X150276000Y-117679000D01*
X104226000Y-117308000D02*
X104928000Y-116606000D01*
X152508000Y-119343000D02*
X153380000Y-120215000D01*
X104226000Y-145981000D02*
X104226000Y-117308000D01*
X104928000Y-116606000D02*
X104931000Y-116606000D01*
X104931000Y-116606000D02*
X105284000Y-116253000D01*
X105284000Y-116250000D02*
X108319000Y-113215000D01*
X120284000Y-106600000D02*
X116839000Y-103155000D01*
X116839000Y-94460900D02*
X116839000Y-87126500D01*
X155917000Y-119603000D02*
X155917000Y-109069000D01*
X111373000Y-94460900D02*
X116839000Y-94460900D01*
X145884000Y-86689700D02*
X154740000Y-86689700D01*
X151890000Y-119343000D02*
X152508000Y-119343000D01*
X145390000Y-87183600D02*
X145884000Y-86689700D01*
X172395000Y-81750100D02*
X171823000Y-82322400D01*
X145387000Y-110431000D02*
X150276000Y-115320000D01*
X154740000Y-86689700D02*
X154760000Y-86669200D01*
X180727000Y-87548300D02*
X180727000Y-82433500D01*
X145884000Y-86689700D02*
X154740000Y-86689700D01*
X180044000Y-81750100D02*
X172395000Y-81750100D01*
X154740000Y-86689700D02*
X154760000Y-86669200D01*
X150276000Y-117679000D02*
X150925000Y-118328000D01*
X116839000Y-87126500D02*
X117719000Y-86246200D01*
X169945000Y-82322400D02*
X169030000Y-81408200D01*
X150925000Y-118379000D02*
X151890000Y-119343000D01*
X104226000Y-117308000D02*
X104928000Y-116606000D01*
X105284000Y-116250000D02*
X108319000Y-113215000D01*
X152508000Y-119343000D02*
X153380000Y-120215000D01*
X169030000Y-81408200D02*
X169030000Y-80920600D01*
X172395000Y-81750100D02*
X171823000Y-82322400D01*
X151890000Y-119343000D02*
X152508000Y-119343000D01*
X180044000Y-81750100D02*
X172395000Y-81750100D01*
X169030000Y-81408200D02*
X169030000Y-80920600D01*
X150925000Y-118328000D02*
X150925000Y-118379000D01*
X144985000Y-106600000D02*
X145387000Y-107002000D01*
X155917000Y-109069000D02*
X156757000Y-108229000D01*
X105284000Y-116253000D02*
X105284000Y-116250000D01*
X116839000Y-103155000D02*
X116839000Y-94460900D01*
X145387000Y-107002000D02*
X145387000Y-110431000D01*
X180727000Y-82433500D02*
X180044000Y-81750100D01*
X155917000Y-119603000D02*
X155917000Y-109069000D01*
X105284000Y-116253000D02*
X105284000Y-116250000D01*
X116839000Y-87126500D02*
X117719000Y-86246200D01*
X108319000Y-97515200D02*
X111373000Y-94460900D01*
X150276000Y-117679000D02*
X150925000Y-118328000D01*
X104226000Y-145981000D02*
X104226000Y-117308000D01*
X171823000Y-82322400D02*
X169945000Y-82322400D01*
X153380000Y-120215000D02*
X155305000Y-120215000D01*
X150276000Y-115320000D02*
X150276000Y-117679000D01*
X150925000Y-118379000D02*
X151890000Y-119343000D01*
X155917000Y-109069000D02*
X156757000Y-108229000D01*
X182263000Y-106823000D02*
X180727000Y-105287000D01*
X145387000Y-110431000D02*
X150276000Y-115320000D01*
X108319000Y-113215000D02*
X108319000Y-97515200D01*
X180727000Y-105287000D02*
X180727000Y-87548300D01*
X180727000Y-82433500D02*
X180044000Y-81750100D01*
X180727000Y-105287000D02*
X180727000Y-87548300D01*
X111373000Y-94460900D02*
X116839000Y-94460900D01*
X145387000Y-107002000D02*
X145387000Y-110431000D01*
X150925000Y-118328000D02*
X150925000Y-118379000D01*
X108319000Y-97515200D02*
X111373000Y-94460900D01*
X153380000Y-120215000D02*
X155305000Y-120215000D01*
%TO.N,/D9*%
X144839000Y-145954000D02*
X138646000Y-145954000D01*
X146320000Y-147435000D02*
X144839000Y-145954000D01*
X138646000Y-145954000D02*
X129270000Y-136577000D01*
X138646000Y-145954000D02*
X129270000Y-136577000D01*
X144839000Y-145954000D02*
X138646000Y-145954000D01*
%TO.N,/A14*%
X178794000Y-104522000D02*
X183320000Y-109049000D01*
X153497000Y-100206000D02*
X148328000Y-100206000D01*
X148328000Y-100206000D02*
X146466000Y-98344100D01*
X183320000Y-115740000D02*
X181718000Y-117343000D01*
X178794000Y-104522000D02*
X183320000Y-109049000D01*
X117978000Y-123559000D02*
X120470000Y-121068000D01*
X178794000Y-99826900D02*
X178794000Y-104522000D01*
X183320000Y-109049000D02*
X183320000Y-115740000D01*
X117978000Y-137975000D02*
X117978000Y-123559000D01*
X183320000Y-109049000D02*
X183320000Y-115740000D01*
X148328000Y-100206000D02*
X146466000Y-98344100D01*
X117978000Y-123559000D02*
X120470000Y-121068000D01*
X181718000Y-117343000D02*
X181718000Y-118600000D01*
X183320000Y-115740000D02*
X181718000Y-117343000D01*
X181718000Y-117343000D02*
X181718000Y-118600000D01*
%TO.N,/UDS*%
X131080000Y-141241000D02*
X132081000Y-140240000D01*
X131080000Y-141241000D02*
X132081000Y-140240000D01*
X131080000Y-147435000D02*
X131080000Y-141241000D01*
%TO.N,/A4*%
X103940000Y-84660200D02*
X106200000Y-82400000D01*
X100600000Y-107465000D02*
X100431000Y-107634000D01*
X170563000Y-84433400D02*
X170622000Y-84491900D01*
X168082000Y-84137900D02*
X168628000Y-84137900D01*
X132621000Y-84435800D02*
X132621000Y-96378700D01*
X104015000Y-99507500D02*
X103940000Y-99432200D01*
X100600000Y-107465000D02*
X100431000Y-107634000D01*
X175522000Y-87798900D02*
X175522000Y-86890800D01*
X159991000Y-82400000D02*
X160654000Y-82400000D01*
X136354000Y-100112000D02*
X136354000Y-102193000D01*
X102373000Y-103400000D02*
X104015000Y-101758000D01*
X173409000Y-84778900D02*
X173411000Y-84778900D01*
X175522000Y-86890800D02*
X174900000Y-86267900D01*
X168628000Y-84137900D02*
X168821000Y-84330900D01*
X102373000Y-103400000D02*
X102231000Y-103400000D01*
X168821000Y-84330900D02*
X168841000Y-84330900D01*
X142099000Y-85626200D02*
X138750000Y-85626200D01*
X174900000Y-86267900D02*
X174900000Y-85755300D01*
X138750000Y-85626200D02*
X136176000Y-83052100D01*
X175437000Y-97855200D02*
X175136000Y-97554300D01*
X170622000Y-84492000D02*
X170974000Y-84844600D01*
X167725000Y-83781100D02*
X168082000Y-84137900D01*
X136134000Y-99892300D02*
X136354000Y-100112000D01*
X120715000Y-105800000D02*
X120173000Y-105800000D01*
X174900000Y-85755300D02*
X173667000Y-84522600D01*
X136176000Y-83052100D02*
X132392000Y-83052100D01*
X175522000Y-86890800D02*
X174900000Y-86267900D01*
X168841000Y-84330900D02*
X168943000Y-84433400D01*
X134838000Y-103709000D02*
X134838000Y-104082000D01*
X102231000Y-103400000D02*
X100600000Y-105031000D01*
X160654000Y-82400000D02*
X162035000Y-83781100D01*
X131890000Y-83353000D02*
X130937000Y-82400000D01*
X103940000Y-84660200D02*
X106200000Y-82400000D01*
X132091000Y-83353000D02*
X132091000Y-83906000D01*
X175136000Y-97554300D02*
X175136000Y-88185700D01*
X175522000Y-87798900D02*
X175522000Y-86890800D01*
X162035000Y-83781100D02*
X167725000Y-83781100D01*
X170563000Y-84433400D02*
X170622000Y-84491900D01*
X132091000Y-83906000D02*
X132621000Y-84435800D01*
X132621000Y-96378700D02*
X136134000Y-99892300D01*
X136176000Y-83052100D02*
X132392000Y-83052100D01*
X173343000Y-84844600D02*
X173409000Y-84778900D01*
X100600000Y-105031000D02*
X100600000Y-107465000D01*
X168943000Y-84433400D02*
X170563000Y-84433400D01*
X103940000Y-99432200D02*
X103940000Y-84660200D01*
X132392000Y-83052100D02*
X132091000Y-83353000D01*
X102231000Y-103400000D02*
X100600000Y-105031000D01*
X147027000Y-82903300D02*
X147433000Y-82497500D01*
X104015000Y-101758000D02*
X104015000Y-99507500D01*
X175136000Y-88185700D02*
X175522000Y-87798900D01*
X132091000Y-83353000D02*
X131890000Y-83353000D01*
X100600000Y-105031000D02*
X100600000Y-107465000D01*
X117570000Y-103197000D02*
X117570000Y-102637000D01*
X170622000Y-84492000D02*
X170974000Y-84844600D01*
X132621000Y-84435800D02*
X132621000Y-96378700D01*
X175437000Y-98353600D02*
X175437000Y-97855200D01*
X132392000Y-83052100D02*
X132091000Y-83353000D01*
X175437000Y-98353600D02*
X175437000Y-97855200D01*
X120173000Y-105800000D02*
X117570000Y-103197000D01*
X138750000Y-85626200D02*
X136176000Y-83052100D01*
X103940000Y-99432200D02*
X103940000Y-84660200D01*
X134838000Y-103709000D02*
X134838000Y-104082000D01*
X146413000Y-81395000D02*
X146330000Y-81395000D01*
X100431000Y-139396000D02*
X100600000Y-139565000D01*
X175136000Y-97554300D02*
X175136000Y-88185700D01*
X146330000Y-81395000D02*
X142099000Y-85626200D01*
X104015000Y-99507500D02*
X103940000Y-99432200D01*
X173409000Y-84778900D02*
X173411000Y-84778900D01*
X168821000Y-84330900D02*
X168841000Y-84330900D01*
X170974000Y-84844600D02*
X173343000Y-84844600D01*
X168628000Y-84137900D02*
X168821000Y-84330900D01*
X147433000Y-82497500D02*
X147433000Y-82414900D01*
X175437000Y-97855200D02*
X175136000Y-97554300D01*
X175136000Y-98654500D02*
X175437000Y-98353600D01*
X100431000Y-107634000D02*
X100431000Y-139396000D01*
X104015000Y-101758000D02*
X104015000Y-99507500D01*
X136354000Y-102193000D02*
X134838000Y-103709000D01*
X136354000Y-102193000D02*
X134838000Y-103709000D01*
X146413000Y-81395000D02*
X146330000Y-81395000D01*
X175136000Y-103150000D02*
X175136000Y-98654500D01*
X175136000Y-88185700D02*
X175522000Y-87798900D01*
X174900000Y-85755300D02*
X173667000Y-84522600D01*
X168841000Y-84330900D02*
X168943000Y-84433400D01*
X120173000Y-105800000D02*
X117570000Y-103197000D01*
X100431000Y-139396000D02*
X100600000Y-139565000D01*
X175136000Y-98654500D02*
X175437000Y-98353600D01*
X173411000Y-84778900D02*
X173667000Y-84522600D01*
X147433000Y-82414900D02*
X146413000Y-81395000D01*
X117570000Y-103197000D02*
X117570000Y-102637000D01*
X174900000Y-86267900D02*
X174900000Y-85755300D01*
X142099000Y-85626200D02*
X138750000Y-85626200D01*
X170622000Y-84491900D02*
X170622000Y-84492000D01*
X147433000Y-82414900D02*
X146413000Y-81395000D01*
X168082000Y-84137900D02*
X168628000Y-84137900D01*
X170622000Y-84491900D02*
X170622000Y-84492000D01*
X146330000Y-81395000D02*
X142099000Y-85626200D01*
X147433000Y-82497500D02*
X147433000Y-82414900D01*
X173343000Y-84844600D02*
X173409000Y-84778900D01*
X132621000Y-96378700D02*
X136134000Y-99892300D01*
X132091000Y-83906000D02*
X132621000Y-84435800D01*
X170974000Y-84844600D02*
X173343000Y-84844600D01*
X160654000Y-82400000D02*
X162035000Y-83781100D01*
X131890000Y-83353000D02*
X130937000Y-82400000D01*
X173411000Y-84778900D02*
X173667000Y-84522600D01*
X136354000Y-100112000D02*
X136354000Y-102193000D01*
X162035000Y-83781100D02*
X167725000Y-83781100D01*
X173667000Y-84522600D02*
X174623000Y-83567000D01*
X100431000Y-107634000D02*
X100431000Y-139396000D01*
X167725000Y-83781100D02*
X168082000Y-84137900D01*
X168943000Y-84433400D02*
X170563000Y-84433400D01*
%TO.N,/A18*%
X171106000Y-99098600D02*
X171106000Y-108992000D01*
X142742000Y-111534000D02*
X141107000Y-109898000D01*
X124161000Y-117800000D02*
X126122000Y-117800000D01*
X127122000Y-95364100D02*
X127235000Y-95477100D01*
X129133000Y-103876000D02*
X129725000Y-104468000D01*
X161182000Y-97886300D02*
X160524000Y-97227600D01*
X116361000Y-86205900D02*
X116361000Y-84681800D01*
X120910000Y-83152600D02*
X122166000Y-84408300D01*
X129725000Y-106882000D02*
X130570000Y-107727000D01*
X124161000Y-117800000D02*
X126122000Y-117800000D01*
X127235000Y-95407100D02*
X127798000Y-94843800D01*
X171106000Y-108992000D02*
X172111000Y-109996000D01*
X116361000Y-84681800D02*
X117890000Y-83152600D01*
X127235000Y-95477100D02*
X127235000Y-95407100D01*
X169894000Y-97886300D02*
X171106000Y-99098600D01*
X122166000Y-84408300D02*
X122166000Y-90557200D01*
X132239000Y-109254000D02*
X132239000Y-117800000D01*
X129133000Y-103876000D02*
X129725000Y-104468000D01*
X138732000Y-109898000D02*
X136688000Y-111942000D01*
X129725000Y-106882000D02*
X130570000Y-107727000D01*
X117376000Y-118171000D02*
X117376000Y-138435000D01*
X127798000Y-94843800D02*
X128347000Y-94843800D01*
X132239000Y-109254000D02*
X132239000Y-117800000D01*
X118380000Y-139439000D02*
X118380000Y-139565000D01*
X130570000Y-107727000D02*
X130712000Y-107727000D01*
X128347000Y-94843800D02*
X129133000Y-95629800D01*
X129725000Y-104468000D02*
X129725000Y-106882000D01*
X172111000Y-115709000D02*
X174118000Y-117716000D01*
X119965000Y-115583000D02*
X121944000Y-115583000D01*
X119965000Y-115583000D02*
X121944000Y-115583000D01*
X128347000Y-94843800D02*
X129133000Y-95629800D01*
X127122000Y-95364000D02*
X127122000Y-95364100D01*
X129133000Y-95629800D02*
X129133000Y-103876000D01*
X113148000Y-118171000D02*
X112823000Y-117846000D01*
X130570000Y-107727000D02*
X130712000Y-107727000D01*
X117376000Y-118171000D02*
X113148000Y-118171000D01*
X156136000Y-99802200D02*
X152937000Y-103001000D01*
X122166000Y-84408300D02*
X122166000Y-90557200D01*
X121944000Y-115583000D02*
X124161000Y-117800000D01*
X127122000Y-95364000D02*
X127122000Y-95364100D01*
X113148000Y-118171000D02*
X112823000Y-117846000D01*
X112717000Y-89849900D02*
X116361000Y-86205900D01*
X130712000Y-107727000D02*
X132239000Y-109254000D01*
X120910000Y-83152600D02*
X122166000Y-84408300D01*
X161182000Y-97886300D02*
X160524000Y-97227600D01*
X138732000Y-109898000D02*
X136688000Y-111942000D01*
X172111000Y-109996000D02*
X172111000Y-115709000D01*
X122166000Y-90557200D02*
X126972000Y-95364000D01*
X121944000Y-115583000D02*
X124161000Y-117800000D01*
X116361000Y-86205900D02*
X116361000Y-84681800D01*
X117890000Y-83152600D02*
X120910000Y-83152600D01*
X141107000Y-109898000D02*
X138732000Y-109898000D01*
X136688000Y-111942000D02*
X136688000Y-112047000D01*
X171106000Y-99098600D02*
X171106000Y-108992000D01*
X172111000Y-115709000D02*
X174118000Y-117716000D01*
X116361000Y-84681800D02*
X117890000Y-83152600D01*
X171106000Y-108992000D02*
X172111000Y-109996000D01*
X126972000Y-95364000D02*
X127122000Y-95364000D01*
X127122000Y-95364100D02*
X127235000Y-95477100D01*
X127235000Y-95407100D02*
X127798000Y-94843800D01*
X141107000Y-109898000D02*
X138732000Y-109898000D01*
X129725000Y-104468000D02*
X129725000Y-106882000D01*
X117376000Y-118171000D02*
X119965000Y-115583000D01*
X117890000Y-83152600D02*
X120910000Y-83152600D01*
X172111000Y-109996000D02*
X172111000Y-115709000D01*
X117376000Y-138435000D02*
X118380000Y-139439000D01*
X118380000Y-139439000D02*
X118380000Y-139565000D01*
X152937000Y-103001000D02*
X152937000Y-116865000D01*
X122166000Y-90557200D02*
X126972000Y-95364000D01*
X117376000Y-138435000D02*
X118380000Y-139439000D01*
X130712000Y-107727000D02*
X132239000Y-109254000D01*
X126972000Y-95364000D02*
X127122000Y-95364000D01*
X129133000Y-95629800D02*
X129133000Y-103876000D01*
X169894000Y-97886300D02*
X161182000Y-97886300D01*
X152937000Y-103001000D02*
X152937000Y-116865000D01*
X136688000Y-111942000D02*
X136688000Y-112047000D01*
X127798000Y-94843800D02*
X128347000Y-94843800D01*
%TO.N,/D3*%
X122607000Y-140142000D02*
X122607000Y-125394000D01*
X130751000Y-148286000D02*
X122607000Y-140142000D01*
X84346000Y-102987000D02*
X95027700Y-113668000D01*
X137849000Y-148286000D02*
X130751000Y-148286000D01*
X137849000Y-148286000D02*
X130751000Y-148286000D01*
X130751000Y-148286000D02*
X122607000Y-140142000D01*
X122642000Y-125358000D02*
X122642000Y-125049000D01*
X122607000Y-140142000D02*
X122607000Y-125394000D01*
X122607000Y-125394000D02*
X122642000Y-125358000D01*
X95027700Y-113668000D02*
X95027700Y-125250000D01*
X122642000Y-125358000D02*
X122642000Y-125049000D01*
X138700000Y-147435000D02*
X137849000Y-148286000D01*
X95027700Y-113668000D02*
X95027700Y-125250000D01*
X122607000Y-125394000D02*
X122642000Y-125358000D01*
%TO.N,/D11*%
X142316000Y-140891000D02*
X136122000Y-140891000D01*
X148860000Y-147435000D02*
X142316000Y-140891000D01*
X126350000Y-131118000D02*
X123246000Y-131118000D01*
X136122000Y-140891000D02*
X126350000Y-131118000D01*
X142316000Y-140891000D02*
X136122000Y-140891000D01*
X136122000Y-140891000D02*
X126350000Y-131118000D01*
X126350000Y-131118000D02*
X123246000Y-131118000D01*
%TO.N,/A8*%
X104628000Y-138513000D02*
X104628000Y-117477000D01*
X130278000Y-86681900D02*
X130278000Y-93449100D01*
X109233000Y-112872000D02*
X109233000Y-103115000D01*
X172500000Y-82965200D02*
X172340000Y-83125800D01*
X152808000Y-83879400D02*
X152406000Y-84281100D01*
X157081000Y-102800000D02*
X157726000Y-103445000D01*
X156518000Y-102800000D02*
X157081000Y-102800000D01*
X157726000Y-103445000D02*
X157726000Y-104200000D01*
X162332000Y-82174300D02*
X161138000Y-80980100D01*
X130651000Y-103238000D02*
X132124000Y-103238000D01*
X172340000Y-83125800D02*
X169320000Y-83125800D01*
X151120000Y-117388000D02*
X151729000Y-117996000D01*
X148544000Y-102077000D02*
X149648000Y-102077000D01*
X154612000Y-83879400D02*
X152808000Y-83879400D01*
X172500000Y-82965200D02*
X172340000Y-83125800D01*
X155930000Y-82561300D02*
X154612000Y-83879400D01*
X151771000Y-84633800D02*
X151723000Y-84681200D01*
X104628000Y-117477000D02*
X109233000Y-112872000D01*
X173670000Y-82563500D02*
X173268000Y-82965200D01*
X177429000Y-82563500D02*
X173670000Y-82563500D01*
X105680000Y-139565000D02*
X104628000Y-138513000D01*
X151771000Y-84633800D02*
X151723000Y-84681200D01*
X152222000Y-118540000D02*
X152711000Y-118540000D01*
X173268000Y-82965200D02*
X172500000Y-82965200D01*
X109233000Y-112872000D02*
X109233000Y-103115000D01*
X125136000Y-81540000D02*
X130278000Y-86681900D01*
X151729000Y-117996000D02*
X151729000Y-118046000D01*
X152123000Y-84281100D02*
X151771000Y-84633700D01*
X110543000Y-96540100D02*
X110543000Y-102740000D01*
X151723000Y-84681200D02*
X146918000Y-84681200D01*
X151120000Y-117388000D02*
X151729000Y-117996000D01*
X173268000Y-82965200D02*
X172500000Y-82965200D01*
X109233000Y-103115000D02*
X109608000Y-102740000D01*
X130338000Y-93509800D02*
X130338000Y-102925000D01*
X154612000Y-83879400D02*
X152808000Y-83879400D01*
X146918000Y-84681200D02*
X145437000Y-83200000D01*
X177429000Y-82563500D02*
X173670000Y-82563500D01*
X151120000Y-103549000D02*
X151120000Y-117388000D01*
X152222000Y-118540000D02*
X152711000Y-118540000D01*
X162332000Y-82174300D02*
X161138000Y-80980100D01*
X152123000Y-84281100D02*
X151771000Y-84633700D01*
X146918000Y-84681200D02*
X145437000Y-83200000D01*
X110543000Y-103215000D02*
X110543000Y-102740000D01*
X151729000Y-117996000D02*
X151729000Y-118046000D01*
X130278000Y-93449100D02*
X130338000Y-93509800D01*
X151723000Y-84681200D02*
X146918000Y-84681200D01*
X173670000Y-82563500D02*
X173268000Y-82965200D01*
X110543000Y-96540100D02*
X110543000Y-102740000D01*
X104628000Y-138513000D02*
X104628000Y-117477000D01*
X168466000Y-82271200D02*
X168179000Y-82271200D01*
X104628000Y-117477000D02*
X109233000Y-112872000D01*
X154262000Y-116988000D02*
X154262000Y-105055000D01*
X155930000Y-82561300D02*
X154612000Y-83879400D01*
X154262000Y-105055000D02*
X156518000Y-102800000D01*
X152808000Y-83879400D02*
X152406000Y-84281100D01*
X111528000Y-104200000D02*
X110543000Y-103215000D01*
X111526000Y-95726700D02*
X111356000Y-95726700D01*
X130338000Y-102925000D02*
X130651000Y-103238000D01*
X156498000Y-82561300D02*
X155930000Y-82561300D01*
X154262000Y-116988000D02*
X154262000Y-105055000D01*
X132124000Y-103238000D02*
X133100000Y-102261000D01*
X154262000Y-105055000D02*
X156518000Y-102800000D01*
X168082000Y-82174300D02*
X162332000Y-82174300D01*
X169320000Y-83125800D02*
X168466000Y-82271200D01*
X157081000Y-102800000D02*
X157726000Y-103445000D01*
X151729000Y-118046000D02*
X152222000Y-118540000D01*
X168179000Y-82271200D02*
X168082000Y-82174300D01*
X148544000Y-102077000D02*
X149648000Y-102077000D01*
X156498000Y-82561300D02*
X155930000Y-82561300D01*
X152406000Y-84281100D02*
X152123000Y-84281100D01*
X149648000Y-102077000D02*
X151120000Y-103549000D01*
X149648000Y-102077000D02*
X151120000Y-103549000D01*
X132124000Y-103238000D02*
X133100000Y-102261000D01*
X168466000Y-82271200D02*
X168179000Y-82271200D01*
X151729000Y-118046000D02*
X152222000Y-118540000D01*
X109608000Y-102740000D02*
X110543000Y-102740000D01*
X158080000Y-80980100D02*
X156498000Y-82561300D01*
X109233000Y-103115000D02*
X109608000Y-102740000D01*
X152711000Y-118540000D02*
X154262000Y-116988000D01*
X161138000Y-80980100D02*
X158080000Y-80980100D01*
X172340000Y-83125800D02*
X169320000Y-83125800D01*
X151771000Y-84633700D02*
X151771000Y-84633800D01*
X109608000Y-102740000D02*
X110543000Y-102740000D01*
X111356000Y-95726700D02*
X110543000Y-96540100D01*
X158080000Y-80980100D02*
X156498000Y-82561300D01*
X130338000Y-93509800D02*
X130338000Y-102925000D01*
X161138000Y-80980100D02*
X158080000Y-80980100D01*
X144891000Y-105729000D02*
X148544000Y-102077000D01*
X130338000Y-102925000D02*
X130651000Y-103238000D01*
X152406000Y-84281100D02*
X152123000Y-84281100D01*
X157726000Y-103445000D02*
X157726000Y-104200000D01*
X169320000Y-83125800D02*
X168466000Y-82271200D01*
X168082000Y-82174300D02*
X162332000Y-82174300D01*
X130651000Y-103238000D02*
X132124000Y-103238000D01*
X156518000Y-102800000D02*
X157081000Y-102800000D01*
X130278000Y-86681900D02*
X130278000Y-93449100D01*
X130278000Y-93449100D02*
X130338000Y-93509800D01*
X111356000Y-95726700D02*
X110543000Y-96540100D01*
X177897000Y-83031700D02*
X177429000Y-82563500D01*
X151120000Y-103549000D02*
X151120000Y-117388000D01*
X152711000Y-118540000D02*
X154262000Y-116988000D01*
X151771000Y-84633700D02*
X151771000Y-84633800D01*
X110543000Y-103215000D02*
X110543000Y-102740000D01*
%TO.N,/A10*%
X182718000Y-115400000D02*
X181093000Y-113775000D01*
X152378000Y-93546600D02*
X147656000Y-93546600D01*
X112546000Y-95509900D02*
X112931000Y-95125200D01*
X105902000Y-118476000D02*
X105902000Y-118981000D01*
X112840000Y-102133000D02*
X112546000Y-101840000D01*
X106422000Y-117956000D02*
X105902000Y-118476000D01*
X108580000Y-121659000D02*
X108580000Y-139204000D01*
X181093000Y-108804000D02*
X176976000Y-104688000D01*
X176976000Y-98563800D02*
X176822000Y-98408800D01*
X152528000Y-93396500D02*
X152378000Y-93546600D01*
X112840000Y-115036000D02*
X112840000Y-102133000D01*
X112840000Y-102133000D02*
X112546000Y-101840000D01*
X112931000Y-95125200D02*
X115108000Y-95125200D01*
X109356000Y-115036000D02*
X106436000Y-117956000D01*
X176976000Y-104688000D02*
X176976000Y-98563800D01*
X152378000Y-93546600D02*
X147656000Y-93546600D01*
X112546000Y-95509900D02*
X112931000Y-95125200D01*
X108580000Y-139204000D02*
X108220000Y-139565000D01*
X108580000Y-121659000D02*
X108580000Y-139204000D01*
X112840000Y-115036000D02*
X109356000Y-115036000D01*
X106436000Y-117956000D02*
X106422000Y-117956000D01*
X106436000Y-117956000D02*
X106422000Y-117956000D01*
X115108000Y-95125200D02*
X116235000Y-96251800D01*
X116778000Y-115150000D02*
X116664000Y-115036000D01*
X115108000Y-95125200D02*
X116235000Y-96251800D01*
X112931000Y-95125200D02*
X115108000Y-95125200D01*
X105902000Y-118981000D02*
X108580000Y-121659000D01*
X181093000Y-113775000D02*
X181093000Y-108804000D01*
X105902000Y-118476000D02*
X105902000Y-118981000D01*
X176976000Y-104688000D02*
X176976000Y-98563800D01*
X108580000Y-139204000D02*
X108220000Y-139565000D01*
X112546000Y-101840000D02*
X112546000Y-95509900D01*
X116664000Y-115036000D02*
X112840000Y-115036000D01*
X147656000Y-93546600D02*
X147602000Y-93493000D01*
X181093000Y-108804000D02*
X176976000Y-104688000D01*
X176976000Y-98563800D02*
X176822000Y-98408800D01*
X147656000Y-93546600D02*
X147602000Y-93493000D01*
X109356000Y-115036000D02*
X106436000Y-117956000D01*
X106422000Y-117956000D02*
X105902000Y-118476000D01*
X116664000Y-115036000D02*
X112840000Y-115036000D01*
X105902000Y-118981000D02*
X108580000Y-121659000D01*
X181093000Y-113775000D02*
X181093000Y-108804000D01*
X112546000Y-101840000D02*
X112546000Y-95509900D01*
%TO.N,/A11*%
X175865000Y-104144000D02*
X175865000Y-99050100D01*
X178256000Y-112514000D02*
X178256000Y-106535000D01*
X178256000Y-106535000D02*
X175865000Y-104144000D01*
X116407000Y-148670000D02*
X109455000Y-148670000D01*
X178256000Y-112514000D02*
X178256000Y-106535000D01*
X122041000Y-142421000D02*
X117203000Y-147258000D01*
X122257000Y-124584000D02*
X122041000Y-124800000D01*
X147353000Y-95521200D02*
X147353000Y-95321100D01*
X122041000Y-142421000D02*
X117203000Y-147258000D01*
X122041000Y-124800000D02*
X122041000Y-142421000D01*
X122257000Y-118444000D02*
X122257000Y-124584000D01*
X147353000Y-95321100D02*
X152119000Y-95321100D01*
X120426000Y-116613000D02*
X122257000Y-118444000D01*
X152119000Y-95321100D02*
X152119000Y-95521200D01*
X147353000Y-95321100D02*
X152119000Y-95321100D01*
X181942000Y-116200000D02*
X178256000Y-112514000D01*
X117203000Y-147873000D02*
X116407000Y-148670000D01*
X109455000Y-148670000D02*
X108220000Y-147435000D01*
X122257000Y-118444000D02*
X122257000Y-124584000D01*
X178256000Y-106535000D02*
X175865000Y-104144000D01*
X152119000Y-95321100D02*
X152119000Y-95521200D01*
X175865000Y-104144000D02*
X175865000Y-99050100D01*
X117203000Y-147258000D02*
X117203000Y-147873000D01*
X122041000Y-124800000D02*
X122041000Y-142421000D01*
X109455000Y-148670000D02*
X108220000Y-147435000D01*
X117203000Y-147873000D02*
X116407000Y-148670000D01*
X122257000Y-124584000D02*
X122041000Y-124800000D01*
X116407000Y-148670000D02*
X109455000Y-148670000D01*
X117203000Y-147258000D02*
X117203000Y-147873000D01*
%TO.N,/D2*%
X86250000Y-107148000D02*
X81302200Y-102200000D01*
X86250000Y-127681000D02*
X86250000Y-107148000D01*
X138700000Y-139565000D02*
X132993000Y-133858000D01*
X86250000Y-127681000D02*
X86250000Y-107148000D01*
X92427100Y-133858000D02*
X86250000Y-127681000D01*
X86250000Y-107148000D02*
X81302200Y-102200000D01*
%TO.N,/D4*%
X84798200Y-102359000D02*
X85157200Y-102718000D01*
X87750000Y-127503000D02*
X87750000Y-107900000D01*
X83737500Y-103887000D02*
X83737500Y-102742000D01*
X141240000Y-139565000D02*
X134014000Y-132339000D01*
X87750000Y-107900000D02*
X83737500Y-103887000D01*
X84121000Y-102359000D02*
X84798200Y-102359000D01*
X84798200Y-102359000D02*
X85157200Y-102718000D01*
X87750000Y-107900000D02*
X83737500Y-103887000D01*
X87750000Y-127503000D02*
X87750000Y-107900000D01*
X83737500Y-103887000D02*
X83737500Y-102742000D01*
X84121000Y-102359000D02*
X84798200Y-102359000D01*
X83737500Y-102742000D02*
X84121000Y-102359000D01*
X83737500Y-102742000D02*
X84121000Y-102359000D01*
X92507200Y-132260000D02*
X87750000Y-127503000D01*
%TO.N,/D6*%
X129985000Y-109487000D02*
X128316000Y-107818000D01*
X128316000Y-107818000D02*
X128316000Y-98148100D01*
X129985000Y-125770000D02*
X129985000Y-109487000D01*
X124130000Y-96990500D02*
X120318000Y-100803000D01*
X129985000Y-109487000D02*
X128316000Y-107818000D01*
X127158000Y-96990500D02*
X124130000Y-96990500D01*
X143780000Y-139565000D02*
X129985000Y-125770000D01*
X124130000Y-96990500D02*
X120318000Y-100803000D01*
X129985000Y-125770000D02*
X129985000Y-109487000D01*
X128316000Y-98148100D02*
X127158000Y-96990500D01*
X128316000Y-98148100D02*
X127158000Y-96990500D01*
X128316000Y-107818000D02*
X128316000Y-98148100D01*
X127158000Y-96990500D02*
X124130000Y-96990500D01*
%TO.N,/A13*%
X125180000Y-113482000D02*
X125180000Y-101246000D01*
X121639000Y-132068000D02*
X119601000Y-134106000D01*
X119601000Y-143555000D02*
X117554000Y-145602000D01*
X125180000Y-101246000D02*
X126239000Y-100187000D01*
X182268000Y-97049100D02*
X182268000Y-102012000D01*
X121694000Y-115985000D02*
X125758000Y-120049000D01*
X128398000Y-116701000D02*
X125180000Y-113482000D01*
X119787000Y-116397000D02*
X120200000Y-115985000D01*
X121655000Y-120646000D02*
X121639000Y-120662000D01*
X119601000Y-134106000D02*
X119601000Y-143555000D01*
X182268000Y-102012000D02*
X183770000Y-103514000D01*
X128398000Y-116701000D02*
X125180000Y-113482000D01*
X125180000Y-113482000D02*
X125180000Y-101246000D01*
X182268000Y-102012000D02*
X183770000Y-103514000D01*
X119787000Y-118779000D02*
X119787000Y-116397000D01*
X119787000Y-116397000D02*
X120200000Y-115985000D01*
X119601000Y-143555000D02*
X117554000Y-145602000D01*
X128398000Y-119125000D02*
X128398000Y-116701000D01*
X182518000Y-96798800D02*
X182268000Y-97049100D01*
X120200000Y-115985000D02*
X121694000Y-115985000D01*
X183770000Y-116648000D02*
X182531000Y-117888000D01*
X119601000Y-134106000D02*
X119601000Y-143555000D01*
X121639000Y-120662000D02*
X121639000Y-132068000D01*
X182268000Y-97049100D02*
X182268000Y-102012000D01*
X125180000Y-101246000D02*
X126239000Y-100187000D01*
X121694000Y-115985000D02*
X125758000Y-120049000D01*
X120200000Y-115985000D02*
X121694000Y-115985000D01*
X121639000Y-120662000D02*
X121639000Y-132068000D01*
X121639000Y-132068000D02*
X119601000Y-134106000D01*
X183770000Y-103514000D02*
X183770000Y-116648000D01*
X183770000Y-103514000D02*
X183770000Y-116648000D01*
X127475000Y-120049000D02*
X128398000Y-119125000D01*
X125758000Y-120049000D02*
X127475000Y-120049000D01*
X121655000Y-120646000D02*
X119787000Y-118779000D01*
X119787000Y-118779000D02*
X119787000Y-116397000D01*
X128398000Y-119125000D02*
X128398000Y-116701000D01*
X125758000Y-120049000D02*
X127475000Y-120049000D01*
X127475000Y-120049000D02*
X128398000Y-119125000D01*
X183770000Y-116648000D02*
X182531000Y-117888000D01*
%TO.N,/D13*%
X147590000Y-137450000D02*
X137798000Y-127658000D01*
X147590000Y-143625000D02*
X147590000Y-137450000D01*
X147590000Y-143625000D02*
X147590000Y-137450000D01*
X151400000Y-147435000D02*
X147590000Y-143625000D01*
X147590000Y-137450000D02*
X137798000Y-127658000D01*
%TO.N,/A12*%
X147726000Y-95998400D02*
X151745000Y-95998400D01*
X152576000Y-95914900D02*
X152718000Y-96056500D01*
X154424000Y-118941000D02*
X155076000Y-119594000D01*
X151327000Y-118212000D02*
X152056000Y-118941000D01*
X184772000Y-120186000D02*
X184772000Y-99409300D01*
X151745000Y-95998400D02*
X151870000Y-96122900D01*
X149348000Y-102695000D02*
X150678000Y-104024000D01*
X110760000Y-122721000D02*
X110782000Y-122699000D01*
X152368000Y-96122900D02*
X152576000Y-95914900D01*
X150678000Y-117513000D02*
X151327000Y-118162000D01*
X151745000Y-95998400D02*
X151870000Y-96122900D01*
X110760000Y-139565000D02*
X110760000Y-122721000D01*
X147710000Y-96014500D02*
X147726000Y-95998400D01*
X151327000Y-118212000D02*
X152056000Y-118941000D01*
X151870000Y-96122900D02*
X152368000Y-96122900D01*
X110760000Y-122721000D02*
X110782000Y-122699000D01*
X184772000Y-99409300D02*
X184875000Y-99306600D01*
X151327000Y-118162000D02*
X151327000Y-118212000D01*
X147726000Y-95998400D02*
X151745000Y-95998400D01*
X150678000Y-117513000D02*
X151327000Y-118162000D01*
X147852000Y-96156100D02*
X147710000Y-96014500D01*
X147710000Y-96014500D02*
X147726000Y-95998400D01*
X152056000Y-118941000D02*
X154424000Y-118941000D01*
X184772000Y-99409300D02*
X184875000Y-99306600D01*
X152576000Y-95914900D02*
X152718000Y-96056500D01*
X154424000Y-118941000D02*
X155076000Y-119594000D01*
X151327000Y-118162000D02*
X151327000Y-118212000D01*
X152056000Y-118941000D02*
X154424000Y-118941000D01*
X151870000Y-96122900D02*
X152368000Y-96122900D01*
X150678000Y-104024000D02*
X150678000Y-117513000D01*
X150678000Y-104024000D02*
X150678000Y-117513000D01*
X152368000Y-96122900D02*
X152576000Y-95914900D01*
%TO.N,/D0*%
X125782000Y-113428000D02*
X128800000Y-116445000D01*
X128800000Y-123575000D02*
X128781000Y-123594000D01*
X128781000Y-123594000D02*
X128781000Y-123622000D01*
X125782000Y-101793000D02*
X125782000Y-113428000D01*
X125782000Y-113428000D02*
X128800000Y-116445000D01*
X128781000Y-132186000D02*
X136160000Y-139565000D01*
X128781000Y-132186000D02*
X136160000Y-139565000D01*
X128800000Y-116445000D02*
X128800000Y-123575000D01*
X128800000Y-123575000D02*
X128781000Y-123594000D01*
X128781000Y-123594000D02*
X128781000Y-132186000D01*
X128781000Y-123622000D02*
X128781000Y-132186000D01*
X128800000Y-116445000D02*
X128800000Y-123575000D01*
%TO.N,/A1*%
X172903000Y-104760000D02*
X172903000Y-97963300D01*
X160148000Y-86770300D02*
X163285000Y-86770300D01*
X166410000Y-91469600D02*
X166410000Y-89894400D01*
X103612000Y-99871900D02*
X103612000Y-100980000D01*
X103612000Y-100980000D02*
X99062800Y-105528000D01*
X131481000Y-84866200D02*
X131420000Y-84805200D01*
X95520000Y-147435000D02*
X96384900Y-146570000D01*
X102396000Y-98655900D02*
X103612000Y-99871900D01*
X131481000Y-98303200D02*
X131481000Y-84866200D01*
X96384900Y-146570000D02*
X96384900Y-108478000D01*
X131481000Y-84866200D02*
X131420000Y-84805200D01*
X131481000Y-98303200D02*
X131481000Y-84866200D01*
X174101000Y-105958000D02*
X172903000Y-104760000D01*
X96384900Y-146570000D02*
X96384900Y-108478000D01*
X103612000Y-99871900D02*
X103612000Y-100980000D01*
X172903000Y-97963300D02*
X166410000Y-91469600D01*
X102396000Y-87231300D02*
X102396000Y-98655900D01*
X160148000Y-86770300D02*
X163285000Y-86770300D01*
X131230000Y-105107000D02*
X134757000Y-101579000D01*
X114266000Y-105800000D02*
X116882000Y-108416000D01*
X158177000Y-84800000D02*
X160148000Y-86770300D01*
X96384900Y-108478000D02*
X99062800Y-105800000D01*
X102396000Y-98655900D02*
X103612000Y-99871900D01*
X116882000Y-108416000D02*
X120851000Y-108416000D01*
X131230000Y-105107000D02*
X134757000Y-101579000D01*
X166410000Y-89894400D02*
X163285000Y-86770300D01*
X166410000Y-91469600D02*
X166410000Y-89894400D01*
X103612000Y-100980000D02*
X99062800Y-105528000D01*
X172903000Y-97963300D02*
X166410000Y-91469600D01*
X96384900Y-108478000D02*
X99062800Y-105800000D01*
X131230000Y-105718000D02*
X131230000Y-105107000D01*
X99062800Y-105528000D02*
X99062800Y-105800000D01*
X134757000Y-101579000D02*
X131481000Y-98303200D01*
X172903000Y-104760000D02*
X172903000Y-97963300D01*
X166410000Y-89894400D02*
X163285000Y-86770300D01*
X116882000Y-108416000D02*
X120851000Y-108416000D01*
X99062800Y-105528000D02*
X99062800Y-105800000D01*
%TO.N,/A16*%
X157860000Y-111662000D02*
X157860000Y-111214000D01*
X111580000Y-94903900D02*
X112145000Y-95468200D01*
X157376000Y-114932000D02*
X157890000Y-114419000D01*
X169321000Y-99937900D02*
X162945000Y-99937900D01*
X127437000Y-118598000D02*
X126997000Y-119038000D01*
X109573000Y-97919300D02*
X109573000Y-96829000D01*
X109092000Y-98400000D02*
X109573000Y-97919300D01*
X158162000Y-110912000D02*
X158162000Y-107494000D01*
X122478000Y-114780000D02*
X123785000Y-116086000D01*
X127230000Y-98344500D02*
X124778000Y-100797000D01*
X122478000Y-114780000D02*
X123785000Y-116086000D01*
X127437000Y-117636000D02*
X127437000Y-118598000D01*
X157890000Y-111691000D02*
X157860000Y-111662000D01*
X125535000Y-115734000D02*
X127437000Y-117636000D01*
X157890000Y-114419000D02*
X157890000Y-111691000D01*
X111498000Y-94903900D02*
X111580000Y-94903900D01*
X157860000Y-107192000D02*
X157860000Y-104917000D01*
X157860000Y-107192000D02*
X157860000Y-104917000D01*
X124925000Y-114268000D02*
X124925000Y-115734000D01*
X124778000Y-114121000D02*
X124925000Y-114268000D01*
X109573000Y-96829000D02*
X111498000Y-94903900D01*
X112145000Y-102006000D02*
X112438000Y-102300000D01*
X112145000Y-102006000D02*
X112438000Y-102300000D01*
X125535000Y-115734000D02*
X127437000Y-117636000D01*
X115840000Y-126875000D02*
X115840000Y-139565000D01*
X124778000Y-100797000D02*
X124778000Y-114121000D01*
X110520000Y-117494000D02*
X111372000Y-116643000D01*
X117621000Y-116643000D02*
X119485000Y-114780000D01*
X157890000Y-114419000D02*
X157890000Y-111691000D01*
X157860000Y-111662000D02*
X157860000Y-111214000D01*
X158162000Y-107494000D02*
X157860000Y-107192000D01*
X158407000Y-104370000D02*
X158407000Y-101044000D01*
X124572000Y-116086000D02*
X124925000Y-115734000D01*
X157860000Y-111214000D02*
X158162000Y-110912000D01*
X111372000Y-116643000D02*
X117621000Y-116643000D01*
X127437000Y-117636000D02*
X127437000Y-118598000D01*
X112438000Y-102300000D02*
X112438000Y-114177000D01*
X123785000Y-116086000D02*
X124572000Y-116086000D01*
X157376000Y-114932000D02*
X157890000Y-114419000D01*
X157376000Y-115475000D02*
X157376000Y-114932000D01*
X127288000Y-98344500D02*
X127230000Y-98344500D01*
X135855000Y-97729500D02*
X134303000Y-96177200D01*
X124778000Y-114121000D02*
X124925000Y-114268000D01*
X110520000Y-118473000D02*
X110520000Y-117494000D01*
X109573000Y-97919300D02*
X109573000Y-96829000D01*
X171552000Y-118419000D02*
X169321000Y-116188000D01*
X108979000Y-120014000D02*
X115840000Y-126875000D01*
X169321000Y-98645900D02*
X169419000Y-98547500D01*
X124572000Y-116086000D02*
X124925000Y-115734000D01*
X169321000Y-116188000D02*
X169321000Y-99937900D01*
X157860000Y-104917000D02*
X158407000Y-104370000D01*
X135855000Y-97729500D02*
X134303000Y-96177200D01*
X169321000Y-116188000D02*
X169321000Y-99937900D01*
X117621000Y-116643000D02*
X119485000Y-114780000D01*
X108979000Y-120014000D02*
X108977000Y-120014000D01*
X111498000Y-94903900D02*
X111580000Y-94903900D01*
X169321000Y-99937900D02*
X169321000Y-98645900D01*
X158407000Y-104370000D02*
X158407000Y-101044000D01*
X157860000Y-111214000D02*
X158162000Y-110912000D01*
X149543000Y-97729500D02*
X135855000Y-97729500D01*
X124925000Y-115734000D02*
X125535000Y-115734000D01*
X119485000Y-114780000D02*
X122478000Y-114780000D01*
X112438000Y-102300000D02*
X112438000Y-114177000D01*
X111372000Y-116643000D02*
X117621000Y-116643000D01*
X112145000Y-95468200D02*
X112145000Y-102006000D01*
X119485000Y-114780000D02*
X122478000Y-114780000D01*
X112438000Y-114177000D02*
X112234000Y-114381000D01*
X158162000Y-110912000D02*
X158162000Y-107494000D01*
X158162000Y-107494000D02*
X157860000Y-107192000D01*
X124778000Y-100797000D02*
X124778000Y-114121000D01*
X115840000Y-126875000D02*
X115840000Y-139565000D01*
X127437000Y-118598000D02*
X126997000Y-119038000D01*
X108979000Y-120014000D02*
X110520000Y-118473000D01*
X123785000Y-116086000D02*
X124572000Y-116086000D01*
X112438000Y-114177000D02*
X112234000Y-114381000D01*
X112145000Y-95468200D02*
X112145000Y-102006000D01*
X109573000Y-96829000D02*
X111498000Y-94903900D01*
X127230000Y-98344500D02*
X124778000Y-100797000D01*
X110520000Y-117494000D02*
X111372000Y-116643000D01*
X110520000Y-118473000D02*
X110520000Y-117494000D01*
X124925000Y-114268000D02*
X124925000Y-115734000D01*
X157890000Y-111691000D02*
X157860000Y-111662000D01*
X169321000Y-98645900D02*
X169419000Y-98547500D01*
X111580000Y-94903900D02*
X112145000Y-95468200D01*
X157860000Y-104917000D02*
X158407000Y-104370000D01*
%TO.N,/A19*%
X116690000Y-139085000D02*
X116340000Y-138735000D01*
X156139000Y-98597100D02*
X154935000Y-97393400D01*
X152115000Y-102842000D02*
X152391000Y-102842000D01*
X163057000Y-93841200D02*
X163277000Y-93841200D01*
X154935000Y-97393400D02*
X154935000Y-96512000D01*
X134413000Y-109785000D02*
X134746000Y-110118000D01*
X135486000Y-103766000D02*
X135486000Y-104285000D01*
X135486000Y-104285000D02*
X135087000Y-104684000D01*
X127862000Y-117066000D02*
X127797000Y-117000000D01*
X123854000Y-116844000D02*
X126078000Y-116844000D01*
X159378000Y-97520100D02*
X163057000Y-93841200D01*
X136774000Y-99527500D02*
X133246000Y-96000000D01*
X151082000Y-102842000D02*
X149915000Y-101675000D01*
X122190000Y-115181000D02*
X123854000Y-116844000D01*
X116690000Y-140675000D02*
X116690000Y-139085000D01*
X149915000Y-101675000D02*
X136774000Y-101675000D01*
X116128000Y-146386000D02*
X116128000Y-141236000D01*
X119733000Y-115181000D02*
X122190000Y-115181000D01*
X134713000Y-104684000D02*
X134413000Y-104984000D01*
X100100000Y-92312500D02*
X95771900Y-96640600D01*
X111621000Y-117245000D02*
X117670000Y-117245000D01*
X134713000Y-104684000D02*
X134413000Y-104984000D01*
X119733000Y-115181000D02*
X122190000Y-115181000D01*
X167788000Y-107007000D02*
X167788000Y-115647000D01*
X116690000Y-140675000D02*
X116690000Y-139085000D01*
X135087000Y-104684000D02*
X134713000Y-104684000D01*
X167788000Y-115647000D02*
X169141000Y-117000000D01*
X134413000Y-109785000D02*
X134746000Y-110118000D01*
X117670000Y-117245000D02*
X119733000Y-115181000D01*
X152391000Y-102842000D02*
X155070000Y-100163000D01*
X155070000Y-99666400D02*
X156139000Y-98597100D01*
X136774000Y-102478000D02*
X135486000Y-103766000D01*
X126368000Y-119264000D02*
X126750000Y-119647000D01*
X135486000Y-104285000D02*
X135087000Y-104684000D01*
X136774000Y-101675000D02*
X136774000Y-102478000D01*
X134413000Y-104984000D02*
X134413000Y-109785000D01*
X155070000Y-99666400D02*
X156139000Y-98597100D01*
X155070000Y-100163000D02*
X155070000Y-99666400D01*
X116128000Y-141236000D02*
X116690000Y-140675000D01*
X127862000Y-119090000D02*
X127862000Y-117066000D01*
X127862000Y-119090000D02*
X127862000Y-117066000D01*
X122190000Y-115181000D02*
X123854000Y-116844000D01*
X159378000Y-98597100D02*
X159378000Y-97520100D01*
X111621000Y-119396000D02*
X111621000Y-117245000D01*
X127306000Y-119647000D02*
X127862000Y-119090000D01*
X126750000Y-119647000D02*
X127306000Y-119647000D01*
X95771900Y-96640600D02*
X95771900Y-116690000D01*
X127862000Y-117066000D02*
X127797000Y-117000000D01*
X126368000Y-118470000D02*
X126368000Y-119264000D01*
X116690000Y-139085000D02*
X116340000Y-138735000D01*
X116340000Y-124115000D02*
X111621000Y-119396000D01*
X159378000Y-98597100D02*
X167788000Y-107007000D01*
X152115000Y-102842000D02*
X151082000Y-102842000D01*
X126078000Y-116844000D02*
X126994000Y-117761000D01*
X167788000Y-107007000D02*
X167788000Y-115647000D01*
X155070000Y-100163000D02*
X155070000Y-99666400D01*
X116340000Y-138735000D02*
X116340000Y-124115000D01*
X136774000Y-102478000D02*
X135486000Y-103766000D01*
X111621000Y-119396000D02*
X111621000Y-117245000D01*
X149915000Y-101675000D02*
X136774000Y-101675000D01*
X136774000Y-99527500D02*
X133246000Y-96000000D01*
X136774000Y-101675000D02*
X136774000Y-99527500D01*
X151082000Y-102842000D02*
X149915000Y-101675000D01*
X126750000Y-119647000D02*
X127306000Y-119647000D01*
X117670000Y-117245000D02*
X119733000Y-115181000D01*
X127306000Y-119647000D02*
X127862000Y-119090000D01*
X95771900Y-96640600D02*
X95771900Y-116690000D01*
X135486000Y-103766000D02*
X135486000Y-104285000D01*
X159378000Y-97520100D02*
X163057000Y-93841200D01*
X116128000Y-141236000D02*
X116690000Y-140675000D01*
X159378000Y-98597100D02*
X156139000Y-98597100D01*
X126994000Y-117844000D02*
X126368000Y-118470000D01*
X126994000Y-117844000D02*
X126368000Y-118470000D01*
X116340000Y-138735000D02*
X116340000Y-124115000D01*
X152115000Y-116593000D02*
X152115000Y-102842000D01*
X134413000Y-104984000D02*
X134413000Y-109785000D01*
X167788000Y-115647000D02*
X169141000Y-117000000D01*
X126994000Y-117761000D02*
X126994000Y-117844000D01*
X135087000Y-104684000D02*
X134713000Y-104684000D01*
X116340000Y-124115000D02*
X111621000Y-119396000D01*
X152391000Y-102842000D02*
X155070000Y-100163000D01*
X123854000Y-116844000D02*
X126078000Y-116844000D01*
X126368000Y-119264000D02*
X126750000Y-119647000D01*
X126078000Y-116844000D02*
X126994000Y-117761000D01*
X163057000Y-93841200D02*
X163277000Y-93841200D01*
X126368000Y-118470000D02*
X126368000Y-119264000D01*
X154935000Y-97393400D02*
X154935000Y-96512000D01*
X126994000Y-117761000D02*
X126994000Y-117844000D01*
%TO.N,/A3*%
X170407000Y-84845500D02*
X170808000Y-85246300D01*
X160761000Y-85629900D02*
X161115000Y-85276200D01*
X155330000Y-85264100D02*
X156820000Y-83773300D01*
X136220000Y-104119000D02*
X145461000Y-104119000D01*
X169165000Y-85648900D02*
X169165000Y-85649000D01*
X174768000Y-87985100D02*
X174270000Y-87985100D01*
X168787000Y-84845500D02*
X170407000Y-84845500D01*
X102135000Y-86629500D02*
X103063000Y-86629500D01*
X131260000Y-107325000D02*
X131331000Y-107396000D01*
X143132000Y-86077900D02*
X143725000Y-85484600D01*
X170808000Y-85246300D02*
X173528000Y-85246300D01*
X155330000Y-85264100D02*
X156820000Y-83773300D01*
X161115000Y-85276200D02*
X161115000Y-84539600D01*
X154178000Y-85264100D02*
X155330000Y-85264100D01*
X175121000Y-87632600D02*
X174768000Y-87985100D01*
X160761000Y-85629900D02*
X161115000Y-85276200D01*
X154178000Y-85264100D02*
X155330000Y-85264100D01*
X99650000Y-106141000D02*
X99996700Y-105795000D01*
X100412000Y-92850900D02*
X100702000Y-92561700D01*
X130127000Y-106716000D02*
X130736000Y-107325000D01*
X175121000Y-87134200D02*
X175121000Y-87632600D01*
X174101000Y-86114800D02*
X175121000Y-87134200D01*
X167714000Y-91555700D02*
X167714000Y-91638300D01*
X160222000Y-85629900D02*
X160761000Y-85629900D01*
X173528000Y-85246300D02*
X174101000Y-85820000D01*
X129535000Y-93842400D02*
X129535000Y-103709000D01*
X174101000Y-86114800D02*
X175121000Y-87134200D01*
X161115000Y-84539600D02*
X168462000Y-84539600D01*
X100412000Y-103272000D02*
X100412000Y-92850900D01*
X159520000Y-84644400D02*
X159520000Y-84928400D01*
X167714000Y-91638300D02*
X173731000Y-97654700D01*
X99650000Y-145845000D02*
X99650000Y-106141000D01*
X130736000Y-107325000D02*
X131260000Y-107325000D01*
X160359000Y-83200000D02*
X161115000Y-83956000D01*
X167816000Y-91171600D02*
X167816000Y-91454400D01*
X130127000Y-104302000D02*
X130127000Y-106716000D01*
X131260000Y-107325000D02*
X131331000Y-107396000D01*
X168655000Y-84732600D02*
X168674000Y-84732600D01*
X153958000Y-85484600D02*
X154178000Y-85264100D01*
X129474000Y-93781700D02*
X129535000Y-93842400D01*
X135114000Y-86077900D02*
X143132000Y-86077900D01*
X169165000Y-85649000D02*
X167213000Y-87601200D01*
X160222000Y-85629900D02*
X160761000Y-85629900D01*
X130127000Y-104302000D02*
X130127000Y-106716000D01*
X159520000Y-84644400D02*
X159520000Y-84928400D01*
X168462000Y-84539600D02*
X168655000Y-84732600D01*
X100412000Y-92850900D02*
X100702000Y-92561700D01*
X135114000Y-86077900D02*
X143132000Y-86077900D01*
X175121000Y-87632600D02*
X174768000Y-87985100D01*
X173731000Y-97654700D02*
X173731000Y-103759000D01*
X136220000Y-104119000D02*
X145461000Y-104119000D01*
X167816000Y-91171600D02*
X167816000Y-91454400D01*
X143132000Y-86077900D02*
X143725000Y-85484600D01*
X170074000Y-85648900D02*
X169165000Y-85648900D01*
X99650000Y-106141000D02*
X99996700Y-105795000D01*
X169165000Y-85649000D02*
X167213000Y-87601200D01*
X100702000Y-92561700D02*
X100702000Y-88062500D01*
X167714000Y-91638300D02*
X173731000Y-97654700D01*
X174270000Y-87985100D02*
X172343000Y-86058200D01*
X167816000Y-91454400D02*
X167714000Y-91555700D01*
X173731000Y-103759000D02*
X174917000Y-104945000D01*
X170484000Y-86058200D02*
X170074000Y-85648900D01*
X121708000Y-80542300D02*
X117600000Y-80542300D01*
X100412000Y-103272000D02*
X100412000Y-92850900D01*
X169165000Y-85648900D02*
X169165000Y-85649000D01*
X159520000Y-84928400D02*
X160222000Y-85629900D01*
X172343000Y-86058200D02*
X170484000Y-86058200D01*
X170484000Y-86058200D02*
X170074000Y-85648900D01*
X99996700Y-105795000D02*
X99996700Y-105445000D01*
X103063000Y-86629500D02*
X103148000Y-86714800D01*
X168674000Y-84732600D02*
X168787000Y-84845500D01*
X129474000Y-88363600D02*
X129474000Y-93781700D01*
X127433000Y-86322600D02*
X129474000Y-88363600D01*
X100702000Y-92561700D02*
X100702000Y-88062500D01*
X99650000Y-145845000D02*
X99650000Y-106141000D01*
X135053000Y-105286000D02*
X136220000Y-104119000D01*
X172343000Y-86058200D02*
X170484000Y-86058200D01*
X121708000Y-80542300D02*
X117600000Y-80542300D01*
X173731000Y-103759000D02*
X174917000Y-104945000D01*
X127433000Y-86267900D02*
X121708000Y-80542300D01*
X98060000Y-147435000D02*
X99650000Y-145845000D01*
X168655000Y-84732600D02*
X168674000Y-84732600D01*
X174768000Y-87985100D02*
X174270000Y-87985100D01*
X170074000Y-85648900D02*
X169165000Y-85648900D01*
X170808000Y-85246300D02*
X173528000Y-85246300D01*
X170407000Y-84845500D02*
X170808000Y-85246300D01*
X158649000Y-83773300D02*
X159520000Y-84644400D01*
X130127000Y-106716000D02*
X130736000Y-107325000D01*
X156820000Y-83773300D02*
X158649000Y-83773300D01*
X99711200Y-103973000D02*
X100412000Y-103272000D01*
X167213000Y-87601200D02*
X167213000Y-90569000D01*
X161115000Y-85276200D02*
X161115000Y-84539600D01*
X103063000Y-86629500D02*
X103148000Y-86714800D01*
X130736000Y-107325000D02*
X131260000Y-107325000D01*
X158649000Y-83773300D02*
X159520000Y-84644400D01*
X174101000Y-85820000D02*
X174101000Y-86114800D01*
X161115000Y-83956000D02*
X161115000Y-84539600D01*
X129535000Y-103709000D02*
X130127000Y-104302000D01*
X168787000Y-84845500D02*
X170407000Y-84845500D01*
X102135000Y-86629500D02*
X103063000Y-86629500D01*
X129474000Y-93781700D02*
X129535000Y-93842400D01*
X129535000Y-93842400D02*
X129535000Y-103709000D01*
X129474000Y-88363600D02*
X129474000Y-93781700D01*
X167816000Y-91454400D02*
X167714000Y-91555700D01*
X156820000Y-83773300D02*
X158649000Y-83773300D01*
X175121000Y-87134200D02*
X175121000Y-87632600D01*
X173731000Y-97654700D02*
X173731000Y-103759000D01*
X100702000Y-88062500D02*
X102135000Y-86629500D01*
X173528000Y-85246300D02*
X174101000Y-85820000D01*
X168674000Y-84732600D02*
X168787000Y-84845500D01*
X143725000Y-85484600D02*
X153958000Y-85484600D01*
X174107000Y-85814000D02*
X174101000Y-85820000D01*
X159520000Y-84928400D02*
X160222000Y-85629900D01*
X127433000Y-86267900D02*
X121708000Y-80542300D01*
X167213000Y-87601200D02*
X167213000Y-90569000D01*
X153958000Y-85484600D02*
X154178000Y-85264100D01*
X143725000Y-85484600D02*
X153958000Y-85484600D01*
X127433000Y-86322600D02*
X127433000Y-86267900D01*
X167213000Y-90569000D02*
X167816000Y-91171600D01*
X99996700Y-105795000D02*
X99996700Y-105445000D01*
X129535000Y-103709000D02*
X130127000Y-104302000D01*
X168462000Y-84539600D02*
X168655000Y-84732600D01*
X132693000Y-83656900D02*
X135114000Y-86077900D01*
X100702000Y-88062500D02*
X102135000Y-86629500D01*
X167714000Y-91555700D02*
X167714000Y-91638300D01*
X161115000Y-83956000D02*
X161115000Y-84539600D01*
X167213000Y-90569000D02*
X167816000Y-91171600D01*
X174270000Y-87985100D02*
X172343000Y-86058200D01*
%TO.N,/A15*%
X116740000Y-147769000D02*
X116241000Y-148268000D01*
X116764000Y-138392000D02*
X117141000Y-138768000D01*
X116764000Y-138392000D02*
X117141000Y-138768000D01*
X184174000Y-117647000D02*
X181628000Y-120193000D01*
X129383000Y-110716000D02*
X129383000Y-123844000D01*
X117141000Y-138768000D02*
X117141000Y-141061000D01*
X114133000Y-148268000D02*
X113300000Y-147435000D01*
X117141000Y-138768000D02*
X117141000Y-141061000D01*
X117141000Y-141061000D02*
X116740000Y-141463000D01*
X116241000Y-148268000D02*
X114133000Y-148268000D01*
X127599000Y-108932000D02*
X129383000Y-110716000D01*
X129383000Y-110716000D02*
X129383000Y-123844000D01*
X116764000Y-121549000D02*
X116764000Y-138392000D01*
X116740000Y-141463000D02*
X116740000Y-147769000D01*
X183370000Y-100240000D02*
X184174000Y-101043000D01*
X184174000Y-101043000D02*
X184174000Y-117647000D01*
X184174000Y-101043000D02*
X184174000Y-117647000D01*
X127599000Y-101232000D02*
X127599000Y-108932000D01*
X116241000Y-148268000D02*
X114133000Y-148268000D01*
X116740000Y-141463000D02*
X116740000Y-147769000D01*
X116740000Y-147769000D02*
X116241000Y-148268000D01*
X127599000Y-108932000D02*
X129383000Y-110716000D01*
X114133000Y-148268000D02*
X113300000Y-147435000D01*
X184174000Y-117647000D02*
X181628000Y-120193000D01*
X117141000Y-141061000D02*
X116740000Y-141463000D01*
%TO.N,/A5*%
X154134000Y-100422000D02*
X152740000Y-101815000D01*
X101634000Y-146401000D02*
X100600000Y-147435000D01*
X152740000Y-101815000D02*
X151268000Y-101815000D01*
X104932000Y-99856000D02*
X104932000Y-102605000D01*
X152713000Y-94919400D02*
X154134000Y-96340000D01*
X128055000Y-82291300D02*
X130880000Y-85115500D01*
X145636000Y-94550100D02*
X146005000Y-94919400D01*
X148690000Y-83076000D02*
X148090000Y-83676100D01*
X116550000Y-80742400D02*
X108713000Y-80742400D01*
X152713000Y-94919400D02*
X154134000Y-96340000D01*
X117351000Y-79940600D02*
X116550000Y-80742300D01*
X130880000Y-93200000D02*
X130880000Y-102565000D01*
X148090000Y-83072400D02*
X147758000Y-82740200D01*
X175876000Y-83567000D02*
X177579000Y-85270100D01*
X154134000Y-96340000D02*
X154134000Y-100422000D01*
X117351000Y-79940600D02*
X116550000Y-80742300D01*
X147876000Y-82622500D02*
X147876000Y-82289900D01*
X138905000Y-95032900D02*
X144578000Y-95032900D01*
X147876000Y-82289900D02*
X146579000Y-80993300D01*
X101634000Y-105903000D02*
X101634000Y-146401000D01*
X144671000Y-81393500D02*
X144669000Y-81395000D01*
X128055000Y-82291300D02*
X130880000Y-85115500D01*
X128055000Y-82156000D02*
X128055000Y-82291300D01*
X104932000Y-102605000D02*
X101634000Y-105903000D01*
X128055000Y-82098000D02*
X128055000Y-82156000D01*
X154220000Y-83076000D02*
X148690000Y-83076000D01*
X104932000Y-99856000D02*
X104932000Y-102605000D01*
X165149000Y-80176700D02*
X157119000Y-80176700D01*
X104372000Y-85083000D02*
X104372000Y-99296100D01*
X125898000Y-79940600D02*
X117351000Y-79940600D01*
X157119000Y-80176700D02*
X154220000Y-83076000D01*
X148090000Y-83676100D02*
X148090000Y-83072400D01*
X128055000Y-82098000D02*
X125898000Y-79940600D01*
X130880000Y-102565000D02*
X130942000Y-102627000D01*
X138905000Y-95032900D02*
X144578000Y-95032900D01*
X137206000Y-93333800D02*
X138905000Y-95032900D01*
X147758000Y-82740200D02*
X147876000Y-82622500D01*
X116550000Y-80742300D02*
X116550000Y-80742400D01*
X148690000Y-83076000D02*
X148090000Y-83676100D01*
X157119000Y-80176700D02*
X154220000Y-83076000D01*
X108713000Y-80742400D02*
X104649000Y-84805700D01*
X177579000Y-85270100D02*
X177579000Y-102631000D01*
X145061000Y-94550100D02*
X145636000Y-94550100D01*
X130880000Y-85115500D02*
X130880000Y-93200000D01*
X137206000Y-93333800D02*
X138905000Y-95032900D01*
X146005000Y-94919400D02*
X152713000Y-94919400D01*
X145061000Y-94550100D02*
X145636000Y-94550100D01*
X116550000Y-80742400D02*
X108713000Y-80742400D01*
X146579000Y-80993300D02*
X146164000Y-80993300D01*
X101634000Y-105903000D02*
X101634000Y-146401000D01*
X147876000Y-82622500D02*
X147876000Y-82289900D01*
X130880000Y-85115500D02*
X130880000Y-93200000D01*
X144669000Y-81395000D02*
X128758000Y-81395000D01*
X145636000Y-94550100D02*
X146005000Y-94919400D01*
X154134000Y-100422000D02*
X152740000Y-101815000D01*
X165149000Y-80176700D02*
X157119000Y-80176700D01*
X146164000Y-80993300D02*
X145764000Y-81393500D01*
X108713000Y-80742400D02*
X104649000Y-84805700D01*
X177579000Y-85270100D02*
X177579000Y-102631000D01*
X145764000Y-81393500D02*
X144671000Y-81393500D01*
X146579000Y-80993300D02*
X146164000Y-80993300D01*
X147758000Y-82740200D02*
X147876000Y-82622500D01*
X147876000Y-82289900D02*
X146579000Y-80993300D01*
X165288000Y-80315500D02*
X165149000Y-80176700D01*
X128758000Y-81395000D02*
X128055000Y-82098000D01*
X104372000Y-85083000D02*
X104372000Y-99296100D01*
X152740000Y-101815000D02*
X151268000Y-101815000D01*
X145764000Y-81393500D02*
X144671000Y-81393500D01*
X104372000Y-99296100D02*
X104932000Y-99856000D01*
X104372000Y-99296100D02*
X104932000Y-99856000D01*
X148090000Y-83072400D02*
X147758000Y-82740200D01*
X137206000Y-93200000D02*
X137206000Y-93333800D01*
X144578000Y-95032900D02*
X145061000Y-94550100D01*
X144671000Y-81393500D02*
X144669000Y-81395000D01*
X144669000Y-81395000D02*
X128758000Y-81395000D01*
X125898000Y-79940600D02*
X117351000Y-79940600D01*
X146164000Y-80993300D02*
X145764000Y-81393500D01*
X154220000Y-83076000D02*
X148690000Y-83076000D01*
X128758000Y-81395000D02*
X128055000Y-82098000D01*
X144578000Y-95032900D02*
X145061000Y-94550100D01*
X116550000Y-80742300D02*
X116550000Y-80742400D01*
X154134000Y-96340000D02*
X154134000Y-100422000D01*
X146005000Y-94919400D02*
X152713000Y-94919400D01*
X101634000Y-146401000D02*
X100600000Y-147435000D01*
X130880000Y-102565000D02*
X130942000Y-102627000D01*
X104649000Y-84805700D02*
X104372000Y-85083000D01*
%TO.N,/A7*%
X104009000Y-148304000D02*
X103140000Y-147435000D01*
X179773000Y-82401700D02*
X179773000Y-82401600D01*
X157359000Y-110379000D02*
X157359000Y-107927000D01*
X156319000Y-111419000D02*
X157359000Y-110379000D01*
X155783000Y-104436000D02*
X156817000Y-103402000D01*
X109900000Y-112790000D02*
X105029000Y-117660000D01*
X157646000Y-122792000D02*
X155472000Y-120617000D01*
X179208000Y-82161800D02*
X172736000Y-82161800D01*
X142461000Y-104731000D02*
X142461000Y-105450000D01*
X106037000Y-148304000D02*
X104009000Y-148304000D01*
X157359000Y-107927000D02*
X155783000Y-106351000D01*
X144785000Y-110524000D02*
X149874000Y-115613000D01*
X144785000Y-110524000D02*
X149874000Y-115613000D01*
X149874000Y-115613000D02*
X149874000Y-117895000D01*
X157646000Y-122792000D02*
X155472000Y-120617000D01*
X106551000Y-147791000D02*
X106037000Y-148304000D01*
X169516000Y-82724100D02*
X168364000Y-81572500D01*
X172736000Y-82161800D02*
X172173000Y-82724100D01*
X179208000Y-82161800D02*
X172736000Y-82161800D01*
X179773000Y-82401700D02*
X179773000Y-82401600D01*
X156319000Y-119769000D02*
X156319000Y-111419000D01*
X152359000Y-83477700D02*
X151557000Y-84279500D01*
X105029000Y-117660000D02*
X105029000Y-124732000D01*
X111199000Y-102602000D02*
X111199000Y-96734300D01*
X105029000Y-124732000D02*
X106551000Y-126253000D01*
X162901000Y-80578400D02*
X157345000Y-80578400D01*
X105029000Y-117660000D02*
X105029000Y-124732000D01*
X151557000Y-84279500D02*
X147552000Y-84279500D01*
X144785000Y-107774000D02*
X144785000Y-110524000D01*
X157345000Y-80578400D02*
X154446000Y-83477700D01*
X179610000Y-82563500D02*
X179208000Y-82161800D01*
X172736000Y-82161800D02*
X172173000Y-82724100D01*
X106037000Y-148304000D02*
X104009000Y-148304000D01*
X168364000Y-81572500D02*
X163895000Y-81572500D01*
X154446000Y-83477700D02*
X152359000Y-83477700D01*
X142461000Y-105450000D02*
X144785000Y-107774000D01*
X156319000Y-119769000D02*
X156319000Y-111419000D01*
X162901000Y-80578400D02*
X157345000Y-80578400D01*
X157646000Y-125864000D02*
X157646000Y-122792000D01*
X179773000Y-82401600D02*
X179775000Y-82400000D01*
X149874000Y-117895000D02*
X152596000Y-120617000D01*
X146200000Y-82927400D02*
X146200000Y-82400000D01*
X149874000Y-115613000D02*
X149874000Y-117895000D01*
X109900000Y-112790000D02*
X105029000Y-117660000D01*
X172173000Y-82724100D02*
X169516000Y-82724100D01*
X111836000Y-103239000D02*
X111199000Y-102602000D01*
X157359000Y-110379000D02*
X157359000Y-107927000D01*
X157345000Y-80578400D02*
X154446000Y-83477700D01*
X179771000Y-82401700D02*
X179773000Y-82401700D01*
X156319000Y-111419000D02*
X157359000Y-110379000D01*
X146200000Y-82927400D02*
X146200000Y-82400000D01*
X106551000Y-147791000D02*
X106037000Y-148304000D01*
X152359000Y-83477700D02*
X151557000Y-84279500D01*
X168364000Y-81572500D02*
X163895000Y-81572500D01*
X172173000Y-82724100D02*
X169516000Y-82724100D01*
X151557000Y-84279500D02*
X147552000Y-84279500D01*
X105029000Y-124732000D02*
X106551000Y-126253000D01*
X169516000Y-82724100D02*
X168364000Y-81572500D01*
X144785000Y-107774000D02*
X144785000Y-110524000D01*
X104009000Y-148304000D02*
X103140000Y-147435000D01*
X163895000Y-81572500D02*
X162901000Y-80578400D01*
X106551000Y-126253000D02*
X107507000Y-126253000D01*
X111199000Y-102602000D02*
X111199000Y-96734300D01*
X147552000Y-84279500D02*
X146200000Y-82927400D01*
X157359000Y-107927000D02*
X155783000Y-106351000D01*
X106551000Y-126253000D02*
X106551000Y-147791000D01*
X152596000Y-120617000D02*
X155472000Y-120617000D01*
X154446000Y-83477700D02*
X152359000Y-83477700D01*
X155783000Y-106351000D02*
X155783000Y-104436000D01*
X155783000Y-104436000D02*
X156817000Y-103402000D01*
X155472000Y-120617000D02*
X156319000Y-119769000D01*
X149874000Y-117895000D02*
X152596000Y-120617000D01*
X109900000Y-103400000D02*
X109900000Y-112790000D01*
X155783000Y-106351000D02*
X155783000Y-104436000D01*
X152596000Y-120617000D02*
X155472000Y-120617000D01*
X179771000Y-82401700D02*
X179773000Y-82401700D01*
X142461000Y-105450000D02*
X144785000Y-107774000D01*
X179773000Y-82401600D02*
X179775000Y-82400000D01*
X147552000Y-84279500D02*
X146200000Y-82927400D01*
X179610000Y-82563500D02*
X179771000Y-82401700D01*
X179610000Y-103400000D02*
X179610000Y-82563500D01*
%TO.N,/D5*%
X81750000Y-132439000D02*
X89714200Y-140403000D01*
X136791000Y-146555000D02*
X132057000Y-141821000D01*
X140360000Y-146555000D02*
X136791000Y-146555000D01*
X81750000Y-132439000D02*
X89714200Y-140403000D01*
X141240000Y-147435000D02*
X140360000Y-146555000D01*
X140360000Y-146555000D02*
X136791000Y-146555000D01*
X136791000Y-146555000D02*
X132057000Y-141821000D01*
X81750000Y-103773000D02*
X81750000Y-132439000D01*
X81750000Y-103773000D02*
X81750000Y-132439000D01*
X80095000Y-102118000D02*
X81750000Y-103773000D01*
%TO.N,/A17*%
X156782000Y-99270700D02*
X156714000Y-99203300D01*
X113205000Y-100389000D02*
X113205000Y-95728700D01*
X172513000Y-108089000D02*
X171508000Y-107084000D01*
X156782000Y-100408000D02*
X153719000Y-103470000D01*
X107423000Y-119540000D02*
X106556000Y-118673000D01*
X153719000Y-116938000D02*
X152860000Y-117797000D01*
X119144000Y-114378000D02*
X122764000Y-114378000D01*
X174728000Y-118291000D02*
X174728000Y-117169000D01*
X156782000Y-100408000D02*
X158666000Y-100408000D01*
X156782000Y-100408000D02*
X156782000Y-99270700D01*
X119144000Y-114378000D02*
X122764000Y-114378000D01*
X173971000Y-119049000D02*
X174420000Y-118600000D01*
X120020000Y-107204000D02*
X113205000Y-100389000D01*
X173971000Y-119049000D02*
X174420000Y-118600000D01*
X158666000Y-100408000D02*
X166552000Y-108295000D01*
X166552000Y-115274000D02*
X170328000Y-119049000D01*
X122764000Y-114378000D02*
X123293000Y-114906000D01*
X123293000Y-115026000D02*
X123646000Y-115379000D01*
X166552000Y-115274000D02*
X170328000Y-119049000D01*
X174728000Y-117169000D02*
X172513000Y-114953000D01*
X124496000Y-115126000D02*
X124243000Y-115379000D01*
X107907000Y-119540000D02*
X111206000Y-116241000D01*
X174728000Y-118291000D02*
X174728000Y-117169000D01*
X126876000Y-97600000D02*
X124376000Y-100100000D01*
X117280000Y-116241000D02*
X119144000Y-114378000D01*
X153719000Y-103470000D02*
X153719000Y-116938000D01*
X124243000Y-115379000D02*
X124243000Y-115404000D01*
X172513000Y-114953000D02*
X172513000Y-108089000D01*
X111206000Y-116241000D02*
X117280000Y-116241000D01*
X120020000Y-107204000D02*
X113205000Y-100389000D01*
X152860000Y-117797000D02*
X152330000Y-117797000D01*
X107907000Y-120108000D02*
X107907000Y-119540000D01*
X124243000Y-115404000D02*
X124323000Y-115484000D01*
X122764000Y-114378000D02*
X123293000Y-114906000D01*
X113205000Y-100389000D02*
X113205000Y-95728700D01*
X109258000Y-140854000D02*
X109258000Y-121460000D01*
X158666000Y-100408000D02*
X166552000Y-108295000D01*
X124376000Y-107204000D02*
X124376000Y-114288000D01*
X137532000Y-112423000D02*
X143662000Y-112423000D01*
X124376000Y-100100000D02*
X124376000Y-107204000D01*
X107907000Y-119540000D02*
X107423000Y-119540000D01*
X166552000Y-108295000D02*
X166552000Y-115274000D01*
X166552000Y-108295000D02*
X166552000Y-115274000D01*
X123293000Y-115026000D02*
X123646000Y-115379000D01*
X172513000Y-108089000D02*
X171508000Y-107084000D01*
X124376000Y-114288000D02*
X124496000Y-114408000D01*
X117280000Y-116241000D02*
X119144000Y-114378000D01*
X153719000Y-103470000D02*
X153719000Y-116938000D01*
X172513000Y-114953000D02*
X172513000Y-108089000D01*
X171508000Y-107084000D02*
X171508000Y-98643100D01*
X124376000Y-107204000D02*
X120020000Y-107204000D01*
X170328000Y-119049000D02*
X173971000Y-119049000D01*
X171508000Y-98643100D02*
X169949000Y-97084500D01*
X170328000Y-119049000D02*
X173971000Y-119049000D01*
X153719000Y-116938000D02*
X152860000Y-117797000D01*
X107907000Y-120108000D02*
X107907000Y-119540000D01*
X124376000Y-114288000D02*
X124496000Y-114408000D01*
X152860000Y-117797000D02*
X152330000Y-117797000D01*
X124376000Y-100100000D02*
X124376000Y-107204000D01*
X124496000Y-114408000D02*
X124496000Y-115126000D01*
X174728000Y-117169000D02*
X172513000Y-114953000D01*
X123293000Y-114906000D02*
X123293000Y-115026000D01*
X123646000Y-115379000D02*
X124243000Y-115379000D01*
X143662000Y-112423000D02*
X147390000Y-116151000D01*
X115840000Y-147435000D02*
X109258000Y-140854000D01*
X124496000Y-115126000D02*
X124243000Y-115379000D01*
X171508000Y-98643100D02*
X169949000Y-97084500D01*
X123293000Y-114906000D02*
X123293000Y-115026000D01*
X124496000Y-114408000D02*
X124496000Y-115126000D01*
X109258000Y-121460000D02*
X107907000Y-120108000D01*
X111206000Y-116241000D02*
X117280000Y-116241000D01*
X123646000Y-115379000D02*
X124243000Y-115379000D01*
X124243000Y-115404000D02*
X124323000Y-115484000D01*
X109258000Y-140854000D02*
X109258000Y-121460000D01*
X109258000Y-121460000D02*
X107907000Y-120108000D01*
X107423000Y-119540000D02*
X106556000Y-118673000D01*
X143662000Y-112423000D02*
X147390000Y-116151000D01*
X156782000Y-99270700D02*
X156714000Y-99203300D01*
X174420000Y-118600000D02*
X174728000Y-118291000D01*
X171508000Y-107084000D02*
X171508000Y-98643100D01*
%TO.N,/A6*%
X109199000Y-92986400D02*
X109199000Y-84083500D01*
X185030766Y-81930474D02*
X185030766Y-81905153D01*
X185112859Y-82102810D02*
X185112859Y-82062078D01*
X185030766Y-81930474D02*
X185030766Y-81905153D01*
X106530000Y-107489000D02*
X107510000Y-106510000D01*
X185180129Y-82170080D02*
X185248657Y-82238608D01*
X185237257Y-81913330D02*
X185237257Y-81945284D01*
X185180852Y-81843779D02*
X185180852Y-81856925D01*
X184987000Y-81316000D02*
X170659000Y-81316000D01*
X185078994Y-81958783D02*
X185092493Y-81945284D01*
X185284577Y-82062078D02*
X185306814Y-82084315D01*
X170659000Y-81316000D02*
X170254000Y-81720600D01*
X107510000Y-106510000D02*
X107510000Y-94675400D01*
X105721000Y-104551000D02*
X105521000Y-104751000D01*
X183543000Y-101809000D02*
X182719000Y-100986000D01*
X185112859Y-82102810D02*
X185180129Y-82170080D01*
X184987000Y-81316000D02*
X185225880Y-81554880D01*
X105521000Y-106480000D02*
X106530000Y-107489000D01*
X185030766Y-81930474D02*
X185271000Y-81690240D01*
X182719000Y-100986000D02*
X182719000Y-97448600D01*
X185225880Y-81554880D02*
X185225880Y-81645118D01*
X107510000Y-94675400D02*
X109199000Y-92986400D01*
X185271000Y-94896500D02*
X185271000Y-81690240D01*
X185112859Y-82102810D02*
X185180129Y-82170080D01*
X185306814Y-82084315D02*
X185306814Y-82170080D01*
X185092493Y-82082444D02*
X185092493Y-81945284D01*
X185030766Y-81930474D02*
X185271000Y-81690240D01*
X185136496Y-81799423D02*
X185180852Y-81843779D01*
X106530000Y-107489000D02*
X107135000Y-108093000D01*
X185225880Y-81645118D02*
X185136496Y-81734502D01*
X107510000Y-94675400D02*
X109199000Y-92986400D01*
X185078994Y-81958783D02*
X185092493Y-81945284D01*
X185306814Y-82170080D02*
X185312402Y-82175668D01*
X103140000Y-116690000D02*
X103140000Y-139565000D01*
X109199000Y-84083500D02*
X111923000Y-81359800D01*
X105721000Y-102016000D02*
X105721000Y-104551000D01*
X185030766Y-81905153D02*
X185078994Y-81856925D01*
X185078994Y-81958783D02*
X185078994Y-81856925D01*
X182719000Y-97448600D02*
X185271000Y-94896500D01*
X185092493Y-82082444D02*
X185092493Y-81945284D01*
X105521000Y-104751000D02*
X105521000Y-106480000D01*
X109199000Y-84083500D02*
X111923000Y-81359800D01*
X105734000Y-102004000D02*
X105721000Y-102016000D01*
X105721000Y-104551000D02*
X105521000Y-104751000D01*
X185312402Y-82175668D02*
X185312402Y-82238608D01*
X107135000Y-112696000D02*
X103140000Y-116690000D01*
X149301000Y-81600000D02*
X152099000Y-81600000D01*
X185284577Y-81992604D02*
X185284577Y-82062078D01*
X185078994Y-81958783D02*
X185078994Y-81856925D01*
X184987000Y-81316000D02*
X170659000Y-81316000D01*
X105521000Y-104751000D02*
X105521000Y-106480000D01*
X107510000Y-106510000D02*
X107510000Y-94675400D01*
X185180852Y-81856925D02*
X185237257Y-81913330D01*
X105521000Y-106480000D02*
X106530000Y-107489000D01*
X105721000Y-102016000D02*
X105721000Y-104551000D01*
X185092493Y-82082444D02*
X185112859Y-82062078D01*
X185271000Y-94896500D02*
X185271000Y-81690240D01*
X185092493Y-82082444D02*
X185112859Y-82062078D01*
X182719000Y-100986000D02*
X182719000Y-97448600D01*
X182719000Y-97448600D02*
X185271000Y-94896500D01*
X185237257Y-81945284D02*
X185284577Y-81992604D01*
X107135000Y-112696000D02*
X103140000Y-116690000D01*
X185112859Y-82102810D02*
X185112859Y-82062078D01*
X185180129Y-82170080D02*
X185248657Y-82238608D01*
X170659000Y-81316000D02*
X170254000Y-81720600D01*
X185248657Y-82238608D02*
X185312402Y-82238608D01*
X185136496Y-81734502D02*
X185136496Y-81799423D01*
X103140000Y-116690000D02*
X103140000Y-139565000D01*
X107135000Y-108093000D02*
X107135000Y-112696000D01*
X109199000Y-92986400D02*
X109199000Y-84083500D01*
X185030766Y-81905153D02*
X185078994Y-81856925D01*
X107135000Y-108093000D02*
X107135000Y-112696000D01*
X185248657Y-82238608D02*
X185312402Y-82238608D01*
%TO.N,/D1*%
X90011200Y-148294000D02*
X80250000Y-138533000D01*
X80250000Y-103309000D02*
X79271900Y-102331000D01*
X80250000Y-138533000D02*
X80250000Y-103309000D01*
X80250000Y-103309000D02*
X79271900Y-102331000D01*
X80250000Y-138533000D02*
X80250000Y-103309000D01*
%TO.N,/A22*%
X123460000Y-139565000D02*
X128454000Y-144559000D01*
%TO.N,/D7*%
X122500000Y-145000000D02*
X125000000Y-145000000D01*
X79537845Y-98500000D02*
X79501345Y-98463500D01*
X87000000Y-98500000D02*
X79537845Y-98500000D01*
X125000000Y-145000000D02*
X125500000Y-145500000D01*
%TO.N,/A2*%
X117800000Y-107814000D02*
X120284000Y-107814000D01*
X132981000Y-104873000D02*
X135732000Y-102123000D01*
X159249000Y-83491600D02*
X159249000Y-82223900D01*
X166811000Y-90735300D02*
X166811000Y-87152100D01*
X101482000Y-105000000D02*
X101033000Y-105449000D01*
X106707000Y-104416000D02*
X106123000Y-105000000D01*
X167786000Y-83274600D02*
X168248000Y-83736200D01*
X166811000Y-87152100D02*
X168233000Y-85730100D01*
X167271000Y-91430700D02*
X167348000Y-91354300D01*
X106707000Y-94142600D02*
X106707000Y-104416000D01*
X174108000Y-105000000D02*
X173305000Y-104197000D01*
X159249000Y-82223900D02*
X159689000Y-81783500D01*
X168248000Y-83736200D02*
X168794000Y-83736200D01*
X167786000Y-83274600D02*
X168248000Y-83736200D01*
X159563000Y-83805500D02*
X159249000Y-83491600D01*
X101033000Y-105449000D02*
X101033000Y-137975000D01*
X167271000Y-91430700D02*
X167348000Y-91354300D01*
X162238000Y-83274600D02*
X167786000Y-83274600D01*
X130287000Y-82120800D02*
X130611000Y-81796700D01*
X106707000Y-104416000D02*
X106123000Y-105000000D01*
X132022000Y-84556000D02*
X131466000Y-84000000D01*
X167271000Y-91763300D02*
X167271000Y-91430700D01*
X167348000Y-91271700D02*
X166811000Y-90735300D01*
X162238000Y-83274600D02*
X167786000Y-83274600D01*
X170910000Y-83929200D02*
X171223000Y-84242900D01*
X159689000Y-81783500D02*
X160747000Y-81783500D01*
X173305000Y-97797000D02*
X167271000Y-91763300D01*
X168794000Y-83736200D02*
X168988000Y-83929200D01*
X166811000Y-90735300D02*
X166811000Y-87152100D01*
X170910000Y-83929200D02*
X171223000Y-84242900D01*
X130287000Y-82820900D02*
X130287000Y-82120800D01*
X168794000Y-83736200D02*
X168988000Y-83929200D01*
X167271000Y-91763300D02*
X167271000Y-91430700D01*
X173305000Y-97797000D02*
X167271000Y-91763300D01*
X117800000Y-107814000D02*
X120284000Y-107814000D01*
X114986000Y-105000000D02*
X117800000Y-107814000D01*
X132981000Y-105000000D02*
X132981000Y-104873000D01*
X132981000Y-104873000D02*
X135732000Y-102123000D01*
X130611000Y-81796700D02*
X138794000Y-81796700D01*
X167348000Y-91354300D02*
X167348000Y-91271700D01*
X130611000Y-81796700D02*
X138794000Y-81796700D01*
X132022000Y-84556000D02*
X131466000Y-84000000D01*
X159249000Y-82223900D02*
X159689000Y-81783500D01*
X135732000Y-102123000D02*
X135732000Y-101277000D01*
X131466000Y-84000000D02*
X130287000Y-82820900D01*
X135732000Y-102123000D02*
X135732000Y-101277000D01*
X167348000Y-91354300D02*
X167348000Y-91271700D01*
X107108000Y-93740900D02*
X106707000Y-94142600D01*
X105931000Y-84431200D02*
X105931000Y-87760800D01*
X159249000Y-83491600D02*
X159249000Y-82223900D01*
X168988000Y-83929200D02*
X170910000Y-83929200D01*
X107108000Y-88938200D02*
X107108000Y-93740900D01*
X160747000Y-81783500D02*
X162238000Y-83274600D01*
X105931000Y-87760800D02*
X107108000Y-88938200D01*
X166811000Y-87152100D02*
X168233000Y-85730100D01*
X132022000Y-97567100D02*
X132022000Y-84556000D01*
X173305000Y-104197000D02*
X173305000Y-97797000D01*
X130287000Y-82120800D02*
X130611000Y-81796700D01*
X107108000Y-88938200D02*
X107108000Y-93740900D01*
X105931000Y-84431200D02*
X105931000Y-87760800D01*
X173305000Y-104197000D02*
X173305000Y-97797000D01*
X159689000Y-81783500D02*
X160747000Y-81783500D01*
X106707000Y-94142600D02*
X106707000Y-104416000D01*
X160747000Y-81783500D02*
X162238000Y-83274600D01*
X135732000Y-101277000D02*
X132022000Y-97567100D01*
X101033000Y-105449000D02*
X101033000Y-137975000D01*
X106362000Y-84000000D02*
X105931000Y-84431200D01*
X138794000Y-81796700D02*
X141798000Y-84800000D01*
X130287000Y-82820900D02*
X130287000Y-82120800D01*
X167348000Y-91271700D02*
X166811000Y-90735300D01*
X105931000Y-87760800D02*
X107108000Y-88938200D01*
X168988000Y-83929200D02*
X170910000Y-83929200D01*
X107108000Y-93740900D02*
X106707000Y-94142600D01*
X168248000Y-83736200D02*
X168794000Y-83736200D01*
X138794000Y-81796700D02*
X141798000Y-84800000D01*
X132022000Y-97567100D02*
X132022000Y-84556000D01*
%TO.N,/D15*%
X153940000Y-147435000D02*
X153940000Y-140929000D01*
X150623000Y-138733000D02*
X138270000Y-126380000D01*
X153940000Y-140929000D02*
X151745000Y-138733000D01*
X151745000Y-138733000D02*
X150623000Y-138733000D01*
X151745000Y-138733000D02*
X150623000Y-138733000D01*
X150623000Y-138733000D02*
X138270000Y-126380000D01*
X153940000Y-140929000D02*
X151745000Y-138733000D01*
%TO.N,/DELAY_CS*%
X181000000Y-138500000D02*
X181000000Y-143250000D01*
X180500000Y-138000000D02*
X181000000Y-138500000D01*
X181000000Y-138500000D02*
X181000000Y-143250000D01*
%TO.N,/AS*%
X178000000Y-139000000D02*
X178000000Y-143250000D01*
X178000000Y-139000000D02*
X178000000Y-143250000D01*
X177000000Y-138000000D02*
X178000000Y-139000000D01*
%TO.N,/SLEEP*%
X184000000Y-139000000D02*
X184000000Y-143250000D01*
X184500000Y-138000000D02*
X184500000Y-138500000D01*
X184500000Y-138500000D02*
X184000000Y-139000000D01*
X184000000Y-139000000D02*
X184000000Y-143250000D01*
X184500000Y-138500000D02*
X184000000Y-139000000D01*
%TO.N,/CE2*%
X157761000Y-107661000D02*
X156402000Y-106302000D01*
X156721000Y-111785000D02*
X157761000Y-110745000D01*
X177959000Y-129768000D02*
X170812000Y-129768000D01*
X156721000Y-111785000D02*
X157761000Y-110745000D01*
X185316000Y-128972000D02*
X178754000Y-128972000D01*
X156402000Y-106302000D02*
X156402000Y-105917000D01*
X187406000Y-131062000D02*
X185316000Y-128972000D01*
X156402000Y-106302000D02*
X156402000Y-105917000D01*
X157761000Y-110745000D02*
X157761000Y-107661000D01*
X170812000Y-129768000D02*
X156721000Y-115676000D01*
X156721000Y-115676000D02*
X156721000Y-111785000D01*
X185316000Y-128972000D02*
X178754000Y-128972000D01*
X170812000Y-129768000D02*
X156721000Y-115676000D01*
X177959000Y-129768000D02*
X170812000Y-129768000D01*
X157761000Y-110745000D02*
X157761000Y-107661000D01*
X157761000Y-107661000D02*
X156402000Y-106302000D01*
X178754000Y-128972000D02*
X177959000Y-129768000D01*
X178754000Y-128972000D02*
X177959000Y-129768000D01*
X156721000Y-115676000D02*
X156721000Y-111785000D01*
%TO.N,/CE1*%
X131932000Y-108166000D02*
X136263000Y-112497000D01*
X129937000Y-93676100D02*
X129937000Y-103543000D01*
X179223000Y-132500000D02*
X180084000Y-133361000D01*
X180084000Y-133361000D02*
X185620000Y-133361000D01*
X131207000Y-106421000D02*
X131932000Y-107146000D01*
X129876000Y-87615500D02*
X129876000Y-93615400D01*
X129876000Y-93615400D02*
X129937000Y-93676100D01*
X136263000Y-112852000D02*
X140578000Y-117166000D01*
X161685000Y-132500000D02*
X175311725Y-132500000D01*
X130738000Y-106421000D02*
X131207000Y-106421000D01*
X185620000Y-133361000D02*
X187081000Y-131900000D01*
X185620000Y-133361000D02*
X187081000Y-131900000D01*
X131207000Y-106421000D02*
X131932000Y-107146000D01*
X129937000Y-103543000D02*
X130603000Y-104210000D01*
X159269239Y-129850000D02*
X159650000Y-130230761D01*
X128060000Y-85799200D02*
X129876000Y-87615500D01*
X131932000Y-107146000D02*
X131932000Y-108166000D01*
X159035000Y-129850000D02*
X159269239Y-129850000D01*
X130603000Y-104210000D02*
X130603000Y-106286000D01*
X140578000Y-117166000D02*
X146351000Y-117166000D01*
X140578000Y-117166000D02*
X146351000Y-117166000D01*
X129876000Y-87615500D02*
X129876000Y-93615400D01*
X176355123Y-132500000D02*
X179223000Y-132500000D01*
X131932000Y-107146000D02*
X131932000Y-108166000D01*
X179223000Y-132500000D02*
X180084000Y-133361000D01*
X136263000Y-112852000D02*
X140578000Y-117166000D01*
X146351000Y-117166000D02*
X159035000Y-129850000D01*
X129937000Y-93676100D02*
X129937000Y-103543000D01*
X131932000Y-108166000D02*
X136263000Y-112497000D01*
X159650000Y-130465000D02*
X161685000Y-132500000D01*
X130603000Y-104210000D02*
X130603000Y-106286000D01*
X175311725Y-132500000D02*
X175564185Y-132247540D01*
X180084000Y-133361000D02*
X185620000Y-133361000D01*
X129937000Y-103543000D02*
X130603000Y-104210000D01*
X176102663Y-132247540D02*
X176355123Y-132500000D01*
X130603000Y-106286000D02*
X130738000Y-106421000D01*
X136263000Y-112497000D02*
X136263000Y-112852000D01*
X175564185Y-132247540D02*
X176102663Y-132247540D01*
X129876000Y-93615400D02*
X129937000Y-93676100D01*
X130603000Y-106286000D02*
X130738000Y-106421000D01*
X159650000Y-130230761D02*
X159650000Y-130465000D01*
X136263000Y-112497000D02*
X136263000Y-112852000D01*
%TO.N,/CE0*%
X188025000Y-132575000D02*
X188025000Y-130755000D01*
X104536000Y-106600000D02*
X102529000Y-108607000D01*
X183650000Y-126379204D02*
X183650000Y-126230761D01*
X102529000Y-108607000D02*
X102529000Y-124447000D01*
X107108000Y-94308900D02*
X107108000Y-106033000D01*
X102529000Y-108607000D02*
X102529000Y-124447000D01*
X107108000Y-106033000D02*
X106541000Y-106600000D01*
X183120893Y-125850000D02*
X182532000Y-125261000D01*
X182150000Y-125261000D02*
X181950000Y-125061000D01*
X182532000Y-125261000D02*
X182150000Y-125261000D01*
X182150000Y-125261000D02*
X181950000Y-125061000D01*
X183650000Y-126230761D02*
X183269239Y-125850000D01*
X107510000Y-93907200D02*
X107108000Y-94308900D01*
X107510000Y-86764600D02*
X107510000Y-93907200D01*
X188025000Y-132575000D02*
X188025000Y-130755000D01*
X107108000Y-94308900D02*
X107108000Y-106033000D01*
X107510000Y-93907200D02*
X107108000Y-94308900D01*
X187900000Y-132700000D02*
X188025000Y-132575000D01*
X188025000Y-130755000D02*
X183650000Y-126379204D01*
X106540000Y-85794400D02*
X107510000Y-86764600D01*
X183269239Y-125850000D02*
X183120893Y-125850000D01*
X107108000Y-106033000D02*
X106541000Y-106600000D01*
X182532000Y-125261000D02*
X182150000Y-125261000D01*
X107510000Y-86764600D02*
X107510000Y-93907200D01*
%TO.N,/WEL*%
X158427000Y-94116000D02*
X158711000Y-94400000D01*
X117724000Y-82750900D02*
X115960000Y-84515500D01*
X153495000Y-94117500D02*
X154084000Y-94117500D01*
X160092000Y-93019400D02*
X163269000Y-93019400D01*
X145936000Y-94116000D02*
X145936000Y-94282300D01*
X173230761Y-126350000D02*
X172850000Y-126730761D01*
X169348000Y-95320600D02*
X169692000Y-95320600D01*
X175584314Y-126350000D02*
X173230761Y-126350000D01*
X163269000Y-93019400D02*
X167047000Y-93019400D01*
X139506000Y-94116000D02*
X145936000Y-94116000D01*
X169348000Y-95320600D02*
X169692000Y-95320600D01*
X115960000Y-84515500D02*
X115960000Y-85573100D01*
X176584314Y-127650000D02*
X177022000Y-128087686D01*
X167047000Y-93019400D02*
X169348000Y-95320500D01*
X122567000Y-84242000D02*
X121076000Y-82750900D01*
X146172000Y-94517700D02*
X153095000Y-94517700D01*
X117724000Y-82750900D02*
X115960000Y-84515500D01*
X172502000Y-98129600D02*
X172502000Y-105212000D01*
X122567000Y-90044400D02*
X122567000Y-84242000D01*
X154084000Y-94117500D02*
X154086000Y-94116000D01*
X177022000Y-109732000D02*
X177022000Y-124912314D01*
X177022000Y-129006000D02*
X177177000Y-129161000D01*
X172850000Y-127269239D02*
X173230761Y-127650000D01*
X169692000Y-95320600D02*
X172502000Y-98129600D01*
X158427000Y-94116000D02*
X158711000Y-94400000D01*
X158711000Y-94400000D02*
X160092000Y-93019400D01*
X126923000Y-94400000D02*
X122567000Y-90044400D01*
X145936000Y-94116000D02*
X145936000Y-94282300D01*
X172502000Y-105212000D02*
X177022000Y-109732000D01*
X145936000Y-94282300D02*
X146172000Y-94517700D01*
X169692000Y-95320600D02*
X172502000Y-98129600D01*
X172502000Y-105212000D02*
X177022000Y-109732000D01*
X153495000Y-94117500D02*
X154084000Y-94117500D01*
X172850000Y-126730761D02*
X172850000Y-127269239D01*
X169348000Y-95320500D02*
X169348000Y-95320600D01*
X122567000Y-90044400D02*
X122567000Y-84242000D01*
X160092000Y-93019400D02*
X163269000Y-93019400D01*
X154084000Y-94117500D02*
X154086000Y-94116000D01*
X154086000Y-94116000D02*
X158427000Y-94116000D01*
X115960000Y-85573100D02*
X109809000Y-91723600D01*
X121076000Y-82750900D02*
X117724000Y-82750900D01*
X145936000Y-94282300D02*
X146172000Y-94517700D01*
X172502000Y-98129600D02*
X172502000Y-105212000D01*
X169348000Y-95320500D02*
X169348000Y-95320600D01*
X154086000Y-94116000D02*
X158427000Y-94116000D01*
X153095000Y-94517700D02*
X153495000Y-94117500D01*
X139506000Y-94116000D02*
X145936000Y-94116000D01*
X146172000Y-94517700D02*
X153095000Y-94517700D01*
X167047000Y-93019400D02*
X169348000Y-95320500D01*
X122567000Y-84242000D02*
X121076000Y-82750900D01*
X177022000Y-129006000D02*
X177177000Y-129161000D01*
X115960000Y-84515500D02*
X115960000Y-85573100D01*
X121076000Y-82750900D02*
X117724000Y-82750900D01*
X115960000Y-85573100D02*
X109809000Y-91723600D01*
X173230761Y-127650000D02*
X176584314Y-127650000D01*
X177022000Y-128087686D02*
X177022000Y-129006000D01*
X177022000Y-124912314D02*
X175584314Y-126350000D01*
X153095000Y-94517700D02*
X153495000Y-94117500D01*
X139222000Y-94400000D02*
X139506000Y-94116000D01*
%TO.N,/WEH*%
X146578000Y-116768000D02*
X143039000Y-113228000D01*
X123094000Y-113976000D02*
X123895000Y-114777000D01*
X148683000Y-117751000D02*
X157398000Y-126466000D01*
X113056000Y-115838000D02*
X116941000Y-115838000D01*
X148683000Y-115402000D02*
X148685000Y-115400000D01*
X112856000Y-115638000D02*
X113056000Y-115838000D01*
X148683000Y-115402000D02*
X148685000Y-115400000D01*
X148683000Y-117751000D02*
X157398000Y-126466000D01*
X157398000Y-126466000D02*
X162040000Y-126466000D01*
X146578000Y-116768000D02*
X143039000Y-113228000D01*
X148683000Y-116768000D02*
X148683000Y-115402000D01*
X143039000Y-113228000D02*
X137522000Y-113228000D01*
X157398000Y-126466000D02*
X162040000Y-126466000D01*
X143039000Y-113228000D02*
X137522000Y-113228000D01*
X118802000Y-113976000D02*
X123094000Y-113976000D01*
X123094000Y-113976000D02*
X123895000Y-114777000D01*
X148683000Y-116768000D02*
X146578000Y-116768000D01*
X177624000Y-125530000D02*
X178493922Y-126399922D01*
X177624000Y-125530000D02*
X178493922Y-126399922D01*
X116941000Y-115838000D02*
X118802000Y-113976000D01*
X148683000Y-116768000D02*
X148683000Y-117751000D01*
X113056000Y-115838000D02*
X116941000Y-115838000D01*
X118802000Y-113976000D02*
X123094000Y-113976000D01*
X178493922Y-126399922D02*
X178560000Y-126399922D01*
X177624000Y-115400000D02*
X177624000Y-125530000D01*
X116941000Y-115838000D02*
X118802000Y-113976000D01*
X178493922Y-126399922D02*
X178560000Y-126399922D01*
%TO.N,/BANKSEL*%
X120701000Y-83554500D02*
X121620000Y-84474200D01*
X126958000Y-96123400D02*
X127482000Y-96123400D01*
X148101000Y-96757800D02*
X148238000Y-96621000D01*
X116763000Y-84878200D02*
X118087000Y-83554500D01*
X158262000Y-111380000D02*
X158564000Y-111078000D01*
X147466000Y-96621000D02*
X147603000Y-96757800D01*
X163301000Y-120008000D02*
X174984000Y-120008000D01*
X130592000Y-108317000D02*
X130592000Y-115523000D01*
X158564000Y-111078000D02*
X158564000Y-106757000D01*
X169594000Y-95864100D02*
X172100000Y-98369400D01*
X113319000Y-90099100D02*
X113319000Y-89861100D01*
X128054000Y-95551800D02*
X128054000Y-95445600D01*
X110618000Y-92799800D02*
X113319000Y-90099100D01*
X121620000Y-84474200D02*
X121620000Y-90786200D01*
X128054000Y-95551800D02*
X128054000Y-95445600D01*
X172450000Y-127434925D02*
X173130446Y-128115371D01*
X149370000Y-96621000D02*
X149457000Y-96621000D01*
X169594000Y-95864100D02*
X172100000Y-98369400D01*
X169041000Y-95864100D02*
X169594000Y-95864100D01*
X121620000Y-84474200D02*
X121620000Y-90786200D01*
X172100000Y-105946000D02*
X175554000Y-109400000D01*
X172450000Y-126565076D02*
X172450000Y-127434925D01*
X118087000Y-83554500D02*
X120701000Y-83554500D01*
X128732000Y-106456000D02*
X130592000Y-108317000D01*
X107917000Y-95263100D02*
X107917000Y-112769000D01*
X107917000Y-112769000D02*
X104682000Y-116004000D01*
X128732000Y-106456000D02*
X130592000Y-108317000D01*
X110380000Y-92799800D02*
X110618000Y-92799800D01*
X151367000Y-98617700D02*
X151367000Y-99559700D01*
X128732000Y-96123100D02*
X128732000Y-106456000D01*
X175554000Y-109400000D02*
X175554000Y-116199000D01*
X174984000Y-120008000D02*
X175606000Y-119385000D01*
X173130446Y-128115371D02*
X174984000Y-128115371D01*
X128054000Y-95445600D02*
X128732000Y-96123100D01*
X110618000Y-92799800D02*
X113319000Y-90099100D01*
X148238000Y-96621000D02*
X149370000Y-96621000D01*
X158564000Y-106757000D02*
X158464000Y-106656000D01*
X158262000Y-111380000D02*
X158564000Y-111078000D01*
X158564000Y-111078000D02*
X158564000Y-106757000D01*
X175606000Y-119385000D02*
X175606000Y-116252000D01*
X127482000Y-96123400D02*
X128054000Y-95551800D01*
X158292000Y-111526000D02*
X158262000Y-111496000D01*
X130592000Y-108317000D02*
X130592000Y-115523000D01*
X149370000Y-96621000D02*
X151367000Y-98617700D01*
X113319000Y-89861100D02*
X116763000Y-86417100D01*
X127482000Y-96123400D02*
X128054000Y-95551800D01*
X148238000Y-96621000D02*
X149370000Y-96621000D01*
X172100000Y-105946000D02*
X175554000Y-109400000D01*
X126958000Y-96123400D02*
X127482000Y-96123400D01*
X169041000Y-95864100D02*
X169594000Y-95864100D01*
X120701000Y-83554500D02*
X121620000Y-84474200D01*
X116763000Y-86417100D02*
X116763000Y-84878200D01*
X128732000Y-96123100D02*
X128732000Y-106456000D01*
X172100000Y-98369400D02*
X172100000Y-105946000D01*
X158564000Y-106757000D02*
X158464000Y-106656000D01*
X147603000Y-96757800D02*
X148101000Y-96757800D01*
X158292000Y-111526000D02*
X158262000Y-111496000D01*
X173315076Y-125700000D02*
X172450000Y-126565076D01*
X158292000Y-114999000D02*
X158292000Y-111526000D01*
X158292000Y-114999000D02*
X158160000Y-114999000D01*
X148101000Y-96757800D02*
X148238000Y-96621000D01*
X172100000Y-98369400D02*
X172100000Y-105946000D01*
X113319000Y-89861100D02*
X116763000Y-86417100D01*
X118087000Y-83554500D02*
X120701000Y-83554500D01*
X107917000Y-112769000D02*
X104682000Y-116004000D01*
X174984000Y-124884630D02*
X174168630Y-125700000D01*
X113319000Y-90099100D02*
X113319000Y-89861100D01*
X175606000Y-116252000D02*
X175554000Y-116199000D01*
X174168630Y-125700000D02*
X173315076Y-125700000D01*
X158262000Y-111496000D02*
X158262000Y-111380000D01*
X135885000Y-95066600D02*
X137439000Y-96621000D01*
X137439000Y-96621000D02*
X147466000Y-96621000D01*
X174984000Y-120008000D02*
X174984000Y-124884630D01*
X163301000Y-120008000D02*
X174984000Y-120008000D01*
X147466000Y-96621000D02*
X147603000Y-96757800D01*
X168739000Y-95562500D02*
X169041000Y-95864100D01*
X158292000Y-114999000D02*
X163301000Y-120008000D01*
X147603000Y-96757800D02*
X148101000Y-96757800D01*
X174984000Y-128115371D02*
X174984000Y-128586000D01*
X121620000Y-90786200D02*
X126958000Y-96123400D01*
X158262000Y-111496000D02*
X158262000Y-111380000D01*
X110380000Y-92799800D02*
X107917000Y-95263100D01*
X151367000Y-98617700D02*
X151367000Y-99559700D01*
X116763000Y-84878200D02*
X118087000Y-83554500D01*
X175606000Y-116252000D02*
X175554000Y-116199000D01*
X175606000Y-119385000D02*
X175606000Y-116252000D01*
X116763000Y-86417100D02*
X116763000Y-84878200D01*
X121620000Y-90786200D02*
X126958000Y-96123400D01*
X107917000Y-95263100D02*
X107917000Y-112769000D01*
X175554000Y-109400000D02*
X175554000Y-116199000D01*
X137439000Y-96621000D02*
X147466000Y-96621000D01*
%TO.N,/CE3*%
X177562000Y-106427000D02*
X177562000Y-112704000D01*
X174132000Y-97225800D02*
X174132000Y-102998000D01*
X167615000Y-90402700D02*
X169861000Y-92649500D01*
X178346000Y-120197000D02*
X186890000Y-128741000D01*
X174132000Y-102998000D02*
X177562000Y-106427000D01*
X177562000Y-112704000D02*
X178346000Y-113488000D01*
X169861000Y-92649500D02*
X169861000Y-92954900D01*
X169861000Y-92649500D02*
X169861000Y-92954900D01*
X178346000Y-120197000D02*
X186890000Y-128741000D01*
X178346000Y-113488000D02*
X178346000Y-120197000D01*
X167615000Y-88395900D02*
X167615000Y-90402700D01*
X177562000Y-112704000D02*
X178346000Y-113488000D01*
X177562000Y-106427000D02*
X177562000Y-112704000D01*
X167615000Y-88395900D02*
X167615000Y-90402700D01*
X174132000Y-102998000D02*
X177562000Y-106427000D01*
X167615000Y-90402700D02*
X169861000Y-92649500D01*
X174132000Y-97225800D02*
X174132000Y-102998000D01*
X169760000Y-86250700D02*
X167615000Y-88395900D01*
X169861000Y-92954900D02*
X174132000Y-97225800D01*
X169861000Y-92954900D02*
X174132000Y-97225800D01*
%TO.N,/MODEL*%
X178505027Y-148500000D02*
X190000000Y-148500000D01*
X168898957Y-138893930D02*
X178505027Y-148500000D01*
X168898957Y-133898957D02*
X168898957Y-138893930D01*
%TO.N,/DOE*%
X78223900Y-93074400D02*
X78648700Y-93499200D01*
X78648700Y-93499200D02*
X78648700Y-112836000D01*
X78648700Y-93499200D02*
X78648700Y-112836000D01*
X78648700Y-112836000D02*
X78547500Y-112937000D01*
X78648700Y-112836000D02*
X78547500Y-112937000D01*
%TO.N,/OE*%
X167953000Y-82872900D02*
X168414000Y-83334500D01*
X157800000Y-83104400D02*
X159523000Y-81381800D01*
X152172000Y-85082900D02*
X146145000Y-85082900D01*
X154461000Y-84681300D02*
X156038000Y-83104400D01*
X176710000Y-82965200D02*
X177744000Y-84000000D01*
X146145000Y-85082900D02*
X145062000Y-84000000D01*
X181816000Y-84749300D02*
X182565000Y-84000000D01*
X168414000Y-83334500D02*
X168961000Y-83334500D01*
X169154000Y-83527500D02*
X173274000Y-83527500D01*
X173274000Y-83527500D02*
X173836000Y-82965200D01*
X152172000Y-85082900D02*
X146145000Y-85082900D01*
X168414000Y-83334500D02*
X168961000Y-83334500D01*
X159523000Y-81381800D02*
X160914000Y-81381800D01*
X119693000Y-84945800D02*
X119693000Y-104425000D01*
X120453000Y-84185500D02*
X119693000Y-84945800D01*
X156038000Y-83104400D02*
X157800000Y-83104400D01*
X162108000Y-82576000D02*
X167633000Y-82576000D01*
X181816000Y-84749300D02*
X182565000Y-84000000D01*
X168961000Y-83334500D02*
X169154000Y-83527500D01*
X154461000Y-84681300D02*
X156038000Y-83104400D01*
X167930000Y-82872900D02*
X167953000Y-82872900D01*
X181816000Y-104102000D02*
X181816000Y-84749300D01*
X167633000Y-82576000D02*
X167930000Y-82872900D01*
X176710000Y-82965200D02*
X177744000Y-84000000D01*
X119693000Y-84945800D02*
X119693000Y-104425000D01*
X167930000Y-82872900D02*
X167953000Y-82872900D01*
X182714000Y-105000000D02*
X181816000Y-104102000D01*
X159523000Y-81381800D02*
X160914000Y-81381800D01*
X119693000Y-104425000D02*
X120268000Y-105000000D01*
X146145000Y-85082900D02*
X145062000Y-84000000D01*
X173836000Y-82965200D02*
X176710000Y-82965200D01*
X173836000Y-82965200D02*
X176710000Y-82965200D01*
X168961000Y-83334500D02*
X169154000Y-83527500D01*
X167953000Y-82872900D02*
X168414000Y-83334500D01*
X160914000Y-81381800D02*
X162108000Y-82576000D01*
X152372000Y-84882800D02*
X152574000Y-84681300D01*
X167633000Y-82576000D02*
X167930000Y-82872900D01*
X173274000Y-83527500D02*
X173836000Y-82965200D01*
X119693000Y-104425000D02*
X120268000Y-105000000D01*
X152372000Y-84882800D02*
X152172000Y-85082900D01*
X156038000Y-83104400D02*
X157800000Y-83104400D01*
X162108000Y-82576000D02*
X167633000Y-82576000D01*
X152574000Y-84681300D02*
X154461000Y-84681300D01*
X157800000Y-83104400D02*
X159523000Y-81381800D01*
X169154000Y-83527500D02*
X173274000Y-83527500D01*
X181816000Y-104102000D02*
X181816000Y-84749300D01*
X160914000Y-81381800D02*
X162108000Y-82576000D01*
X152574000Y-84681300D02*
X154461000Y-84681300D01*
%TO.N,/SD3*%
X117558000Y-82349200D02*
X115558000Y-84349200D01*
X151909000Y-91091000D02*
X158118000Y-91091000D01*
X115558000Y-84555600D02*
X114967000Y-85146400D01*
X122969000Y-84075700D02*
X121242000Y-82349200D01*
X117558000Y-82349200D02*
X115558000Y-84349200D01*
X149336000Y-92914200D02*
X150086000Y-92914200D01*
X122969000Y-84075700D02*
X121242000Y-82349200D01*
X149279000Y-92856800D02*
X149336000Y-92914200D01*
X138401000Y-92001600D02*
X139256000Y-92856800D01*
X158118000Y-91091000D02*
X158726000Y-91698800D01*
X139256000Y-92856800D02*
X149279000Y-92856800D01*
X139256000Y-92856800D02*
X149279000Y-92856800D01*
X122969000Y-89306700D02*
X122969000Y-84075700D01*
X150086000Y-92914200D02*
X151909000Y-91091000D01*
X150086000Y-92914200D02*
X151909000Y-91091000D01*
X149279000Y-92856800D02*
X149336000Y-92914200D01*
X121242000Y-82349200D02*
X117558000Y-82349200D01*
X115558000Y-84555600D02*
X114967000Y-85146400D01*
X115558000Y-84349200D02*
X115558000Y-84555600D01*
X158118000Y-91091000D02*
X158726000Y-91698800D01*
X125662000Y-92000000D02*
X122969000Y-89306700D01*
X151909000Y-91091000D02*
X158118000Y-91091000D01*
X122969000Y-89306700D02*
X122969000Y-84075700D01*
X158726000Y-91698800D02*
X163278000Y-91698800D01*
X158726000Y-91698800D02*
X163278000Y-91698800D01*
X115558000Y-84349200D02*
X115558000Y-84555600D01*
X121242000Y-82349200D02*
X117558000Y-82349200D01*
%TO.N,/SD0*%
X157816000Y-87539600D02*
X155942000Y-85665800D01*
X116982000Y-81144100D02*
X110854000Y-87273000D01*
X155942000Y-85665800D02*
X154345000Y-85665800D01*
X124174000Y-86264900D02*
X124174000Y-83576800D01*
X136501000Y-87996600D02*
X136498000Y-88000000D01*
X124174000Y-83576800D02*
X121741000Y-81144100D01*
X144700000Y-85886300D02*
X142590000Y-87996600D01*
X142590000Y-87996600D02*
X136501000Y-87996600D01*
X154345000Y-85665800D02*
X154124000Y-85886300D01*
X157816000Y-87539600D02*
X155942000Y-85665800D01*
X155942000Y-85665800D02*
X154345000Y-85665800D01*
X154345000Y-85665800D02*
X154124000Y-85886300D01*
X142590000Y-87996600D02*
X136501000Y-87996600D01*
X116982000Y-81144100D02*
X110854000Y-87273000D01*
X110854000Y-87273000D02*
X110854000Y-88000000D01*
X154124000Y-85886300D02*
X144700000Y-85886300D01*
X154124000Y-85886300D02*
X144700000Y-85886300D01*
X136501000Y-87996600D02*
X136498000Y-88000000D01*
X124174000Y-86264900D02*
X124174000Y-83576800D01*
X125909000Y-88000000D02*
X124174000Y-86264900D01*
X144700000Y-85886300D02*
X142590000Y-87996600D01*
X158460000Y-87820200D02*
X163283000Y-87820200D01*
X124174000Y-83576800D02*
X121741000Y-81144100D01*
X158180000Y-87539600D02*
X158460000Y-87820200D01*
X121741000Y-81144100D02*
X116982000Y-81144100D01*
X121741000Y-81144100D02*
X116982000Y-81144100D01*
X158180000Y-87539600D02*
X157816000Y-87539600D01*
X158460000Y-87820200D02*
X163283000Y-87820200D01*
X110854000Y-87273000D02*
X110854000Y-88000000D01*
%TO.N,/SD2*%
X115156000Y-84273500D02*
X114885000Y-84544700D01*
X125839000Y-90189500D02*
X123371000Y-87721300D01*
X114365000Y-86201300D02*
X113334000Y-87232800D01*
X115156000Y-84182900D02*
X115156000Y-84273500D01*
X164264000Y-92301700D02*
X165366000Y-91200000D01*
X151422000Y-90077400D02*
X149700000Y-91799900D01*
X152095000Y-90077400D02*
X151422000Y-90077400D01*
X117392000Y-81947500D02*
X115156000Y-84182900D01*
X123371000Y-87721300D02*
X123371000Y-83909400D01*
X149700000Y-91799900D02*
X147756000Y-91799900D01*
X147385000Y-91428700D02*
X147385000Y-91068900D01*
X123371000Y-83909400D02*
X121409000Y-81947500D01*
X149700000Y-91799900D02*
X147756000Y-91799900D01*
X121409000Y-81947500D02*
X117392000Y-81947500D01*
X157869000Y-91692800D02*
X158478000Y-92301700D01*
X151422000Y-90077400D02*
X149700000Y-91799900D01*
X158478000Y-92301700D02*
X164264000Y-92301700D01*
X138173000Y-88882500D02*
X135855000Y-91200000D01*
X147756000Y-91799900D02*
X147385000Y-91428700D01*
X114365000Y-84897300D02*
X114365000Y-86201300D01*
X147385000Y-91068900D02*
X145198000Y-88882500D01*
X138173000Y-88882500D02*
X135855000Y-91200000D01*
X147756000Y-91799900D02*
X147385000Y-91428700D01*
X114885000Y-84544700D02*
X114718000Y-84544700D01*
X123371000Y-83909400D02*
X121409000Y-81947500D01*
X164264000Y-92301700D02*
X165366000Y-91200000D01*
X114885000Y-84544700D02*
X114718000Y-84544700D01*
X147385000Y-91428700D02*
X147385000Y-91068900D01*
X145198000Y-88882500D02*
X138173000Y-88882500D01*
X147385000Y-91068900D02*
X145198000Y-88882500D01*
X114718000Y-84544700D02*
X114365000Y-84897300D01*
X145198000Y-88882500D02*
X138173000Y-88882500D01*
X123371000Y-87721300D02*
X123371000Y-83909400D01*
X114365000Y-84897300D02*
X114365000Y-86201300D01*
X158478000Y-92301700D02*
X164264000Y-92301700D01*
X114365000Y-86201300D02*
X113334000Y-87232800D01*
X115156000Y-84182900D02*
X115156000Y-84273500D01*
X121409000Y-81947500D02*
X117392000Y-81947500D01*
X115156000Y-84273500D02*
X114885000Y-84544700D01*
X114718000Y-84544700D02*
X114365000Y-84897300D01*
X117392000Y-81947500D02*
X115156000Y-84182900D01*
%TO.N,/SD4*%
X138146000Y-91399800D02*
X145937000Y-91399800D01*
X134928000Y-94618400D02*
X137519000Y-92026900D01*
X145937000Y-91399800D02*
X146569000Y-92031900D01*
X152728000Y-94116000D02*
X154146000Y-92698200D01*
X138146000Y-91399800D02*
X145937000Y-91399800D01*
X174734000Y-98003500D02*
X174734000Y-96956100D01*
X174734000Y-96956100D02*
X170484000Y-92705900D01*
X174781000Y-98050100D02*
X174734000Y-98003500D01*
X145738000Y-93293200D02*
X146561000Y-94116000D01*
X146561000Y-94116000D02*
X152728000Y-94116000D01*
X137519000Y-92026900D02*
X138785000Y-93293200D01*
X174734000Y-98003500D02*
X174734000Y-96956100D01*
X138785000Y-93293200D02*
X145738000Y-93293200D01*
X138785000Y-93293200D02*
X145738000Y-93293200D01*
X145937000Y-91399800D02*
X146569000Y-92031900D01*
X145738000Y-93293200D02*
X146561000Y-94116000D01*
X146561000Y-94116000D02*
X152728000Y-94116000D01*
X152728000Y-94116000D02*
X154146000Y-92698200D01*
X137519000Y-92026900D02*
X138146000Y-91399800D01*
X174734000Y-96956100D02*
X170484000Y-92705900D01*
X134928000Y-94618400D02*
X137519000Y-92026900D01*
X134928000Y-95668400D02*
X134928000Y-94618400D01*
%TO.N,/SD5*%
X173746000Y-91803200D02*
X174350000Y-91200000D01*
X169711000Y-91803200D02*
X173746000Y-91803200D01*
X147590000Y-92201600D02*
X150168000Y-92201600D01*
X147590000Y-92201600D02*
X150168000Y-92201600D01*
X162585000Y-91123400D02*
X163305000Y-90403800D01*
X168303000Y-90240400D02*
X168303000Y-90395300D01*
X168303000Y-90395300D02*
X169711000Y-91803200D01*
X150168000Y-92201600D02*
X151681000Y-90689300D01*
X168303000Y-90395300D02*
X169711000Y-91803200D01*
X146660000Y-91271600D02*
X147590000Y-92201600D01*
X162585000Y-91123400D02*
X163305000Y-90403800D01*
X158815000Y-90689300D02*
X159249000Y-91123400D01*
X169711000Y-91803200D02*
X173746000Y-91803200D01*
X151681000Y-90689300D02*
X158815000Y-90689300D01*
X173746000Y-91803200D02*
X174350000Y-91200000D01*
X146660000Y-91271600D02*
X147590000Y-92201600D01*
X151681000Y-90689300D02*
X158815000Y-90689300D01*
X146660000Y-91200000D02*
X146660000Y-91271600D01*
X159249000Y-91123400D02*
X162585000Y-91123400D01*
X158815000Y-90689300D02*
X159249000Y-91123400D01*
X159249000Y-91123400D02*
X162585000Y-91123400D01*
X150168000Y-92201600D02*
X151681000Y-90689300D01*
%TO.N,/SD1*%
X155535000Y-86067500D02*
X154511000Y-86067500D01*
X114552000Y-84143000D02*
X113964000Y-84731000D01*
X113964000Y-84731000D02*
X113964000Y-85752200D01*
X123772000Y-87231700D02*
X123772000Y-83743100D01*
X157648000Y-88180900D02*
X158267000Y-88800000D01*
X111212000Y-88503500D02*
X111212000Y-88800000D01*
X113964000Y-84731000D02*
X113964000Y-85752200D01*
X137455000Y-88398300D02*
X137053000Y-88800000D01*
X154290000Y-86288000D02*
X145435000Y-86288000D01*
X143324000Y-88398300D02*
X137455000Y-88398300D01*
X114628000Y-84142900D02*
X114628000Y-84143000D01*
X125341000Y-88800000D02*
X123772000Y-87231700D01*
X117225000Y-81545800D02*
X114628000Y-84142900D01*
X121575000Y-81545800D02*
X117225000Y-81545800D01*
X145435000Y-86288000D02*
X143324000Y-88398300D01*
X113964000Y-85752200D02*
X111212000Y-88503500D01*
X114628000Y-84142900D02*
X114628000Y-84143000D01*
X121575000Y-81545800D02*
X117225000Y-81545800D01*
X111212000Y-88503500D02*
X111212000Y-88800000D01*
X155535000Y-86067500D02*
X154511000Y-86067500D01*
X137455000Y-88398300D02*
X137053000Y-88800000D01*
X113964000Y-85752200D02*
X111212000Y-88503500D01*
X143324000Y-88398300D02*
X137455000Y-88398300D01*
X157648000Y-88180900D02*
X155535000Y-86067500D01*
X154511000Y-86067500D02*
X154290000Y-86288000D01*
X158267000Y-88800000D02*
X163637000Y-88800000D01*
X158267000Y-88800000D02*
X163637000Y-88800000D01*
X114628000Y-84143000D02*
X114552000Y-84143000D01*
X123772000Y-87231700D02*
X123772000Y-83743100D01*
X117225000Y-81545800D02*
X114628000Y-84142900D01*
X154511000Y-86067500D02*
X154290000Y-86288000D01*
X123772000Y-83743100D02*
X121575000Y-81545800D01*
X114628000Y-84143000D02*
X114552000Y-84143000D01*
X114552000Y-84143000D02*
X113964000Y-84731000D01*
X123772000Y-83743100D02*
X121575000Y-81545800D01*
X145435000Y-86288000D02*
X143324000Y-88398300D01*
X154290000Y-86288000D02*
X145435000Y-86288000D01*
%TO.N,/SD7*%
X146542000Y-87297300D02*
X152121000Y-87297300D01*
X165734000Y-86075500D02*
X166868000Y-84941300D01*
X158977000Y-84992500D02*
X160060000Y-86075500D01*
X172784000Y-85648000D02*
X174519000Y-87383400D01*
X157545000Y-84568600D02*
X157938000Y-84175000D01*
X160060000Y-86075500D02*
X165734000Y-86075500D01*
X168296000Y-84941300D02*
X168602000Y-85247200D01*
X166868000Y-84941300D02*
X168296000Y-84941300D01*
X158414000Y-84175000D02*
X158977000Y-84738800D01*
X170642000Y-85648000D02*
X172784000Y-85648000D01*
X168602000Y-85247200D02*
X170241000Y-85247200D01*
X170241000Y-85247200D02*
X170642000Y-85648000D01*
X170241000Y-85247200D02*
X170642000Y-85648000D01*
X160060000Y-86075500D02*
X165734000Y-86075500D01*
X157938000Y-84175000D02*
X158414000Y-84175000D01*
X165734000Y-86075500D02*
X166868000Y-84941300D01*
X166868000Y-84941300D02*
X168296000Y-84941300D01*
X157938000Y-84175000D02*
X158414000Y-84175000D01*
X146542000Y-87297300D02*
X152121000Y-87297300D01*
X157545000Y-86417500D02*
X157545000Y-84568600D01*
X158977000Y-84738800D02*
X158977000Y-84992500D01*
X157545000Y-84568600D02*
X157938000Y-84175000D01*
X157545000Y-86417500D02*
X157545000Y-84568600D01*
X168602000Y-85247200D02*
X170241000Y-85247200D01*
X172784000Y-85648000D02*
X174519000Y-87383400D01*
X170642000Y-85648000D02*
X172784000Y-85648000D01*
X158977000Y-84992500D02*
X160060000Y-86075500D01*
X157856000Y-86729100D02*
X157545000Y-86417500D01*
X168296000Y-84941300D02*
X168602000Y-85247200D01*
X145840000Y-88000000D02*
X146542000Y-87297300D01*
X158414000Y-84175000D02*
X158977000Y-84738800D01*
X158977000Y-84738800D02*
X158977000Y-84992500D01*
%TO.N,/SD6*%
X169698000Y-88245900D02*
X168617000Y-89326600D01*
X169698000Y-88245900D02*
X168617000Y-89326600D01*
X147167000Y-88241400D02*
X146578000Y-88830400D01*
X173640000Y-88245900D02*
X169698000Y-88245900D01*
X168617000Y-89326600D02*
X168617000Y-89420200D01*
X147167000Y-88241400D02*
X146578000Y-88830400D01*
X168617000Y-89326600D02*
X168617000Y-89420200D01*
X152808000Y-89265500D02*
X151784000Y-88241400D01*
X151784000Y-88241400D02*
X147167000Y-88241400D01*
X151784000Y-88241400D02*
X147167000Y-88241400D01*
X174194000Y-88800000D02*
X173640000Y-88245900D01*
X173640000Y-88245900D02*
X169698000Y-88245900D01*
%TO.N,/SD11*%
X142687000Y-110585000D02*
X143562000Y-111461000D01*
X174092000Y-115589000D02*
X174092000Y-113000000D01*
X175152000Y-116648000D02*
X174092000Y-115589000D01*
X143562000Y-111461000D02*
X143562000Y-111815000D01*
X142383000Y-110585000D02*
X142687000Y-110585000D01*
X113465000Y-112897000D02*
X123548000Y-112897000D01*
X123548000Y-112897000D02*
X123651000Y-113000000D01*
X84855100Y-111118000D02*
X83626100Y-112347000D01*
X165401000Y-119508000D02*
X174463000Y-119508000D01*
X137085000Y-108977000D02*
X137486000Y-109378000D01*
X158893000Y-113000000D02*
X165401000Y-119508000D01*
X142383000Y-110585000D02*
X142687000Y-110585000D01*
X83626100Y-112347000D02*
X83310000Y-112347000D01*
X123548000Y-112897000D02*
X123651000Y-113000000D01*
X175152000Y-118819000D02*
X175152000Y-116648000D01*
X137486000Y-109378000D02*
X141176000Y-109378000D01*
X137486000Y-109378000D02*
X141176000Y-109378000D01*
X143562000Y-111461000D02*
X143562000Y-111815000D01*
X165401000Y-119508000D02*
X174463000Y-119508000D01*
X175152000Y-116648000D02*
X174092000Y-115589000D01*
X174463000Y-119508000D02*
X175152000Y-118819000D01*
X174092000Y-115589000D02*
X174092000Y-113000000D01*
X175152000Y-118819000D02*
X175152000Y-116648000D01*
X83626100Y-112347000D02*
X83310000Y-112347000D01*
X174463000Y-119508000D02*
X175152000Y-118819000D01*
X141176000Y-109378000D02*
X142383000Y-110585000D01*
X141176000Y-109378000D02*
X142383000Y-110585000D01*
X142687000Y-110585000D02*
X143562000Y-111461000D01*
%TO.N,/SD15*%
X130977000Y-124446000D02*
X130977000Y-124245000D01*
X105431000Y-118111000D02*
X106187000Y-117355000D01*
X105431000Y-118111000D02*
X106187000Y-117355000D01*
X135403000Y-112500000D02*
X135403000Y-120021000D01*
X130977000Y-124446000D02*
X130977000Y-124245000D01*
X105431000Y-119360000D02*
X105431000Y-118111000D01*
X111535000Y-112006000D02*
X111535000Y-109000000D01*
X135403000Y-120021000D02*
X130977000Y-124446000D01*
X111535000Y-112006000D02*
X111535000Y-109000000D01*
X106187000Y-117355000D02*
X111535000Y-112006000D01*
X135403000Y-120021000D02*
X130977000Y-124446000D01*
X107979000Y-121908000D02*
X105431000Y-119360000D01*
X105431000Y-119360000D02*
X105431000Y-118111000D01*
%TO.N,/SD8*%
X164624000Y-109000000D02*
X160732000Y-109000000D01*
X142277000Y-107126000D02*
X144152000Y-109000000D01*
X115853000Y-109018000D02*
X115211000Y-108375000D01*
X142277000Y-107126000D02*
X144152000Y-109000000D01*
X139202000Y-107126000D02*
X142277000Y-107126000D01*
X122705000Y-109562000D02*
X122161000Y-109018000D01*
X122161000Y-109018000D02*
X115853000Y-109018000D01*
X122161000Y-109018000D02*
X115853000Y-109018000D01*
X115853000Y-109018000D02*
X115211000Y-108375000D01*
%TO.N,/SD10*%
X139220000Y-108421000D02*
X141069000Y-108421000D01*
X122355000Y-112200000D02*
X114178000Y-112200000D01*
X141069000Y-108421000D02*
X142632000Y-109984000D01*
X160574000Y-113269000D02*
X158899000Y-111594000D01*
X141069000Y-108421000D02*
X142632000Y-109984000D01*
X160574000Y-113269000D02*
X158899000Y-111594000D01*
X164901000Y-113269000D02*
X160574000Y-113269000D01*
%TO.N,/SD9*%
X141953000Y-107819000D02*
X143971000Y-109837000D01*
X135404000Y-107819000D02*
X141953000Y-107819000D01*
X135358000Y-107865000D02*
X135404000Y-107819000D01*
X164290000Y-109800000D02*
X159466000Y-109800000D01*
X135404000Y-107819000D02*
X141953000Y-107819000D01*
X116444000Y-109800000D02*
X120508000Y-109800000D01*
X120508000Y-109800000D02*
X120910000Y-110202000D01*
X141953000Y-107819000D02*
X143971000Y-109837000D01*
X120508000Y-109800000D02*
X120910000Y-110202000D01*
%TO.N,/EXT_DTACK_OUT*%
X175730964Y-133000000D02*
X161500000Y-133000000D01*
X178800000Y-131800000D02*
X179800000Y-131800000D01*
X179800000Y-131800000D02*
X180500000Y-132500000D01*
X161500000Y-133000000D02*
X159000000Y-130500000D01*
X175833424Y-132897540D02*
X175730964Y-133000000D01*
%TO.N,/DTACK_OUT*%
X182500000Y-127000000D02*
X173500000Y-127000000D01*
X183000000Y-126500000D02*
X182500000Y-127000000D01*
%TO.N,/LED0*%
X169850003Y-134500000D02*
X169500000Y-134850003D01*
X188850000Y-148000000D02*
X189350000Y-147500000D01*
X169500000Y-134850003D02*
X169500000Y-138929288D01*
X178570712Y-148000000D02*
X188850000Y-148000000D01*
X169500000Y-138929288D02*
X178570712Y-148000000D01*
%TO.N,/LED1*%
X178737226Y-147598000D02*
X170000000Y-138860774D01*
X188500000Y-147598000D02*
X188500000Y-147000000D01*
X170000000Y-138860774D02*
X170000000Y-135650000D01*
X188500000Y-147598000D02*
X178737226Y-147598000D01*
X170000000Y-135650000D02*
X170150000Y-135500000D01*
%TO.N,/LED2*%
X179065686Y-147196000D02*
X179065686Y-144643442D01*
X186500000Y-147196000D02*
X186804000Y-147196000D01*
X178684744Y-144262500D02*
X175970240Y-144262500D01*
X186500000Y-147196000D02*
X179065686Y-147196000D01*
X187000000Y-147196000D02*
X187000000Y-147000000D01*
X187000000Y-147000000D02*
X189000000Y-145000000D01*
X179065686Y-144643442D02*
X178684744Y-144262500D01*
X187000000Y-147196000D02*
X186500000Y-147196000D01*
X175970240Y-144262500D02*
X170702328Y-138994588D01*
X170702328Y-138994588D02*
X170702328Y-136550000D01*
%TO.N,/LED3*%
X189840000Y-131079239D02*
X190150000Y-130769239D01*
X189840000Y-129420761D02*
X189840000Y-79540000D01*
X189350000Y-79050000D02*
X188850000Y-79050000D01*
X189840000Y-131632000D02*
X189840000Y-131079239D01*
X184864000Y-136608000D02*
X184558000Y-136608000D01*
X189840000Y-79540000D02*
X189350000Y-79050000D01*
X189840000Y-131632000D02*
X184864000Y-136608000D01*
X190150000Y-130769239D02*
X190150000Y-129730761D01*
X190150000Y-129730761D02*
X189840000Y-129420761D01*
X184864000Y-136608000D02*
X184558000Y-136608000D01*
X189840000Y-131632000D02*
X184864000Y-136608000D01*
%TD*%
M02*
