M48
; DRILL file {KiCad 9.0.8} date 2026-07-18T09:17:31-0400
; FORMAT={-:-/ absolute / metric / decimal}
; #@! TF.CreationDate,2026-07-18T09:17:31-04:00
; #@! TF.GenerationSoftware,Kicad,Pcbnew,9.0.8
; #@! TF.FileFunction,Plated,1,4,PTH
FMAT,2
METRIC
; #@! TA.AperFunction,Plated,PTH,ViaDrill
T1C0.300
; #@! TA.AperFunction,Plated,PTH,ComponentDrill
T2C0.710
; #@! TA.AperFunction,Plated,PTH,ComponentDrill
T3C1.000
; #@! TA.AperFunction,Plated,PTH,ComponentDrill
T4C1.200
%
G90
G05
T1
X73.0Y-92.5
X73.0Y-115.5
X75.5Y-92.5
X75.7Y-115.5
X78.0Y-84.5
X78.0Y-108.5
X78.224Y-93.074
X78.547Y-112.937
X79.272Y-102.331
X79.5Y-84.5
X79.5Y-108.5
X79.501Y-98.463
X80.095Y-102.118
X81.0Y-84.5
X81.0Y-108.5
X81.302Y-102.2
X82.5Y-84.5
X82.5Y-108.5
X83.31Y-112.347
X84.0Y-84.5
X84.0Y-108.5
X84.346Y-102.987
X84.855Y-111.118
X85.157Y-102.718
X85.5Y-84.5
X85.5Y-108.5
X87.0Y-84.5
X87.0Y-98.5
X87.0Y-108.5
X88.5Y-84.5
X88.5Y-102.5
X88.5Y-108.5
X88.5Y-125.5
X88.5Y-143.0
X89.714Y-140.403
X90.011Y-148.294
X90.5Y-143.0
X92.427Y-133.858
X92.507Y-132.26
X94.5Y-135.5
X95.028Y-125.25
X95.772Y-116.69
X98.0Y-100.5
X98.5Y-135.5
X99.063Y-105.8
X99.711Y-103.973
X99.997Y-105.445
X100.1Y-92.312
X101.033Y-137.975
X101.482Y-105.0
X102.373Y-103.4
X102.396Y-87.231
X102.529Y-124.447
X103.0Y-100.5
X103.148Y-86.715
X104.536Y-106.6
X104.649Y-84.806
X104.682Y-116.004
X104.932Y-102.605
X105.734Y-102.004
X106.123Y-105.0
X106.187Y-117.355
X106.2Y-82.4
X106.362Y-84.0
X106.5Y-89.5
X106.5Y-90.5
X106.5Y-110.5
X106.5Y-111.5
X106.54Y-85.794
X106.541Y-106.6
X106.556Y-118.673
X107.507Y-126.253
X107.979Y-121.908
X108.977Y-120.014
X109.092Y-98.4
X109.809Y-91.724
X109.9Y-103.4
X110.38Y-92.8
X110.782Y-122.699
X110.854Y-88.0
X111.199Y-96.734
X111.212Y-88.8
X111.526Y-95.727
X111.528Y-104.2
X111.535Y-109.0
X111.621Y-117.245
X111.836Y-103.239
X111.923Y-81.36
X112.234Y-114.381
X112.717Y-89.85
X112.823Y-117.846
X112.856Y-115.638
X113.205Y-95.729
X113.334Y-87.233
X113.465Y-112.897
X114.178Y-112.2
X114.266Y-105.8
X114.967Y-85.146
X114.986Y-105.0
X115.211Y-108.375
X116.0Y-78.5
X116.128Y-146.386
X116.235Y-96.252
X116.444Y-109.8
X116.764Y-121.549
X116.778Y-115.15
X117.5Y-85.0
X117.5Y-89.5
X117.5Y-90.5
X117.5Y-106.0
X117.5Y-110.5
X117.5Y-111.5
X117.554Y-145.602
X117.57Y-102.637
X117.6Y-80.542
X117.719Y-86.246
X117.978Y-137.975
X120.268Y-105.0
X120.284Y-106.6
X120.284Y-107.814
X120.318Y-100.803
X120.426Y-116.613
X120.453Y-84.185
X120.47Y-121.068
X120.715Y-105.8
X120.851Y-108.416
X120.91Y-110.202
X121.655Y-120.646
X122.355Y-112.2
X122.5Y-145.0
X122.642Y-125.049
X122.705Y-109.562
X123.246Y-131.118
X123.651Y-113.0
X123.895Y-114.777
X124.323Y-115.484
X125.136Y-81.54
X125.341Y-88.8
X125.5Y-145.5
X125.662Y-92.0
X125.782Y-101.793
X125.839Y-90.189
X125.909Y-88.0
X126.122Y-117.8
X126.239Y-100.187
X126.876Y-97.6
X126.923Y-94.4
X126.997Y-119.038
X127.235Y-95.477
X127.288Y-98.344
X127.433Y-86.323
X127.599Y-101.232
X127.797Y-117.0
X128.0Y-89.5
X128.0Y-90.5
X128.0Y-110.5
X128.0Y-111.5
X128.054Y-95.446
X128.055Y-82.156
X128.06Y-85.799
X128.454Y-144.559
X129.27Y-136.577
X129.383Y-123.844
X130.592Y-115.523
X130.738Y-106.421
X130.88Y-93.2
X130.937Y-82.4
X130.942Y-102.627
X130.977Y-124.245
X131.23Y-105.718
X131.331Y-107.396
X131.42Y-84.805
X131.466Y-84.0
X132.057Y-141.821
X132.081Y-140.24
X132.239Y-117.8
X132.693Y-83.657
X132.981Y-105.0
X132.993Y-133.858
X133.1Y-102.261
X133.246Y-96.0
X134.014Y-132.339
X134.303Y-96.177
X134.746Y-110.118
X134.757Y-101.579
X134.838Y-104.082
X134.928Y-95.668
X135.053Y-105.286
X135.358Y-107.865
X135.403Y-112.5
X135.732Y-101.277
X135.855Y-91.2
X135.885Y-95.067
X136.134Y-99.892
X136.498Y-88.0
X136.688Y-112.047
X137.0Y-78.5
X137.053Y-88.8
X137.085Y-108.977
X137.206Y-93.2
X137.522Y-113.228
X137.532Y-112.423
X137.798Y-127.658
X138.27Y-126.38
X138.401Y-92.002
X139.0Y-85.0
X139.0Y-89.5
X139.0Y-90.5
X139.0Y-106.0
X139.0Y-110.5
X139.0Y-111.5
X139.202Y-107.126
X139.22Y-108.421
X139.222Y-94.4
X141.798Y-84.8
X142.461Y-104.731
X142.5Y-100.5
X142.632Y-109.984
X142.742Y-111.534
X143.562Y-111.815
X143.971Y-109.837
X144.152Y-109.0
X144.891Y-105.729
X144.985Y-106.6
X145.062Y-84.0
X145.39Y-87.184
X145.437Y-83.2
X145.461Y-104.119
X145.84Y-88.0
X146.2Y-82.4
X146.466Y-98.344
X146.569Y-92.032
X146.578Y-88.83
X146.66Y-91.2
X147.027Y-82.903
X147.353Y-95.521
X147.39Y-116.151
X147.5Y-100.5
X147.602Y-93.493
X147.852Y-96.156
X148.09Y-83.676
X148.685Y-115.4
X149.301Y-81.6
X149.336Y-92.914
X149.348Y-102.695
X149.457Y-96.621
X149.5Y-89.5
X149.5Y-90.5
X149.5Y-110.5
X149.5Y-111.5
X149.543Y-97.73
X151.268Y-101.815
X151.367Y-99.56
X152.095Y-90.077
X152.099Y-81.6
X152.115Y-116.593
X152.119Y-95.521
X152.121Y-87.297
X152.33Y-117.797
X152.372Y-84.883
X152.528Y-93.396
X152.718Y-96.056
X152.808Y-89.266
X152.937Y-116.865
X153.497Y-100.206
X154.146Y-92.698
X154.76Y-86.669
X154.935Y-96.512
X155.076Y-119.594
X156.136Y-99.802
X156.402Y-105.917
X156.714Y-99.203
X156.757Y-108.229
X156.817Y-103.402
X157.376Y-115.475
X157.646Y-125.864
X157.648Y-88.181
X157.726Y-104.2
X157.856Y-86.729
X157.869Y-91.693
X158.16Y-114.999
X158.177Y-84.8
X158.18Y-87.54
X158.407Y-101.044
X158.464Y-106.656
X158.711Y-94.4
X158.893Y-113.0
X158.899Y-111.594
X159.0Y-78.5
X159.0Y-147.5
X159.466Y-109.8
X159.563Y-83.805
X159.991Y-82.4
X160.359Y-83.2
X160.5Y-85.0
X160.5Y-89.5
X160.5Y-90.5
X160.5Y-106.0
X160.5Y-110.5
X160.5Y-111.5
X160.524Y-97.228
X160.732Y-109.0
X162.04Y-126.466
X162.945Y-99.938
X163.269Y-93.019
X163.277Y-93.841
X163.278Y-91.699
X163.283Y-87.82
X163.285Y-86.77
X163.305Y-90.404
X163.5Y-147.5
X163.637Y-88.8
X163.895Y-81.572
X164.29Y-109.8
X164.624Y-109.0
X164.901Y-113.269
X165.288Y-80.316
X165.366Y-91.2
X168.179Y-82.271
X168.233Y-85.73
X168.303Y-90.24
X168.617Y-89.42
X168.739Y-95.562
X168.899Y-133.899
X169.03Y-80.921
X169.141Y-117.0
X169.419Y-98.547
X169.76Y-86.251
X169.85Y-134.5
X169.894Y-97.886
X169.949Y-97.084
X170.15Y-135.5
X170.254Y-81.721
X170.484Y-92.706
X170.702Y-136.55
X171.223Y-84.243
X171.5Y-89.5
X171.5Y-90.5
X171.5Y-110.5
X171.5Y-112.0
X171.552Y-118.419
X174.092Y-113.0
X174.101Y-105.958
X174.107Y-85.814
X174.108Y-105.0
X174.118Y-117.716
X174.194Y-88.8
X174.35Y-91.2
X174.42Y-118.6
X174.519Y-87.383
X174.623Y-83.567
X174.781Y-98.05
X174.917Y-104.945
X174.984Y-128.586
X175.0Y-73.5
X175.136Y-103.15
X175.554Y-116.199
X175.865Y-99.05
X175.876Y-83.567
X176.5Y-130.5
X176.5Y-135.0
X176.822Y-98.409
X177.0Y-138.0
X177.177Y-129.161
X177.579Y-102.631
X177.624Y-115.4
X177.744Y-84.0
X177.897Y-83.032
X178.279Y-146.221
X178.346Y-113.488
X178.5Y-138.0
X178.56Y-126.466
X178.794Y-99.827
X179.0Y-130.0
X179.5Y-138.0
X179.61Y-103.4
X179.775Y-82.4
X180.5Y-138.0
X180.727Y-87.548
X181.0Y-146.5
X181.285Y-77.85
X181.628Y-120.193
X181.718Y-118.6
X181.942Y-116.2
X181.95Y-125.061
X182.263Y-106.823
X182.5Y-85.0
X182.5Y-89.5
X182.5Y-90.5
X182.5Y-106.0
X182.5Y-110.5
X182.5Y-111.5
X182.5Y-138.0
X182.518Y-96.799
X182.531Y-117.888
X182.565Y-84.0
X182.714Y-105.0
X182.718Y-115.4
X183.37Y-100.24
X183.5Y-130.0
X183.5Y-131.5
X183.5Y-136.0
X183.543Y-101.809
X184.0Y-146.5
X184.5Y-138.0
X184.558Y-136.608
X184.772Y-120.186
X184.875Y-99.307
X185.312Y-82.239
X186.89Y-128.741
X187.081Y-131.9
X187.406Y-131.062
X187.9Y-132.7
X188.5Y-147.0
X188.85Y-79.05
X189.0Y-145.0
X189.35Y-147.5
X190.0Y-148.5
T2
X95.52Y-139.565
X95.52Y-147.435
X98.06Y-139.565
X98.06Y-147.435
X100.6Y-139.565
X100.6Y-147.435
X103.14Y-139.565
X103.14Y-147.435
X105.68Y-139.565
X105.68Y-147.435
X108.22Y-139.565
X108.22Y-147.435
X110.76Y-139.565
X110.76Y-147.435
X113.3Y-139.565
X113.3Y-147.435
X115.84Y-139.565
X115.84Y-147.435
X118.38Y-139.565
X118.38Y-147.435
X120.92Y-139.565
X120.92Y-147.435
X123.46Y-139.565
X123.46Y-147.435
X126.0Y-139.565
X126.0Y-147.435
X128.54Y-139.565
X128.54Y-147.435
X131.08Y-139.565
X131.08Y-147.435
X133.62Y-139.565
X133.62Y-147.435
X136.16Y-139.565
X136.16Y-147.435
X138.7Y-139.565
X138.7Y-147.435
X141.24Y-139.565
X141.24Y-147.435
X143.78Y-139.565
X143.78Y-147.435
X146.32Y-139.565
X146.32Y-147.435
X148.86Y-139.565
X148.86Y-147.435
X151.4Y-139.565
X151.4Y-147.435
X153.94Y-139.565
X153.94Y-147.435
X156.48Y-139.565
X156.48Y-147.435
T3
X143.8Y-130.0
X146.34Y-130.0
X148.88Y-130.0
X151.42Y-130.0
X153.96Y-130.0
X156.5Y-130.0
X183.5Y-73.5
X186.04Y-73.5
T4
X71.0Y-125.0
M30
