%TF.GenerationSoftware,KiCad,Pcbnew,9.0.8*%
%TF.CreationDate,2026-07-27T12:14:58-04:00*%
%TF.ProjectId,PortableRAM-8MB,506f7274-6162-46c6-9552-414d2d384d42,3.0*%
%TF.SameCoordinates,Original*%
%TF.FileFunction,Paste,Bot*%
%TF.FilePolarity,Positive*%
%FSLAX46Y46*%
G04 Gerber Fmt 4.6, Leading zero omitted, Abs format (unit mm)*
G04 Created by KiCad (PCBNEW 9.0.8) date 2026-07-27 12:14:58*
%MOMM*%
%LPD*%
G01*
G04 APERTURE LIST*
G04 Aperture macros list*
%AMRoundRect*
0 Rectangle with rounded corners*
0 $1 Rounding radius*
0 $2 $3 $4 $5 $6 $7 $8 $9 X,Y pos of 4 corners*
0 Add a 4 corners polygon primitive as box body*
4,1,4,$2,$3,$4,$5,$6,$7,$8,$9,$2,$3,0*
0 Add four circle primitives for the rounded corners*
1,1,$1+$1,$2,$3*
1,1,$1+$1,$4,$5*
1,1,$1+$1,$6,$7*
1,1,$1+$1,$8,$9*
0 Add four rect primitives between the rounded corners*
20,1,$1+$1,$2,$3,$4,$5,0*
20,1,$1+$1,$4,$5,$6,$7,0*
20,1,$1+$1,$6,$7,$8,$9,0*
20,1,$1+$1,$8,$9,$2,$3,0*%
G04 Aperture macros list end*
%ADD10RoundRect,0.250000X0.250000X0.475000X-0.250000X0.475000X-0.250000X-0.475000X0.250000X-0.475000X0*%
%ADD11RoundRect,0.250000X-0.475000X0.250000X-0.475000X-0.250000X0.475000X-0.250000X0.475000X0.250000X0*%
%ADD12RoundRect,0.250000X0.475000X-0.250000X0.475000X0.250000X-0.475000X0.250000X-0.475000X-0.250000X0*%
%ADD13RoundRect,0.250000X0.450000X-0.262500X0.450000X0.262500X-0.450000X0.262500X-0.450000X-0.262500X0*%
%ADD14RoundRect,0.250000X-0.250000X-0.475000X0.250000X-0.475000X0.250000X0.475000X-0.250000X0.475000X0*%
%ADD15RoundRect,0.250000X-0.450000X0.262500X-0.450000X-0.262500X0.450000X-0.262500X0.450000X0.262500X0*%
G04 APERTURE END LIST*
D10*
%TO.C,C16*%
X97450000Y-135500000D03*
X95550000Y-135500000D03*
%TD*%
D11*
%TO.C,C12*%
X183500000Y-132550000D03*
X183500000Y-134450000D03*
%TD*%
D10*
%TO.C,C14*%
X179950000Y-136500000D03*
X178050000Y-136500000D03*
%TD*%
%TO.C,C10*%
X75220000Y-114000000D03*
X73320000Y-114000000D03*
%TD*%
D11*
%TO.C,C4*%
X170412500Y-89050000D03*
X170412500Y-90950000D03*
%TD*%
D12*
%TO.C,C13*%
X177000000Y-133450000D03*
X177000000Y-131550000D03*
%TD*%
D11*
%TO.C,C8*%
X170412500Y-110050000D03*
X170412500Y-111950000D03*
%TD*%
%TO.C,C3*%
X148412500Y-89050000D03*
X148412500Y-90950000D03*
%TD*%
D10*
%TO.C,C17*%
X90450000Y-141500000D03*
X88550000Y-141500000D03*
%TD*%
%TO.C,C9*%
X75220000Y-91000000D03*
X73320000Y-91000000D03*
%TD*%
D11*
%TO.C,C7*%
X148412500Y-110050000D03*
X148412500Y-111950000D03*
%TD*%
D13*
%TO.C,R22*%
X181000000Y-145075000D03*
X181000000Y-143250000D03*
%TD*%
D11*
%TO.C,C6*%
X126912500Y-110050000D03*
X126912500Y-111950000D03*
%TD*%
%TO.C,C5*%
X105412500Y-110050000D03*
X105412500Y-111950000D03*
%TD*%
D13*
%TO.C,R23*%
X184000000Y-145075000D03*
X184000000Y-143250000D03*
%TD*%
D10*
%TO.C,C18*%
X145862500Y-100500000D03*
X143962500Y-100500000D03*
%TD*%
D14*
%TO.C,C11*%
X180050000Y-130000000D03*
X181950000Y-130000000D03*
%TD*%
D10*
%TO.C,C19*%
X101362500Y-100500000D03*
X99462500Y-100500000D03*
%TD*%
D11*
%TO.C,C1*%
X105412500Y-89000000D03*
X105412500Y-90900000D03*
%TD*%
D15*
%TO.C,R21*%
X178000000Y-143250000D03*
X178000000Y-145075000D03*
%TD*%
D14*
%TO.C,C15*%
X160050000Y-147500000D03*
X161950000Y-147500000D03*
%TD*%
D11*
%TO.C,C2*%
X126912500Y-89050000D03*
X126912500Y-90950000D03*
%TD*%
M02*
